<?xml version="1.0" encoding="utf-8"?>
<!-- Generator: Adobe Illustrator 23.1.1, SVG Export Plug-In . SVG Version: 6.00 Build 0)  -->
<svg version="1.1" id="Layer_1" xmlns="http://www.w3.org/2000/svg" xmlns:xlink="http://www.w3.org/1999/xlink" x="0px" y="0px"
	 viewBox="0 0 133 40" style="enable-background:new 0 0 133 40;" xml:space="preserve">
<style type="text/css">
	.st0{fill:#545454;}
	.st1{fill:#00BAFF;}
</style>
<path class="st0" d="M30.3,25c0,2.9-0.9,5.6-2.5,7.8c-2.5,3.5-6.6,5.8-11.3,5.7C9.5,38.3,3.6,32.6,3.3,25.6c-0.1-2.1,0.3-4.2,1.1-6
	L4.7,6.9c0-1.1,1-2.1,2.1-2.1c1.2,0,2.1,0.9,2.1,2.1V7l-0.2,7.2C8.9,14.1,9,14,9.2,13.9l3.1-10.2c0.3-1.1,1.5-1.7,2.6-1.4
	c0.9,0.3,1.5,1.1,1.5,2c0,0.2,0,0.4-0.1,0.6l-2.1,6.9l0,0c0.2,0,0.3-0.1,0.5-0.1l5.3-9.2c0.6-1,1.9-1.3,2.9-0.7c0.7,0.4,1,1.1,1,1.8
	c0,0.4-0.1,0.8-0.3,1.1l-3.8,7.1c0.5,0.1,1.1,0.3,1.5,0.4c0.7,0.2,1.4,0.5,2,0.9c1.8,1,3.1,2.4,4.6,4.2c0.5,0.9,0.4,1.4,0.2,2
	c-0.1,0.4-0.3,0.8-0.6,1.1c-0.4,0.4-1,0.6-1.5,0.6c-0.5,0-0.9-0.2-1.3-0.5c0,0,0,0,0,0c-0.1,0-0.1-0.1-0.2-0.1l-1.1-1.1
	c-0.5-0.6-1-1.2-1.6-1.6c-1.5-1.1-3.3-1.5-5.6-1.3c-4,0.3-7.9,3.8-8.4,7.8c-0.7,5.7,4,10.5,9.7,10c3.9-0.4,7.1-3.3,7.9-7.2
	c0.1-0.4,0.1-0.8,0.1-1.2c0-0.3,0-0.6,0-0.9v-0.7c0-0.4,0.1-0.8,0.3-1.1c0.4-0.7,1.1-1.2,2-1.2c0.3,0,0.5,0,0.8,0.1
	c0.3,0.1,0.6,0.3,0.9,0.5c0.3,0.3,0.5,0.7,0.6,1.1C30.2,24.2,30.3,24.6,30.3,25z"/>
<path class="st1" d="M15.4,17.2c0.6-0.1,1.7-0.2,2.8,0c0.2,0,0.3,0.2,0.2,0.4L17.5,19c0,0.1,0,0.1,0,0.2l2.1,10.7
	c0,0.1,0,0.2-0.1,0.2L17,32.5c-0.1,0.1-0.3,0.1-0.4,0L14,30.2C14,30.1,13.9,30,14,29.9L16,19.1c0-0.1,0-0.1,0-0.2l-0.8-1.3
	C15.1,17.5,15.2,17.3,15.4,17.2z"/>
<g>
	<path class="st1" d="M45.6,25.3c-0.1-0.6-0.3-1.3-0.9-2.9c-0.6-1.6-0.8-2-1.3-2.4c-0.4-0.4-0.8-0.5-1.4-0.5h-1.9v3
		c0,1.3,0,1.9,0.1,2.8h-4c0.1-0.8,0.1-1.4,0.1-2.8v-9.9c0-1.1,0-1.8-0.1-2.7c0.8,0,1.5,0.1,2.7,0.1h4.8c3,0,4.7,1.5,4.7,4.2
		c0,1.3-0.4,2.3-1.1,3c-0.5,0.4-0.8,0.6-1.8,0.9c0.9,0.3,1.4,0.7,2,2c0.3,0.6,0.5,1.2,1.4,3.2c0.2,0.5,0.4,1,0.9,2H45.6z M43,16.4
		c1.1,0,1.8-0.7,1.8-1.7c0-1-0.6-1.6-1.7-1.6h-2.9v3.3H43z"/>
	<path class="st0" d="M55.1,14.1C55,14.8,55,15.6,55,16.9v5.7c0,1,0.1,2,0.1,2.8h-3.9c0.1-0.9,0.1-1.6,0.1-2.8v-5.7
		c0-1.2,0-2-0.1-2.8H55.1z M55.1,10v2.8h-3.7V10H55.1z"/>
	<path class="st0" d="M58.5,13.7c0-0.9,0-1.7-0.1-2.5h3.8c-0.1,0.8-0.1,1.6-0.1,2.5v0.4h0.7c0.8,0,1.2,0,1.8-0.1v3.1
		c-0.6-0.1-1-0.1-1.7-0.1H62v4.7c0,0.5,0.1,0.8,0.3,0.9c0.2,0.1,0.5,0.2,0.8,0.2c0.5,0,0.8-0.1,1.3-0.3l0.3,2.8
		c-0.8,0.3-1.5,0.4-2.5,0.4c-1.3,0-2.1-0.2-2.7-0.6c-0.7-0.5-1-1.2-1-2.4v-5.6h-0.7c-0.6,0-1.1,0-1.6,0.1V14c0.5,0.1,1,0.1,1.6,0.1
		h0.7V13.7z"/>
	<path class="st0" d="M68.8,20.7c0.2,1.5,1.1,2.3,2.5,2.3c0.7,0,1.4-0.2,1.9-0.7c0.3-0.3,0.4-0.5,0.6-0.9l3.2,0.9
		c-0.4,1-0.7,1.4-1.2,1.9c-1.1,1-2.5,1.6-4.4,1.6c-1.8,0-3.2-0.5-4.3-1.6c-1.1-1.1-1.7-2.7-1.7-4.5c0-3.7,2.3-6.1,5.9-6.1
		c2.9,0,4.9,1.6,5.5,4.3c0.1,0.6,0.2,1.4,0.3,2.4c0,0.1,0,0.2,0,0.4H68.8z M73.6,18.2c-0.3-1.2-1.1-1.8-2.3-1.8
		c-1.3,0-2.1,0.6-2.4,1.8H73.6z"/>
	<path class="st1" d="M82.1,20.3c0.1,0.7,0.2,1,0.5,1.4c0.4,0.6,1.2,0.9,2.2,0.9c1.4,0,2.3-0.6,2.3-1.7c0-0.6-0.3-1.1-0.8-1.3
		c-0.4-0.2-0.8-0.3-2.8-0.8c-1.7-0.4-2.3-0.6-3-1.1c-1.2-0.8-1.8-2-1.8-3.5c0-2.8,2.3-4.6,5.9-4.6c2.3,0,4.1,0.7,5.1,2.1
		c0.5,0.6,0.7,1.2,0.9,2.2l-3.9,0.4c-0.2-1.2-0.9-1.7-2.3-1.7c-1.1,0-2,0.6-2,1.5c0,0.5,0.3,0.9,0.9,1.2c0.4,0.2,0.4,0.2,2.5,0.6
		c1.4,0.3,2.3,0.6,3,1.1c1.3,0.8,2,2.1,2,3.8c0,1.4-0.4,2.6-1.3,3.4c-1.1,1-2.7,1.6-4.9,1.6c-1.6,0-3.1-0.3-4.1-0.9
		c-0.9-0.5-1.6-1.3-2-2.4c-0.2-0.4-0.3-0.9-0.4-1.7L82.1,20.3z"/>
	<path class="st0" d="M94.2,13.7c0-0.9,0-1.7-0.1-2.5h3.8c-0.1,0.8-0.1,1.6-0.1,2.5v0.4h0.7c0.8,0,1.2,0,1.8-0.1v3.1
		c-0.6-0.1-1-0.1-1.7-0.1h-0.8v4.7c0,0.5,0.1,0.8,0.3,0.9c0.2,0.1,0.5,0.2,0.8,0.2c0.5,0,0.8-0.1,1.3-0.3l0.3,2.8
		c-0.8,0.3-1.5,0.4-2.5,0.4c-1.3,0-2.1-0.2-2.7-0.6c-0.7-0.5-1-1.2-1-2.4v-5.6h-0.7c-0.6,0-1.1,0-1.6,0.1V14c0.5,0.1,1,0.1,1.6,0.1
		h0.7V13.7z"/>
	<path class="st0" d="M105.4,14.1c-0.1,0.8-0.1,1.5-0.1,2.8v5.7c0,1,0.1,2,0.1,2.8h-3.9c0.1-0.9,0.1-1.6,0.1-2.8v-5.7
		c0-1.2,0-2-0.1-2.8H105.4z M105.3,10v2.8h-3.7V10H105.3z"/>
	<path class="st0" d="M107.4,25.3c0.1-0.9,0.1-1.6,0.1-2.8v-5.7c0-1.3,0-2-0.1-2.8h3.7v0.8c0,0.1,0,0.4,0,0.5
		c1.2-1.1,2.3-1.6,3.8-1.6c1.3,0,2.3,0.4,3,1c0.7,0.7,1.1,1.6,1.1,3.1v4.6c0,1.1,0.1,2,0.1,2.8h-3.8c0.1-0.9,0.1-1.7,0.1-2.8v-3.8
		c0-0.7-0.1-1.1-0.3-1.4c-0.2-0.3-0.7-0.5-1.2-0.5c-1,0-2,0.6-2.7,1.9v3.7c0,1.1,0,1.8,0.1,2.8H107.4z"/>
	<path class="st0" d="M122.3,13.7c0-0.9,0-1.7-0.1-2.5h3.8c-0.1,0.8-0.1,1.6-0.1,2.5v0.4h0.7c0.8,0,1.2,0,1.8-0.1v3.1
		c-0.6-0.1-1-0.1-1.7-0.1h-0.8v4.7c0,0.5,0.1,0.8,0.3,0.9c0.2,0.1,0.5,0.2,0.8,0.2c0.5,0,0.8-0.1,1.3-0.3l0.3,2.8
		c-0.8,0.3-1.5,0.4-2.5,0.4c-1.3,0-2.1-0.2-2.7-0.6c-0.7-0.5-1-1.2-1-2.4v-5.6h-0.7c-0.6,0-1.1,0-1.6,0.1V14c0.5,0.1,1,0.1,1.6,0.1
		h0.7V13.7z"/>
</g>
<g>
	<path class="st0" d="M36.5,32.1C36.5,32.1,36.5,32.1,36.5,32.1C36.4,32,36.4,32,36.5,32.1l-0.1-2.9c0,0,0-0.1,0-0.1c0,0,0,0,0.1,0
		h1.7c0,0,0.1,0,0.1,0c0,0,0,0,0,0.1v0.2c0,0,0,0.1,0,0.1s0,0-0.1,0h-1.4v1h1.3c0,0,0.1,0,0.1,0c0,0,0,0,0,0.1v0.2c0,0,0,0.1,0,0.1
		c0,0,0,0-0.1,0h-1.3V32c0,0,0,0.1,0,0.1s0,0-0.1,0H36.5z"/>
	<path class="st0" d="M39.7,32.1C39.6,32.1,39.6,32.1,39.7,32.1C39.6,32,39.6,32,39.7,32.1l-0.1-2.6h-0.8c0,0-0.1,0-0.1,0
		c0,0,0,0,0-0.1v-0.2c0,0,0-0.1,0-0.1c0,0,0,0,0.1,0h2c0,0,0.1,0,0.1,0c0,0,0,0,0,0.1v0.2c0,0,0,0.1,0,0.1c0,0,0,0-0.1,0H40V32
		c0,0,0,0.1,0,0.1s0,0-0.1,0H39.7z"/>
	<path class="st0" d="M41.5,32.1C41.4,32.1,41.4,32.1,41.5,32.1C41.4,32,41.4,32,41.5,32.1l-0.1-2.9c0,0,0-0.1,0-0.1c0,0,0,0,0.1,0
		h1.7c0,0,0.1,0,0.1,0c0,0,0,0,0,0.1v0.2c0,0,0,0.1,0,0.1c0,0,0,0-0.1,0h-1.4v0.9h1.3c0,0,0.1,0,0.1,0c0,0,0,0,0,0.1v0.2
		c0,0,0,0.1,0,0.1c0,0,0,0-0.1,0h-1.3v1h1.5c0,0,0.1,0,0.1,0c0,0,0,0,0,0.1V32c0,0,0,0.1,0,0.1c0,0,0,0-0.1,0H41.5z"/>
	<path class="st0" d="M45,33C45,33,45,32.9,45,33C44.9,32.9,44.9,32.9,45,33l-0.1-4.6c0,0,0-0.1,0-0.1c0,0,0,0,0.1,0h0.2
		c0,0,0.1,0,0.1,0c0,0,0,0,0,0.1v4.5c0,0,0,0.1,0,0.1c0,0,0,0-0.1,0H45z"/>
	<path class="st0" d="M48.1,32.1c-0.2,0-0.5,0-0.6-0.1c-0.2-0.1-0.3-0.2-0.4-0.4c-0.1-0.2-0.1-0.4-0.2-0.6c0-0.1,0-0.3,0-0.4
		c0-0.1,0-0.3,0-0.4c0-0.2,0.1-0.4,0.2-0.6c0.1-0.2,0.2-0.3,0.4-0.4c0.2-0.1,0.4-0.1,0.6-0.1c0.2,0,0.4,0,0.5,0.1
		c0.1,0.1,0.3,0.1,0.4,0.2c0.1,0.1,0.2,0.2,0.2,0.3c0,0.1,0.1,0.2,0.1,0.2c0,0,0,0,0,0.1c0,0,0,0-0.1,0h-0.2c0,0,0,0-0.1,0
		c0,0,0,0,0-0.1c0-0.1-0.1-0.1-0.1-0.2c-0.1-0.1-0.1-0.1-0.2-0.2s-0.2-0.1-0.4-0.1c-0.2,0-0.4,0.1-0.5,0.2c-0.1,0.1-0.2,0.3-0.2,0.6
		c0,0.3,0,0.5,0,0.8c0,0.3,0.1,0.5,0.2,0.6c0.1,0.1,0.3,0.2,0.5,0.2c0.1,0,0.3,0,0.4-0.1c0.1-0.1,0.2-0.1,0.3-0.3
		c0.1-0.1,0.1-0.3,0.1-0.4v-0.2h-0.6c0,0-0.1,0-0.1,0c0,0,0,0,0-0.1v-0.1c0,0,0-0.1,0-0.1c0,0,0,0,0.1,0h1c0,0,0.1,0,0.1,0
		c0,0,0,0,0,0.1V31c0,0.2,0,0.4-0.1,0.6c-0.1,0.2-0.2,0.3-0.4,0.4C48.5,32.1,48.3,32.1,48.1,32.1z"/>
	<path class="st0" d="M50,32.1C49.9,32.1,49.9,32.1,50,32.1C49.9,32,49.9,32,50,32.1l-0.1-2.9c0,0,0-0.1,0-0.1c0,0,0,0,0.1,0h0.2
		c0,0,0.1,0,0.1,0c0,0,0,0,0,0.1V32c0,0,0,0.1,0,0.1c0,0,0,0-0.1,0H50z"/>
	<path class="st0" d="M52.1,32.1c-0.2,0-0.5,0-0.6-0.1c-0.2-0.1-0.3-0.2-0.4-0.4c-0.1-0.2-0.1-0.4-0.2-0.6c0-0.1,0-0.3,0-0.4
		c0-0.1,0-0.3,0-0.4c0-0.2,0.1-0.4,0.2-0.6c0.1-0.2,0.2-0.3,0.4-0.4c0.2-0.1,0.4-0.1,0.6-0.1c0.2,0,0.4,0,0.5,0.1
		c0.1,0.1,0.3,0.1,0.4,0.2c0.1,0.1,0.2,0.2,0.2,0.3c0,0.1,0.1,0.2,0.1,0.2c0,0,0,0,0,0.1c0,0,0,0-0.1,0h-0.2c0,0,0,0-0.1,0
		c0,0,0,0,0-0.1c0-0.1-0.1-0.1-0.1-0.2c-0.1-0.1-0.1-0.1-0.2-0.2s-0.2-0.1-0.4-0.1c-0.2,0-0.4,0.1-0.5,0.2c-0.1,0.1-0.2,0.3-0.2,0.6
		c0,0.3,0,0.5,0,0.8c0,0.3,0.1,0.5,0.2,0.6c0.1,0.1,0.3,0.2,0.5,0.2c0.1,0,0.3,0,0.4-0.1c0.1-0.1,0.2-0.1,0.3-0.3
		c0.1-0.1,0.1-0.3,0.1-0.4v-0.2h-0.6c0,0-0.1,0-0.1,0c0,0,0,0,0-0.1v-0.1c0,0,0-0.1,0-0.1c0,0,0,0,0.1,0h1c0,0,0.1,0,0.1,0
		c0,0,0,0,0,0.1V31c0,0.2,0,0.4-0.1,0.6c-0.1,0.2-0.2,0.3-0.4,0.4C52.6,32.1,52.4,32.1,52.1,32.1z"/>
	<path class="st0" d="M55,33C55,33,54.9,32.9,55,33C54.9,32.9,54.9,32.9,55,33l-0.1-4.6c0,0,0-0.1,0-0.1c0,0,0,0,0.1,0h0.2
		c0,0,0.1,0,0.1,0c0,0,0,0,0,0.1v4.5c0,0,0,0.1,0,0.1c0,0,0,0-0.1,0H55z"/>
	<path class="st0" d="M58,32.1c-0.3,0-0.5,0-0.6-0.1c-0.2-0.1-0.3-0.2-0.4-0.4c-0.1-0.2-0.1-0.4-0.1-0.6c0-0.1,0-0.2,0-0.4
		s0-0.3,0-0.4c0-0.2,0.1-0.4,0.1-0.6c0.1-0.2,0.2-0.3,0.4-0.4c0.2-0.1,0.4-0.1,0.6-0.1c0.2,0,0.4,0,0.5,0.1c0.1,0.1,0.3,0.1,0.4,0.2
		c0.1,0.1,0.2,0.2,0.2,0.3c0.1,0.1,0.1,0.2,0.1,0.3c0,0,0,0,0,0.1c0,0,0,0-0.1,0h-0.2c0,0,0,0-0.1,0c0,0,0,0,0-0.1
		c0-0.2-0.1-0.4-0.3-0.5c-0.1-0.1-0.3-0.1-0.5-0.1c-0.2,0-0.4,0.1-0.5,0.2c-0.1,0.1-0.2,0.3-0.2,0.6c0,0.2,0,0.5,0,0.7
		c0,0.3,0.1,0.5,0.2,0.6c0.1,0.1,0.3,0.2,0.5,0.2c0.2,0,0.4,0,0.5-0.1c0.1-0.1,0.2-0.2,0.3-0.5c0,0,0-0.1,0-0.1c0,0,0,0,0.1,0h0.2
		c0,0,0,0,0.1,0c0,0,0,0,0,0.1c0,0.1,0,0.2-0.1,0.3c-0.1,0.1-0.1,0.2-0.2,0.3c-0.1,0.1-0.2,0.2-0.4,0.2C58.4,32.1,58.2,32.1,58,32.1
		z"/>
	<path class="st0" d="M60.9,32.1c-0.2,0-0.4,0-0.6-0.1c-0.2-0.1-0.3-0.2-0.4-0.4c-0.1-0.2-0.1-0.4-0.2-0.7c0-0.1,0-0.2,0-0.4
		c0-0.1,0-0.2,0-0.4c0-0.3,0.1-0.5,0.2-0.6c0.1-0.2,0.2-0.3,0.4-0.4c0.2-0.1,0.4-0.1,0.6-0.1c0.2,0,0.4,0,0.6,0.1
		c0.2,0.1,0.3,0.2,0.4,0.4C62,29.8,62,30,62,30.2c0,0.1,0,0.2,0,0.4c0,0.1,0,0.2,0,0.4c0,0.3-0.1,0.5-0.2,0.7
		c-0.1,0.2-0.2,0.3-0.4,0.4C61.3,32.1,61.1,32.1,60.9,32.1z M60.9,31.8c0.2,0,0.4-0.1,0.5-0.2c0.1-0.1,0.2-0.3,0.2-0.6
		c0-0.1,0-0.2,0-0.3s0-0.2,0-0.3c0-0.2,0-0.4-0.1-0.5c-0.1-0.1-0.2-0.2-0.3-0.3c-0.1-0.1-0.2-0.1-0.4-0.1c-0.1,0-0.3,0-0.4,0.1
		c-0.1,0.1-0.2,0.1-0.3,0.3c-0.1,0.1-0.1,0.3-0.1,0.5c0,0.1,0,0.2,0,0.3s0,0.2,0,0.3c0,0.3,0.1,0.5,0.2,0.6
		C60.5,31.7,60.6,31.8,60.9,31.8z"/>
	<path class="st0" d="M62.8,32.1C62.7,32.1,62.7,32.1,62.8,32.1C62.7,32,62.7,32,62.8,32.1l-0.1-2.9c0,0,0-0.1,0-0.1c0,0,0,0,0.1,0
		H63c0,0,0.1,0,0.1,0c0,0,0,0,0,0l1.4,2.2v-2.1c0,0,0-0.1,0-0.1c0,0,0,0,0.1,0h0.2c0,0,0.1,0,0.1,0c0,0,0,0,0,0.1V32
		c0,0,0,0.1,0,0.1c0,0,0,0-0.1,0h-0.2c0,0-0.1,0-0.1,0c0,0,0,0,0,0l-1.4-2.1V32c0,0,0,0.1,0,0.1s0,0-0.1,0H62.8z"/>
	<path class="st0" d="M66.3,32.1C66.3,32.1,66.3,32.1,66.3,32.1C66.3,32,66.3,32,66.3,32.1l-0.1-2.6h-0.8c0,0-0.1,0-0.1,0
		c0,0,0,0,0-0.1v-0.2c0,0,0-0.1,0-0.1c0,0,0,0,0.1,0h2c0,0,0.1,0,0.1,0c0,0,0,0,0,0.1v0.2c0,0,0,0.1,0,0.1c0,0,0,0-0.1,0h-0.8V32
		c0,0,0,0.1,0,0.1c0,0,0,0-0.1,0H66.3z"/>
	<path class="st0" d="M68.2,32.1C68.1,32.1,68.1,32.1,68.2,32.1C68.1,32,68.1,32,68.2,32.1l-0.1-2.9c0,0,0-0.1,0-0.1c0,0,0,0,0.1,0
		h1c0.3,0,0.6,0.1,0.8,0.2c0.2,0.1,0.3,0.4,0.3,0.7c0,0.2-0.1,0.4-0.2,0.5c-0.1,0.1-0.3,0.2-0.4,0.3l0.7,1.1c0,0,0,0,0,0
		c0,0,0,0,0,0.1c0,0,0,0-0.1,0H70c0,0-0.1,0-0.1,0c0,0,0-0.1-0.1-0.1l-0.6-1.1h-0.7V32c0,0,0,0.1,0,0.1c0,0,0,0-0.1,0H68.2z
		 M68.5,30.5h0.7c0.2,0,0.4,0,0.5-0.1c0.1-0.1,0.2-0.2,0.2-0.4c0-0.2-0.1-0.3-0.2-0.4c-0.1-0.1-0.3-0.1-0.5-0.1h-0.7V30.5z"/>
	<path class="st0" d="M70.6,32.1C70.6,32.1,70.6,32.1,70.6,32.1C70.6,32,70.5,32,70.6,32.1c-0.1-0.1-0.1-0.1-0.1-0.1l1-2.7
		c0,0,0-0.1,0-0.1c0,0,0,0,0.1,0H72c0,0,0.1,0,0.1,0c0,0,0,0,0,0.1l1,2.7c0,0,0,0,0,0c0,0,0,0,0,0.1s0,0-0.1,0h-0.2c0,0-0.1,0-0.1,0
		c0,0,0,0,0,0l-0.2-0.6h-1.4L71,32c0,0,0,0,0,0s0,0-0.1,0H70.6z M71.3,31h1.1l-0.6-1.5L71.3,31z"/>
	<path class="st0" d="M74.7,32.1c-0.3,0-0.5,0-0.6-0.1c-0.2-0.1-0.3-0.2-0.4-0.4c-0.1-0.2-0.1-0.4-0.1-0.6c0-0.1,0-0.2,0-0.4
		s0-0.3,0-0.4c0-0.2,0.1-0.4,0.1-0.6c0.1-0.2,0.2-0.3,0.4-0.4c0.2-0.1,0.4-0.1,0.6-0.1c0.2,0,0.4,0,0.5,0.1c0.1,0.1,0.3,0.1,0.4,0.2
		c0.1,0.1,0.2,0.2,0.2,0.3c0.1,0.1,0.1,0.2,0.1,0.3c0,0,0,0,0,0.1c0,0,0,0-0.1,0h-0.2c0,0,0,0-0.1,0c0,0,0,0,0-0.1
		c0-0.2-0.1-0.4-0.3-0.5c-0.1-0.1-0.3-0.1-0.5-0.1c-0.2,0-0.4,0.1-0.5,0.2c-0.1,0.1-0.2,0.3-0.2,0.6c0,0.2,0,0.5,0,0.7
		c0,0.3,0.1,0.5,0.2,0.6s0.3,0.2,0.5,0.2c0.2,0,0.4,0,0.5-0.1c0.1-0.1,0.2-0.2,0.3-0.5c0,0,0-0.1,0-0.1c0,0,0,0,0.1,0h0.2
		c0,0,0,0,0.1,0c0,0,0,0,0,0.1c0,0.1,0,0.2-0.1,0.3c-0.1,0.1-0.1,0.2-0.2,0.3c-0.1,0.1-0.2,0.2-0.4,0.2C75,32.1,74.9,32.1,74.7,32.1
		z"/>
	<path class="st0" d="M77.2,32.1C77.1,32.1,77.1,32.1,77.2,32.1C77.1,32,77.1,32,77.2,32.1l-0.1-2.6h-0.8c0,0-0.1,0-0.1,0
		c0,0,0,0,0-0.1v-0.2c0,0,0-0.1,0-0.1c0,0,0,0,0.1,0h2c0,0,0.1,0,0.1,0c0,0,0,0,0,0.1v0.2c0,0,0,0.1,0,0.1c0,0,0,0-0.1,0h-0.8V32
		c0,0,0,0.1,0,0.1c0,0,0,0-0.1,0H77.2z"/>
	<path class="st0" d="M80,32.1c-0.2,0-0.4,0-0.6-0.1c-0.2-0.1-0.3-0.2-0.4-0.4c-0.1-0.2-0.1-0.4-0.1-0.7v-1.7c0,0,0-0.1,0-0.1
		c0,0,0,0,0.1,0h0.2c0,0,0.1,0,0.1,0c0,0,0,0,0,0.1v1.7c0,0.3,0.1,0.5,0.2,0.6s0.3,0.2,0.5,0.2c0.2,0,0.4-0.1,0.5-0.2
		c0.1-0.1,0.2-0.3,0.2-0.6v-1.7c0,0,0-0.1,0-0.1c0,0,0,0,0.1,0H81c0,0,0.1,0,0.1,0c0,0,0,0,0,0.1v1.7c0,0.3,0,0.5-0.1,0.7
		c-0.1,0.2-0.2,0.3-0.4,0.4C80.4,32.1,80.2,32.1,80,32.1z"/>
	<path class="st0" d="M81.6,32.1C81.6,32.1,81.6,32.1,81.6,32.1C81.5,32,81.5,32,81.6,32.1c-0.1-0.1-0.1-0.1-0.1-0.1l1.1-2.7
		c0,0,0-0.1,0-0.1c0,0,0,0,0.1,0H83c0,0,0.1,0,0.1,0c0,0,0,0,0,0.1l1,2.7c0,0,0,0,0,0c0,0,0,0,0,0.1s0,0-0.1,0h-0.2c0,0-0.1,0-0.1,0
		c0,0,0,0,0,0l-0.2-0.6h-1.4L81.9,32c0,0,0,0,0,0c0,0,0,0-0.1,0H81.6z M82.3,31h1.1l-0.6-1.5L82.3,31z"/>
	<path class="st0" d="M84.7,32.1C84.7,32.1,84.7,32.1,84.7,32.1C84.6,32,84.6,32,84.7,32.1l-0.1-2.9c0,0,0-0.1,0-0.1c0,0,0,0,0.1,0
		H85c0,0,0.1,0,0.1,0c0,0,0,0,0,0.1v2.5h1.4c0,0,0.1,0,0.1,0c0,0,0,0,0,0.1V32c0,0,0,0.1,0,0.1s0,0-0.1,0H84.7z"/>
	<path class="st0" d="M88,33C88,33,87.9,32.9,88,33C87.9,32.9,87.9,32.9,88,33l-0.1-4.6c0,0,0-0.1,0-0.1c0,0,0,0,0.1,0h0.2
		c0,0,0.1,0,0.1,0c0,0,0,0,0,0.1v4.5c0,0,0,0.1,0,0.1c0,0,0,0-0.1,0H88z"/>
	<path class="st0" d="M90.9,32.1c-0.2,0-0.5,0-0.6-0.1c-0.2-0.1-0.3-0.2-0.4-0.3c-0.1-0.1-0.1-0.2-0.1-0.4c0,0,0,0,0-0.1
		c0,0,0,0,0.1,0h0.2c0,0,0.1,0,0.1,0c0,0,0,0,0,0.1c0,0.1,0,0.1,0.1,0.2c0.1,0.1,0.1,0.1,0.2,0.2c0.1,0,0.2,0.1,0.4,0.1
		c0.2,0,0.4,0,0.5-0.1c0.1-0.1,0.2-0.2,0.2-0.3c0-0.1,0-0.2-0.1-0.2c-0.1-0.1-0.2-0.1-0.3-0.2c-0.1,0-0.3-0.1-0.5-0.2
		c-0.2-0.1-0.4-0.1-0.5-0.2c-0.1-0.1-0.2-0.2-0.3-0.3c-0.1-0.1-0.1-0.2-0.1-0.4c0-0.2,0-0.3,0.1-0.4c0.1-0.1,0.2-0.2,0.4-0.3
		c0.2-0.1,0.3-0.1,0.6-0.1c0.2,0,0.3,0,0.5,0.1c0.1,0,0.2,0.1,0.3,0.2c0.1,0.1,0.2,0.2,0.2,0.2c0,0.1,0.1,0.2,0.1,0.3c0,0,0,0,0,0.1
		c0,0,0,0-0.1,0h-0.2c0,0,0,0-0.1,0c0,0,0,0,0-0.1c0-0.1-0.1-0.2-0.2-0.3s-0.3-0.1-0.4-0.1c-0.2,0-0.3,0-0.4,0.1s-0.2,0.2-0.2,0.3
		c0,0.1,0,0.2,0.1,0.2c0.1,0.1,0.1,0.1,0.3,0.2c0.1,0,0.3,0.1,0.5,0.2c0.2,0.1,0.4,0.1,0.6,0.2c0.1,0.1,0.3,0.2,0.3,0.3
		C92,31,92,31.1,92,31.3c0,0.2,0,0.3-0.1,0.5c-0.1,0.1-0.2,0.2-0.4,0.3C91.3,32.1,91.1,32.1,90.9,32.1z"/>
	<path class="st0" d="M93.3,32.1C93.3,32.1,93.3,32.1,93.3,32.1C93.2,32,93.2,32,93.3,32.1l-0.1-2.6h-0.8c0,0-0.1,0-0.1,0
		c0,0,0,0,0-0.1v-0.2c0,0,0-0.1,0-0.1c0,0,0,0,0.1,0h2c0,0,0.1,0,0.1,0c0,0,0,0,0,0.1v0.2c0,0,0,0.1,0,0.1c0,0,0,0-0.1,0h-0.8V32
		c0,0,0,0.1,0,0.1s0,0-0.1,0H93.3z"/>
	<path class="st0" d="M94.5,32.1C94.5,32.1,94.5,32.1,94.5,32.1C94.4,32,94.4,32,94.5,32.1c-0.1-0.1-0.1-0.1-0.1-0.1l1.1-2.7
		c0,0,0-0.1,0-0.1c0,0,0,0,0.1,0h0.3c0,0,0.1,0,0.1,0c0,0,0,0,0,0.1l1,2.7c0,0,0,0,0,0c0,0,0,0,0,0.1s0,0-0.1,0h-0.2
		c0,0-0.1,0-0.1,0c0,0,0,0,0,0l-0.2-0.6h-1.4L94.8,32c0,0,0,0,0,0s0,0-0.1,0H94.5z M95.2,31h1.1l-0.6-1.5L95.2,31z"/>
	<path class="st0" d="M97.6,32.1C97.6,32.1,97.6,32.1,97.6,32.1C97.6,32,97.5,32,97.6,32.1l-0.1-2.9c0,0,0-0.1,0-0.1c0,0,0,0,0.1,0
		h1.7c0,0,0.1,0,0.1,0c0,0,0,0,0,0.1v0.2c0,0,0,0.1,0,0.1s0,0-0.1,0H98v1h1.3c0,0,0.1,0,0.1,0c0,0,0,0,0,0.1v0.2c0,0,0,0.1,0,0.1
		c0,0,0,0-0.1,0H98V32c0,0,0,0.1,0,0.1c0,0,0,0-0.1,0H97.6z"/>
	<path class="st0" d="M100.1,32.1C100.1,32.1,100.1,32.1,100.1,32.1C100,32,100,32,100.1,32.1l-0.1-2.9c0,0,0-0.1,0-0.1
		c0,0,0,0,0.1,0h1.7c0,0,0.1,0,0.1,0c0,0,0,0,0,0.1v0.2c0,0,0,0.1,0,0.1s0,0-0.1,0h-1.4v1h1.3c0,0,0.1,0,0.1,0c0,0,0,0,0,0.1v0.2
		c0,0,0,0.1,0,0.1c0,0,0,0-0.1,0h-1.3V32c0,0,0,0.1,0,0.1c0,0,0,0-0.1,0H100.1z"/>
	<path class="st0" d="M102.6,32.1C102.6,32.1,102.5,32.1,102.6,32.1C102.5,32,102.5,32,102.6,32.1l-0.1-2.9c0,0,0-0.1,0-0.1
		c0,0,0,0,0.1,0h0.2c0,0,0.1,0,0.1,0c0,0,0,0,0,0.1V32c0,0,0,0.1,0,0.1c0,0,0,0-0.1,0H102.6z"/>
	<path class="st0" d="M103.7,32.1C103.7,32.1,103.7,32.1,103.7,32.1C103.7,32,103.6,32,103.7,32.1l-0.1-2.9c0,0,0-0.1,0-0.1
		c0,0,0,0,0.1,0h0.2c0,0,0.1,0,0.1,0c0,0,0,0,0,0l1.4,2.2v-2.1c0,0,0-0.1,0-0.1c0,0,0,0,0.1,0h0.2c0,0,0.1,0,0.1,0c0,0,0,0,0,0.1V32
		c0,0,0,0.1,0,0.1c0,0,0,0-0.1,0h-0.2c0,0-0.1,0-0.1,0s0,0,0,0l-1.4-2.1V32c0,0,0,0.1,0,0.1c0,0,0,0-0.1,0H103.7z"/>
	<path class="st0" d="M107.7,32.1c-0.2,0-0.5,0-0.6-0.1c-0.2-0.1-0.3-0.2-0.4-0.4c-0.1-0.2-0.1-0.4-0.2-0.6c0-0.1,0-0.3,0-0.4
		c0-0.1,0-0.3,0-0.4c0-0.2,0.1-0.4,0.2-0.6c0.1-0.2,0.2-0.3,0.4-0.4c0.2-0.1,0.4-0.1,0.6-0.1c0.2,0,0.4,0,0.5,0.1
		c0.1,0.1,0.3,0.1,0.4,0.2c0.1,0.1,0.2,0.2,0.2,0.3c0,0.1,0.1,0.2,0.1,0.2c0,0,0,0,0,0.1c0,0,0,0-0.1,0h-0.2c0,0,0,0-0.1,0
		c0,0,0,0,0-0.1c0-0.1-0.1-0.1-0.1-0.2c-0.1-0.1-0.1-0.1-0.2-0.2c-0.1,0-0.2-0.1-0.4-0.1c-0.2,0-0.4,0.1-0.5,0.2s-0.2,0.3-0.2,0.6
		c0,0.3,0,0.5,0,0.8c0,0.3,0.1,0.5,0.2,0.6c0.1,0.1,0.3,0.2,0.5,0.2c0.1,0,0.3,0,0.4-0.1c0.1-0.1,0.2-0.1,0.3-0.3
		c0.1-0.1,0.1-0.3,0.1-0.4v-0.2h-0.6c0,0-0.1,0-0.1,0c0,0,0,0,0-0.1v-0.1c0,0,0-0.1,0-0.1c0,0,0,0,0.1,0h1c0,0,0.1,0,0.1,0
		c0,0,0,0,0,0.1V31c0,0.2,0,0.4-0.1,0.6c-0.1,0.2-0.2,0.3-0.4,0.4C108.1,32.1,107.9,32.1,107.7,32.1z"/>
	<path class="st0" d="M111.5,32.1c-0.2,0-0.5,0-0.6-0.1c-0.2-0.1-0.3-0.2-0.4-0.3c-0.1-0.1-0.1-0.2-0.1-0.4c0,0,0,0,0-0.1
		c0,0,0,0,0.1,0h0.2c0,0,0.1,0,0.1,0c0,0,0,0,0,0.1c0,0.1,0,0.1,0.1,0.2c0.1,0.1,0.1,0.1,0.2,0.2c0.1,0,0.2,0.1,0.4,0.1
		c0.2,0,0.4,0,0.5-0.1c0.1-0.1,0.2-0.2,0.2-0.3c0-0.1,0-0.2-0.1-0.2c-0.1-0.1-0.2-0.1-0.3-0.2c-0.1,0-0.3-0.1-0.5-0.2
		c-0.2-0.1-0.4-0.1-0.5-0.2c-0.1-0.1-0.2-0.2-0.3-0.3c-0.1-0.1-0.1-0.2-0.1-0.4c0-0.2,0-0.3,0.1-0.4c0.1-0.1,0.2-0.2,0.4-0.3
		c0.2-0.1,0.3-0.1,0.6-0.1c0.2,0,0.3,0,0.5,0.1c0.1,0,0.2,0.1,0.3,0.2c0.1,0.1,0.2,0.2,0.2,0.2c0,0.1,0.1,0.2,0.1,0.3c0,0,0,0,0,0.1
		c0,0,0,0-0.1,0h-0.2c0,0,0,0-0.1,0c0,0,0,0,0-0.1c0-0.1-0.1-0.2-0.2-0.3s-0.3-0.1-0.4-0.1c-0.2,0-0.3,0-0.4,0.1s-0.2,0.2-0.2,0.3
		c0,0.1,0,0.2,0.1,0.2c0.1,0.1,0.1,0.1,0.3,0.2c0.1,0,0.3,0.1,0.5,0.2c0.2,0.1,0.4,0.1,0.6,0.2c0.1,0.1,0.3,0.2,0.3,0.3
		c0.1,0.1,0.1,0.2,0.1,0.4c0,0.2,0,0.3-0.1,0.5c-0.1,0.1-0.2,0.2-0.4,0.3C111.9,32.1,111.7,32.1,111.5,32.1z"/>
	<path class="st0" d="M114.2,32.1c-0.2,0-0.4,0-0.6-0.1s-0.3-0.2-0.4-0.4c-0.1-0.2-0.1-0.4-0.2-0.7c0-0.1,0-0.2,0-0.4
		c0-0.1,0-0.2,0-0.4c0-0.3,0.1-0.5,0.2-0.6c0.1-0.2,0.2-0.3,0.4-0.4c0.2-0.1,0.4-0.1,0.6-0.1c0.2,0,0.4,0,0.6,0.1
		c0.2,0.1,0.3,0.2,0.4,0.4c0.1,0.2,0.2,0.4,0.2,0.6c0,0.1,0,0.2,0,0.4c0,0.1,0,0.2,0,0.4c0,0.3-0.1,0.5-0.2,0.7
		c-0.1,0.2-0.2,0.3-0.4,0.4C114.7,32.1,114.4,32.1,114.2,32.1z M114.2,31.8c0.2,0,0.4-0.1,0.5-0.2c0.1-0.1,0.2-0.3,0.2-0.6
		c0-0.1,0-0.2,0-0.3s0-0.2,0-0.3c0-0.2,0-0.4-0.1-0.5c-0.1-0.1-0.2-0.2-0.3-0.3c-0.1-0.1-0.2-0.1-0.4-0.1c-0.1,0-0.3,0-0.4,0.1
		c-0.1,0.1-0.2,0.1-0.3,0.3c-0.1,0.1-0.1,0.3-0.1,0.5c0,0.1,0,0.2,0,0.3s0,0.2,0,0.3c0,0.3,0.1,0.5,0.2,0.6S114,31.8,114.2,31.8z"/>
	<path class="st0" d="M116.1,32.1C116.1,32.1,116.1,32.1,116.1,32.1C116,32,116,32,116.1,32.1l-0.1-2.9c0,0,0-0.1,0-0.1
		c0,0,0,0,0.1,0h0.2c0,0,0.1,0,0.1,0c0,0,0,0,0,0.1v2.5h1.4c0,0,0.1,0,0.1,0c0,0,0,0,0,0.1V32c0,0,0,0.1,0,0.1c0,0,0,0-0.1,0H116.1z
		"/>
	<path class="st0" d="M119.4,32.1c-0.2,0-0.4,0-0.6-0.1c-0.2-0.1-0.3-0.2-0.4-0.4c-0.1-0.2-0.1-0.4-0.1-0.7v-1.7c0,0,0-0.1,0-0.1
		c0,0,0,0,0.1,0h0.2c0,0,0.1,0,0.1,0c0,0,0,0,0,0.1v1.7c0,0.3,0.1,0.5,0.2,0.6s0.3,0.2,0.5,0.2c0.2,0,0.4-0.1,0.5-0.2
		c0.1-0.1,0.2-0.3,0.2-0.6v-1.7c0,0,0-0.1,0-0.1c0,0,0,0,0.1,0h0.2c0,0,0.1,0,0.1,0c0,0,0,0,0,0.1v1.7c0,0.3,0,0.5-0.1,0.7
		c-0.1,0.2-0.2,0.3-0.4,0.4C119.9,32.1,119.7,32.1,119.4,32.1z"/>
	<path class="st0" d="M122,32.1C122,32.1,122,32.1,122,32.1C121.9,32,121.9,32,122,32.1l-0.1-2.6h-0.8c0,0-0.1,0-0.1,0
		c0,0,0,0,0-0.1v-0.2c0,0,0-0.1,0-0.1c0,0,0,0,0.1,0h2c0,0,0.1,0,0.1,0c0,0,0,0,0,0.1v0.2c0,0,0,0.1,0,0.1c0,0,0,0-0.1,0h-0.8V32
		c0,0,0,0.1,0,0.1c0,0,0,0-0.1,0H122z"/>
	<path class="st0" d="M123.8,32.1C123.8,32.1,123.8,32.1,123.8,32.1C123.8,32,123.7,32,123.8,32.1l-0.1-2.9c0,0,0-0.1,0-0.1
		c0,0,0,0,0.1,0h0.2c0,0,0.1,0,0.1,0c0,0,0,0,0,0.1V32c0,0,0,0.1,0,0.1c0,0,0,0-0.1,0H123.8z"/>
	<path class="st0" d="M126,32.1c-0.2,0-0.4,0-0.6-0.1c-0.2-0.1-0.3-0.2-0.4-0.4c-0.1-0.2-0.1-0.4-0.2-0.7c0-0.1,0-0.2,0-0.4
		c0-0.1,0-0.2,0-0.4c0-0.3,0.1-0.5,0.2-0.6c0.1-0.2,0.2-0.3,0.4-0.4c0.2-0.1,0.4-0.1,0.6-0.1c0.2,0,0.4,0,0.6,0.1
		c0.2,0.1,0.3,0.2,0.4,0.4c0.1,0.2,0.2,0.4,0.2,0.6c0,0.1,0,0.2,0,0.4c0,0.1,0,0.2,0,0.4c0,0.3-0.1,0.5-0.2,0.7
		c-0.1,0.2-0.2,0.3-0.4,0.4C126.4,32.1,126.2,32.1,126,32.1z M126,31.8c0.2,0,0.4-0.1,0.5-0.2s0.2-0.3,0.2-0.6c0-0.1,0-0.2,0-0.3
		s0-0.2,0-0.3c0-0.2,0-0.4-0.1-0.5c-0.1-0.1-0.2-0.2-0.3-0.3c-0.1-0.1-0.2-0.1-0.4-0.1c-0.1,0-0.3,0-0.4,0.1
		c-0.1,0.1-0.2,0.1-0.3,0.3c-0.1,0.1-0.1,0.3-0.1,0.5c0,0.1,0,0.2,0,0.3s0,0.2,0,0.3c0,0.3,0.1,0.5,0.2,0.6
		C125.6,31.7,125.8,31.8,126,31.8z"/>
	<path class="st0" d="M127.9,32.1C127.8,32.1,127.8,32.1,127.9,32.1C127.8,32,127.8,32,127.9,32.1l-0.1-2.9c0,0,0-0.1,0-0.1
		c0,0,0,0,0.1,0h0.2c0,0,0.1,0,0.1,0c0,0,0,0,0,0l1.4,2.2v-2.1c0,0,0-0.1,0-0.1c0,0,0,0,0.1,0h0.2c0,0,0.1,0,0.1,0c0,0,0,0,0,0.1V32
		c0,0,0,0.1,0,0.1s0,0-0.1,0h-0.2c0,0-0.1,0-0.1,0s0,0,0,0l-1.4-2.1V32c0,0,0,0.1,0,0.1c0,0,0,0-0.1,0H127.9z"/>
</g>
</svg>
