<?xml version="1.0" encoding="utf-8"?>
<!-- Generator: Adobe Illustrator 23.1.1, SVG Export Plug-In . SVG Version: 6.00 Build 0)  -->
<svg version="1.1" id="Layer_1" xmlns="http://www.w3.org/2000/svg" xmlns:xlink="http://www.w3.org/1999/xlink" x="0px" y="0px"
	 viewBox="0 0 133 40" style="enable-background:new 0 0 133 40;" xml:space="preserve">
<style type="text/css">
	.st0{fill:#545454;}
	.st1{fill:#00BAFF;}
	.st2{fill:#FFFFFF;}
</style>
<path class="st0" d="M29,24.6c0,2.7-0.8,5.2-2.3,7.2c-2.3,3.3-6.1,5.4-10.4,5.3C9.7,37,4.3,31.7,4,25.2c-0.1-2,0.3-3.9,1-5.6
	L5.3,7.9c0-1.1,0.9-1.9,2-1.9c1.1,0,2,0.9,2,1.9v0.1L9,14.6c0.1-0.1,0.3-0.2,0.4-0.3l2.9-9.5c0.3-1,1.4-1.6,2.4-1.3
	c0.9,0.2,1.4,1,1.4,1.9c0,0.2,0,0.4-0.1,0.6l-1.9,6.4l0,0c0.1,0,0.3-0.1,0.4-0.1l4.9-8.5c0.6-0.9,1.7-1.2,2.7-0.7c0.6,0.4,1,1,1,1.7
	c0,0.4-0.1,0.7-0.3,1l-3.5,6.6c0.5,0.1,1,0.2,1.4,0.4c0.7,0.2,1.3,0.5,1.9,0.8c1.6,0.9,2.9,2.2,4.2,3.9c0.5,0.8,0.4,1.3,0.2,1.8
	c-0.1,0.4-0.2,0.7-0.5,1c-0.4,0.4-0.9,0.6-1.4,0.6c-0.4,0-0.9-0.1-1.2-0.4c0,0,0,0,0,0c-0.1,0-0.1-0.1-0.1-0.1l-1-1
	c-0.4-0.6-0.9-1.1-1.5-1.5c-1.4-1-3-1.4-5.2-1.2c-3.7,0.3-7.3,3.5-7.8,7.2c-0.6,5.3,3.7,9.8,9,9.3c3.6-0.3,6.6-3.1,7.3-6.7
	c0.1-0.4,0.1-0.7,0.1-1.1c0-0.3,0-0.6,0-0.8v-0.6c0-0.4,0.1-0.7,0.2-1c0.4-0.7,1.1-1.1,1.9-1.1c0.2,0,0.5,0,0.7,0.1
	c0.3,0.1,0.6,0.3,0.8,0.5c0.3,0.3,0.5,0.6,0.6,1C28.9,23.9,29,24.2,29,24.6z"/>
<path class="st1" d="M15.2,17.4c0.5-0.1,1.6-0.2,2.6,0c0.2,0,0.3,0.2,0.2,0.4l-0.8,1.3c0,0.1,0,0.1,0,0.2l1.9,9.9
	c0,0.1,0,0.2-0.1,0.2l-2.3,2.2c-0.1,0.1-0.2,0.1-0.3,0l-2.4-2.2c-0.1-0.1-0.1-0.1-0.1-0.2l1.9-10c0-0.1,0-0.1,0-0.2L15,17.8
	C15,17.7,15,17.5,15.2,17.4z"/>
<g>
	<path class="st2" d="M43.1,24.9c-0.1-0.5-0.3-1.2-0.8-2.7c-0.5-1.5-0.8-1.9-1.2-2.3c-0.4-0.3-0.8-0.5-1.3-0.5h-1.7v2.8
		c0,1.2,0,1.8,0.1,2.6h-3.7c0.1-0.8,0.1-1.3,0.1-2.6v-9.2c0-1.1,0-1.7-0.1-2.5c0.8,0,1.4,0.1,2.5,0.1h4.4c2.8,0,4.4,1.4,4.4,3.9
		c0,1.2-0.3,2.2-1,2.8c-0.4,0.4-0.8,0.6-1.6,0.9c0.9,0.3,1.3,0.7,1.8,1.9c0.3,0.5,0.5,1.1,1.3,3c0.2,0.5,0.4,0.9,0.8,1.8H43.1z
		 M40.7,16.6c1,0,1.6-0.6,1.6-1.6c0-1-0.5-1.5-1.6-1.5h-2.7v3H40.7z"/>
	<path class="st2" d="M52,14.5c-0.1,0.7-0.1,1.4-0.1,2.6v5.3c0,0.9,0.1,1.8,0.1,2.6h-3.6c0.1-0.8,0.1-1.5,0.1-2.6v-5.3
		c0-1.1,0-1.8-0.1-2.6H52z M51.9,10.7v2.6h-3.5v-2.6H51.9z"/>
	<path class="st2" d="M55.1,14.2c0-0.9,0-1.5-0.1-2.3h3.5c-0.1,0.7-0.1,1.5-0.1,2.3v0.4H59c0.8,0,1.1,0,1.7-0.1v2.8
		c-0.5-0.1-1-0.1-1.6-0.1h-0.7v4.4c0,0.5,0.1,0.7,0.3,0.9c0.2,0.1,0.5,0.2,0.8,0.2c0.4,0,0.8-0.1,1.2-0.3l0.3,2.6
		c-0.8,0.2-1.4,0.3-2.4,0.3c-1.2,0-2-0.2-2.5-0.6c-0.6-0.5-0.9-1.1-0.9-2.2v-5.2h-0.6c-0.5,0-1,0-1.5,0.1v-2.9
		c0.5,0.1,0.9,0.1,1.5,0.1h0.6V14.2z"/>
	<path class="st2" d="M64.7,20.7c0.2,1.4,1,2.1,2.3,2.1c0.7,0,1.3-0.2,1.7-0.6c0.3-0.2,0.4-0.4,0.5-0.9l3,0.8
		c-0.4,0.9-0.6,1.3-1.1,1.8c-1,1-2.3,1.5-4,1.5c-1.7,0-3-0.5-4-1.5c-1-1-1.6-2.5-1.6-4.2c0-3.4,2.2-5.6,5.4-5.6c2.7,0,4.5,1.5,5.1,4
		c0.1,0.5,0.2,1.3,0.3,2.2c0,0.1,0,0.2,0,0.3H64.7z M69.1,18.3c-0.2-1.1-1-1.7-2.2-1.7c-1.2,0-1.9,0.5-2.2,1.7H69.1z"/>
	<path class="st2" d="M77,20.3c0.1,0.6,0.2,0.9,0.4,1.3c0.4,0.5,1.1,0.8,2,0.8c1.3,0,2.1-0.6,2.1-1.5c0-0.5-0.3-1-0.7-1.2
		c-0.4-0.2-0.8-0.3-2.6-0.7c-1.6-0.3-2.1-0.5-2.7-1c-1.1-0.8-1.7-1.9-1.7-3.3c0-2.6,2.1-4.3,5.5-4.3c2.2,0,3.8,0.7,4.7,1.9
		c0.4,0.6,0.6,1.1,0.9,2l-3.6,0.4c-0.2-1.1-0.8-1.6-2.1-1.6c-1,0-1.8,0.6-1.8,1.3c0,0.5,0.3,0.8,0.8,1.1c0.3,0.2,0.3,0.2,2.4,0.6
		c1.3,0.3,2.1,0.6,2.8,1c1.2,0.8,1.8,1.9,1.8,3.5c0,1.3-0.4,2.4-1.2,3.1c-1,1-2.5,1.5-4.5,1.5c-1.5,0-2.9-0.3-3.8-0.8
		c-0.9-0.5-1.5-1.2-1.8-2.2c-0.2-0.4-0.3-0.8-0.4-1.6L77,20.3z"/>
	<path class="st2" d="M88.1,14.2c0-0.9,0-1.5-0.1-2.3h3.5c-0.1,0.7-0.1,1.5-0.1,2.3v0.4h0.6c0.8,0,1.1,0,1.7-0.1v2.8
		c-0.5-0.1-1-0.1-1.6-0.1h-0.7v4.4c0,0.5,0.1,0.7,0.3,0.9c0.2,0.1,0.5,0.2,0.8,0.2c0.4,0,0.8-0.1,1.2-0.3l0.3,2.6
		c-0.8,0.2-1.4,0.3-2.4,0.3c-1.2,0-2-0.2-2.5-0.6c-0.6-0.5-0.9-1.1-0.9-2.2v-5.2h-0.6c-0.5,0-1,0-1.5,0.1v-2.9
		c0.5,0.1,0.9,0.1,1.5,0.1h0.6V14.2z"/>
	<path class="st2" d="M98.5,14.5c-0.1,0.7-0.1,1.4-0.1,2.6v5.3c0,0.9,0.1,1.8,0.1,2.6H95c0.1-0.8,0.1-1.5,0.1-2.6v-5.3
		c0-1.1,0-1.8-0.1-2.6H98.5z M98.5,10.7v2.6H95v-2.6H98.5z"/>
	<path class="st2" d="M100.3,24.9c0.1-0.8,0.1-1.5,0.1-2.6v-5.3c0-1.2,0-1.9-0.1-2.6h3.4v0.7c0,0.1,0,0.4,0,0.5
		c1.1-1,2.1-1.5,3.5-1.5c1.2,0,2.1,0.3,2.7,1c0.7,0.7,1,1.5,1,2.9v4.3c0,1,0.1,1.8,0.1,2.6h-3.6c0.1-0.8,0.1-1.5,0.1-2.6v-3.5
		c0-0.7-0.1-1-0.3-1.3c-0.2-0.3-0.6-0.5-1.1-0.5c-1,0-1.8,0.6-2.5,1.8v3.4c0,1,0,1.7,0.1,2.6H100.3z"/>
	<path class="st2" d="M114.2,14.2c0-0.9,0-1.5-0.1-2.3h3.5c-0.1,0.7-0.1,1.5-0.1,2.3v0.4h0.6c0.8,0,1.1,0,1.7-0.1v2.8
		c-0.5-0.1-1-0.1-1.6-0.1h-0.7v4.4c0,0.5,0.1,0.7,0.3,0.9c0.2,0.1,0.5,0.2,0.8,0.2c0.4,0,0.8-0.1,1.2-0.3l0.3,2.6
		c-0.8,0.2-1.4,0.3-2.4,0.3c-1.2,0-2-0.2-2.5-0.6c-0.6-0.5-0.9-1.1-0.9-2.2v-5.2h-0.6c-0.5,0-1,0-1.5,0.1v-2.9
		c0.5,0.1,0.9,0.1,1.5,0.1h0.6V14.2z"/>
</g>
<g>
	<path class="st2" d="M34.8,31.2C34.7,31.2,34.7,31.2,34.8,31.2C34.7,31.1,34.7,31.1,34.8,31.2l-0.1-2.7c0,0,0-0.1,0-0.1
		c0,0,0,0,0.1,0h1.6c0,0,0.1,0,0.1,0c0,0,0,0,0,0.1v0.2c0,0,0,0.1,0,0.1s0,0-0.1,0h-1.3v0.9h1.2c0,0,0.1,0,0.1,0c0,0,0,0,0,0.1v0.2
		c0,0,0,0,0,0.1c0,0,0,0-0.1,0h-1.2v1.1c0,0,0,0,0,0.1s0,0-0.1,0H34.8z"/>
	<path class="st2" d="M37.7,31.2C37.6,31.2,37.6,31.2,37.7,31.2C37.6,31.1,37.6,31.1,37.7,31.2l-0.1-2.4h-0.8c0,0,0,0-0.1,0
		c0,0,0,0,0-0.1v-0.2c0,0,0-0.1,0-0.1c0,0,0,0,0.1,0h1.9c0,0,0.1,0,0.1,0c0,0,0,0,0,0.1v0.2c0,0,0,0,0,0.1c0,0,0,0-0.1,0H38v2.3
		c0,0,0,0,0,0.1s0,0-0.1,0H37.7z"/>
	<path class="st2" d="M39.3,31.2C39.3,31.2,39.3,31.2,39.3,31.2C39.2,31.1,39.2,31.1,39.3,31.2l-0.1-2.7c0,0,0-0.1,0-0.1
		c0,0,0,0,0.1,0H41c0,0,0.1,0,0.1,0c0,0,0,0,0,0.1v0.1c0,0,0,0.1,0,0.1s0,0-0.1,0h-1.3v0.9h1.2c0,0,0.1,0,0.1,0c0,0,0,0,0,0.1v0.1
		c0,0,0,0,0,0.1c0,0,0,0-0.1,0h-1.2v0.9H41c0,0,0.1,0,0.1,0c0,0,0,0,0,0.1v0.2c0,0,0,0,0,0.1c0,0,0,0-0.1,0H39.3z"/>
	<path class="st2" d="M42.6,32C42.6,32,42.6,32,42.6,32C42.5,31.9,42.5,31.9,42.6,32l-0.1-4.2c0,0,0,0,0-0.1c0,0,0,0,0.1,0h0.2
		c0,0,0,0,0.1,0c0,0,0,0,0,0.1v4.1c0,0,0,0,0,0.1c0,0,0,0-0.1,0H42.6z"/>
	<path class="st2" d="M45.4,31.2c-0.2,0-0.4,0-0.6-0.1c-0.2-0.1-0.3-0.2-0.4-0.4c-0.1-0.2-0.1-0.3-0.1-0.6c0-0.1,0-0.2,0-0.4
		c0-0.1,0-0.3,0-0.4c0-0.2,0.1-0.4,0.1-0.5s0.2-0.3,0.4-0.4c0.2-0.1,0.4-0.1,0.6-0.1c0.2,0,0.3,0,0.5,0.1c0.1,0.1,0.2,0.1,0.3,0.2
		c0.1,0.1,0.2,0.2,0.2,0.2c0,0.1,0.1,0.2,0.1,0.2c0,0,0,0,0,0.1c0,0,0,0-0.1,0h-0.2c0,0,0,0-0.1,0c0,0,0,0,0-0.1
		c0-0.1-0.1-0.1-0.1-0.2c-0.1-0.1-0.1-0.1-0.2-0.2s-0.2-0.1-0.3-0.1c-0.2,0-0.4,0.1-0.5,0.2c-0.1,0.1-0.2,0.3-0.2,0.6
		c0,0.2,0,0.5,0,0.7c0,0.3,0.1,0.4,0.2,0.6c0.1,0.1,0.3,0.2,0.5,0.2c0.1,0,0.3,0,0.4-0.1c0.1-0.1,0.2-0.1,0.3-0.2
		c0.1-0.1,0.1-0.2,0.1-0.4V30h-0.6c0,0,0,0-0.1,0c0,0,0,0,0-0.1v-0.1c0,0,0-0.1,0-0.1c0,0,0,0,0.1,0h0.9c0,0,0.1,0,0.1,0
		c0,0,0,0,0,0.1v0.4c0,0.2,0,0.4-0.1,0.6c-0.1,0.2-0.2,0.3-0.4,0.4C45.9,31.2,45.7,31.2,45.4,31.2z"/>
	<path class="st2" d="M47.2,31.2C47.2,31.2,47.2,31.2,47.2,31.2C47.1,31.1,47.1,31.1,47.2,31.2l-0.1-2.7c0,0,0,0,0-0.1
		c0,0,0,0,0.1,0h0.2c0,0,0,0,0.1,0c0,0,0,0,0,0.1v2.6c0,0,0,0,0,0.1c0,0,0,0-0.1,0H47.2z"/>
	<path class="st2" d="M49.2,31.2c-0.2,0-0.4,0-0.6-0.1c-0.2-0.1-0.3-0.2-0.4-0.4c-0.1-0.2-0.1-0.3-0.1-0.6c0-0.1,0-0.2,0-0.4
		c0-0.1,0-0.3,0-0.4c0-0.2,0.1-0.4,0.1-0.5s0.2-0.3,0.4-0.4c0.2-0.1,0.4-0.1,0.6-0.1c0.2,0,0.3,0,0.5,0.1c0.1,0.1,0.2,0.1,0.3,0.2
		c0.1,0.1,0.2,0.2,0.2,0.2c0,0.1,0.1,0.2,0.1,0.2c0,0,0,0,0,0.1c0,0,0,0-0.1,0H50c0,0,0,0-0.1,0c0,0,0,0,0-0.1
		c0-0.1-0.1-0.1-0.1-0.2c-0.1-0.1-0.1-0.1-0.2-0.2s-0.2-0.1-0.3-0.1c-0.2,0-0.4,0.1-0.5,0.2c-0.1,0.1-0.2,0.3-0.2,0.6
		c0,0.2,0,0.5,0,0.7c0,0.3,0.1,0.4,0.2,0.6c0.1,0.1,0.3,0.2,0.5,0.2c0.1,0,0.3,0,0.4-0.1c0.1-0.1,0.2-0.1,0.3-0.2
		c0.1-0.1,0.1-0.2,0.1-0.4V30h-0.6c0,0,0,0-0.1,0c0,0,0,0,0-0.1v-0.1c0,0,0-0.1,0-0.1c0,0,0,0,0.1,0h0.9c0,0,0.1,0,0.1,0
		c0,0,0,0,0,0.1v0.4c0,0.2,0,0.4-0.1,0.6c-0.1,0.2-0.2,0.3-0.4,0.4C49.6,31.2,49.4,31.2,49.2,31.2z"/>
	<path class="st2" d="M51.9,32C51.8,32,51.8,32,51.9,32C51.8,31.9,51.8,31.9,51.9,32l-0.1-4.2c0,0,0,0,0-0.1c0,0,0,0,0.1,0H52
		c0,0,0,0,0.1,0c0,0,0,0,0,0.1v4.1c0,0,0,0,0,0.1c0,0,0,0-0.1,0H51.9z"/>
	<path class="st2" d="M54.7,31.2c-0.2,0-0.4,0-0.6-0.1c-0.2-0.1-0.3-0.2-0.4-0.4c-0.1-0.2-0.1-0.3-0.1-0.6c0-0.1,0-0.2,0-0.3
		s0-0.2,0-0.4c0-0.2,0.1-0.4,0.1-0.6c0.1-0.2,0.2-0.3,0.4-0.4c0.2-0.1,0.4-0.1,0.6-0.1c0.2,0,0.3,0,0.5,0.1c0.1,0,0.2,0.1,0.3,0.2
		c0.1,0.1,0.2,0.2,0.2,0.3c0,0.1,0.1,0.2,0.1,0.3c0,0,0,0,0,0.1c0,0,0,0-0.1,0h-0.2c0,0,0,0-0.1,0s0,0,0-0.1c0-0.2-0.1-0.3-0.2-0.4
		s-0.3-0.1-0.5-0.1c-0.2,0-0.4,0.1-0.5,0.2C54.1,29,54,29.2,54,29.5c0,0.2,0,0.4,0,0.7c0,0.3,0.1,0.5,0.2,0.6
		c0.1,0.1,0.3,0.2,0.5,0.2c0.2,0,0.3,0,0.5-0.1c0.1-0.1,0.2-0.2,0.2-0.4c0,0,0-0.1,0-0.1c0,0,0,0,0.1,0h0.2c0,0,0,0,0.1,0
		c0,0,0,0,0,0.1c0,0.1,0,0.2-0.1,0.3s-0.1,0.2-0.2,0.3c-0.1,0.1-0.2,0.2-0.3,0.2C55,31.2,54.9,31.2,54.7,31.2z"/>
	<path class="st2" d="M57.3,31.2c-0.2,0-0.4,0-0.6-0.1c-0.2-0.1-0.3-0.2-0.4-0.4c-0.1-0.2-0.1-0.4-0.1-0.6c0-0.1,0-0.2,0-0.3
		c0-0.1,0-0.2,0-0.3c0-0.2,0.1-0.4,0.2-0.6s0.2-0.3,0.4-0.4c0.2-0.1,0.3-0.1,0.6-0.1c0.2,0,0.4,0,0.6,0.1c0.2,0.1,0.3,0.2,0.4,0.4
		c0.1,0.2,0.1,0.4,0.1,0.6c0,0.1,0,0.2,0,0.3c0,0.1,0,0.2,0,0.3c0,0.2-0.1,0.4-0.1,0.6c-0.1,0.2-0.2,0.3-0.4,0.4
		C57.7,31.2,57.5,31.2,57.3,31.2z M57.3,30.9c0.2,0,0.4-0.1,0.5-0.2s0.2-0.3,0.2-0.6c0-0.1,0-0.2,0-0.3s0-0.2,0-0.3
		c0-0.2,0-0.3-0.1-0.4s-0.1-0.2-0.2-0.2c-0.1-0.1-0.2-0.1-0.4-0.1c-0.1,0-0.2,0-0.3,0.1c-0.1,0.1-0.2,0.1-0.2,0.2
		c-0.1,0.1-0.1,0.3-0.1,0.4c0,0.1,0,0.2,0,0.3s0,0.2,0,0.3c0,0.3,0.1,0.5,0.2,0.6C56.9,30.8,57.1,30.9,57.3,30.9z"/>
	<path class="st2" d="M59.1,31.2C59,31.2,59,31.2,59.1,31.2C59,31.1,59,31.1,59.1,31.2L59,28.5c0,0,0-0.1,0-0.1c0,0,0,0,0.1,0h0.2
		c0,0,0.1,0,0.1,0c0,0,0,0,0,0l1.3,2v-2c0,0,0-0.1,0-0.1c0,0,0,0,0.1,0h0.2c0,0,0.1,0,0.1,0c0,0,0,0,0,0.1v2.6c0,0,0,0,0,0.1
		s0,0-0.1,0h-0.2c0,0-0.1,0-0.1,0c0,0,0,0,0,0l-1.3-2v1.9c0,0,0,0,0,0.1s0,0-0.1,0H59.1z"/>
	<path class="st2" d="M62.4,31.2C62.3,31.2,62.3,31.2,62.4,31.2C62.3,31.1,62.3,31.1,62.4,31.2l-0.1-2.4h-0.8c0,0,0,0-0.1,0
		c0,0,0,0,0-0.1v-0.2c0,0,0-0.1,0-0.1c0,0,0,0,0.1,0h1.9c0,0,0.1,0,0.1,0c0,0,0,0,0,0.1v0.2c0,0,0,0,0,0.1c0,0,0,0-0.1,0h-0.7v2.3
		c0,0,0,0,0,0.1s0,0-0.1,0H62.4z"/>
	<path class="st2" d="M64,31.2C64,31.2,64,31.2,64,31.2C64,31.1,64,31.1,64,31.2L64,28.5c0,0,0-0.1,0-0.1c0,0,0,0,0.1,0h1
		c0.3,0,0.5,0.1,0.7,0.2S66,29,66,29.3c0,0.2-0.1,0.4-0.2,0.5c-0.1,0.1-0.2,0.2-0.4,0.3l0.6,1c0,0,0,0,0,0c0,0,0,0,0,0.1s0,0-0.1,0
		h-0.2c0,0-0.1,0-0.1,0s0,0-0.1-0.1l-0.6-1h-0.7v1c0,0,0,0,0,0.1c0,0,0,0-0.1,0H64z M64.3,29.7H65c0.2,0,0.3,0,0.4-0.1
		s0.1-0.2,0.1-0.4c0-0.2,0-0.3-0.1-0.4c-0.1-0.1-0.2-0.1-0.4-0.1h-0.6V29.7z"/>
	<path class="st2" d="M66.3,31.2C66.3,31.2,66.3,31.2,66.3,31.2C66.3,31.1,66.3,31.1,66.3,31.2c-0.1-0.1-0.1-0.1-0.1-0.1l1-2.5
		c0,0,0,0,0-0.1c0,0,0,0,0.1,0h0.3c0,0,0.1,0,0.1,0c0,0,0,0,0,0.1l1,2.5c0,0,0,0,0,0c0,0,0,0,0,0.1s0,0-0.1,0h-0.2c0,0-0.1,0-0.1,0
		c0,0,0,0,0,0l-0.2-0.6h-1.3l-0.2,0.6c0,0,0,0,0,0s0,0-0.1,0H66.3z M67,30.2H68l-0.5-1.4L67,30.2z"/>
	<path class="st2" d="M70.1,31.2c-0.2,0-0.4,0-0.6-0.1s-0.3-0.2-0.4-0.4C69,30.5,69,30.4,69,30.2c0-0.1,0-0.2,0-0.3s0-0.2,0-0.4
		c0-0.2,0.1-0.4,0.1-0.6c0.1-0.2,0.2-0.3,0.4-0.4s0.4-0.1,0.6-0.1c0.2,0,0.3,0,0.5,0.1c0.1,0,0.2,0.1,0.3,0.2
		c0.1,0.1,0.2,0.2,0.2,0.3c0,0.1,0.1,0.2,0.1,0.3c0,0,0,0,0,0.1c0,0,0,0-0.1,0h-0.2c0,0,0,0-0.1,0s0,0,0-0.1c0-0.2-0.1-0.3-0.2-0.4
		c-0.1-0.1-0.3-0.1-0.5-0.1c-0.2,0-0.4,0.1-0.5,0.2s-0.2,0.3-0.2,0.6c0,0.2,0,0.4,0,0.7c0,0.3,0.1,0.5,0.2,0.6s0.3,0.2,0.5,0.2
		c0.2,0,0.3,0,0.5-0.1c0.1-0.1,0.2-0.2,0.2-0.4c0,0,0-0.1,0-0.1c0,0,0,0,0.1,0h0.2c0,0,0,0,0.1,0c0,0,0,0,0,0.1c0,0.1,0,0.2-0.1,0.3
		s-0.1,0.2-0.2,0.3c-0.1,0.1-0.2,0.2-0.3,0.2S70.3,31.2,70.1,31.2z"/>
	<path class="st2" d="M72.4,31.2C72.4,31.2,72.4,31.2,72.4,31.2C72.3,31.1,72.3,31.1,72.4,31.2l-0.1-2.4h-0.8c0,0,0,0-0.1,0
		c0,0,0,0,0-0.1v-0.2c0,0,0-0.1,0-0.1c0,0,0,0,0.1,0h1.9c0,0,0.1,0,0.1,0c0,0,0,0,0,0.1v0.2c0,0,0,0,0,0.1c0,0,0,0-0.1,0h-0.7v2.3
		c0,0,0,0,0,0.1s0,0-0.1,0H72.4z"/>
	<path class="st2" d="M75,31.2c-0.2,0-0.4,0-0.6-0.1c-0.2-0.1-0.3-0.2-0.4-0.4C74,30.6,74,30.4,74,30.1v-1.6c0,0,0-0.1,0-0.1
		c0,0,0,0,0.1,0h0.2c0,0,0.1,0,0.1,0c0,0,0,0,0,0.1v1.6c0,0.3,0.1,0.4,0.2,0.6s0.3,0.2,0.5,0.2c0.2,0,0.4-0.1,0.5-0.2
		c0.1-0.1,0.2-0.3,0.2-0.6v-1.6c0,0,0-0.1,0-0.1c0,0,0,0,0.1,0H76c0,0,0,0,0.1,0c0,0,0,0,0,0.1v1.6c0,0.3,0,0.5-0.1,0.6
		c-0.1,0.2-0.2,0.3-0.4,0.4C75.4,31.2,75.2,31.2,75,31.2z"/>
	<path class="st2" d="M76.5,31.2C76.5,31.2,76.5,31.2,76.5,31.2C76.4,31.1,76.4,31.1,76.5,31.2c-0.1-0.1-0.1-0.1-0.1-0.1l1-2.5
		c0,0,0,0,0-0.1c0,0,0,0,0.1,0h0.3c0,0,0.1,0,0.1,0c0,0,0,0,0,0.1l1,2.5c0,0,0,0,0,0c0,0,0,0,0,0.1s0,0-0.1,0h-0.2c0,0-0.1,0-0.1,0
		c0,0,0,0,0,0l-0.2-0.6H77l-0.2,0.6c0,0,0,0,0,0s0,0-0.1,0H76.5z M77.1,30.2h1.1l-0.5-1.4L77.1,30.2z"/>
	<path class="st2" d="M79.4,31.2C79.4,31.2,79.3,31.2,79.4,31.2C79.3,31.1,79.3,31.1,79.4,31.2l-0.1-2.7c0,0,0,0,0-0.1
		c0,0,0,0,0.1,0h0.2c0,0,0,0,0.1,0c0,0,0,0,0,0.1v2.3H81c0,0,0.1,0,0.1,0c0,0,0,0,0,0.1v0.2c0,0,0,0,0,0.1s0,0-0.1,0H79.4z"/>
	<path class="st2" d="M82.4,32C82.4,32,82.4,32,82.4,32C82.3,31.9,82.3,31.9,82.4,32l-0.1-4.2c0,0,0,0,0-0.1c0,0,0,0,0.1,0h0.2
		c0,0,0,0,0.1,0c0,0,0,0,0,0.1v4.1c0,0,0,0,0,0.1c0,0,0,0-0.1,0H82.4z"/>
	<path class="st2" d="M85.1,31.2c-0.2,0-0.4,0-0.6-0.1c-0.2-0.1-0.3-0.2-0.4-0.3s-0.1-0.2-0.1-0.4c0,0,0,0,0-0.1c0,0,0,0,0.1,0h0.2
		c0,0,0.1,0,0.1,0s0,0,0,0.1c0,0.1,0,0.1,0.1,0.2c0.1,0.1,0.1,0.1,0.2,0.2c0.1,0,0.2,0.1,0.4,0.1c0.2,0,0.4,0,0.5-0.1
		c0.1-0.1,0.2-0.2,0.2-0.3c0-0.1,0-0.2-0.1-0.2c-0.1-0.1-0.1-0.1-0.3-0.2c-0.1,0-0.3-0.1-0.4-0.1c-0.2-0.1-0.3-0.1-0.5-0.2
		c-0.1-0.1-0.2-0.1-0.3-0.2s-0.1-0.2-0.1-0.4c0-0.1,0-0.3,0.1-0.4c0.1-0.1,0.2-0.2,0.3-0.3c0.1-0.1,0.3-0.1,0.5-0.1
		c0.2,0,0.3,0,0.4,0.1c0.1,0,0.2,0.1,0.3,0.2c0.1,0.1,0.1,0.1,0.2,0.2s0.1,0.2,0.1,0.2c0,0,0,0,0,0.1c0,0,0,0-0.1,0h-0.2
		c0,0,0,0-0.1,0c0,0,0,0,0-0.1c0-0.1-0.1-0.2-0.2-0.3s-0.2-0.1-0.4-0.1c-0.2,0-0.3,0-0.4,0.1s-0.2,0.2-0.2,0.3c0,0.1,0,0.2,0.1,0.2
		s0.1,0.1,0.2,0.2c0.1,0,0.2,0.1,0.4,0.1c0.2,0.1,0.4,0.1,0.5,0.2c0.1,0.1,0.2,0.1,0.3,0.2c0.1,0.1,0.1,0.2,0.1,0.4
		c0,0.2,0,0.3-0.1,0.4c-0.1,0.1-0.2,0.2-0.4,0.3S85.3,31.2,85.1,31.2z"/>
	<path class="st2" d="M87.3,31.2C87.3,31.2,87.3,31.2,87.3,31.2C87.3,31.1,87.2,31.1,87.3,31.2l-0.1-2.4h-0.8c0,0,0,0-0.1,0
		c0,0,0,0,0-0.1v-0.2c0,0,0-0.1,0-0.1c0,0,0,0,0.1,0h1.9c0,0,0.1,0,0.1,0c0,0,0,0,0,0.1v0.2c0,0,0,0,0,0.1c0,0,0,0-0.1,0h-0.7v2.3
		c0,0,0,0,0,0.1s0,0-0.1,0H87.3z"/>
	<path class="st2" d="M88.4,31.2C88.4,31.2,88.4,31.2,88.4,31.2C88.4,31.1,88.4,31.1,88.4,31.2c-0.1-0.1-0.1-0.1-0.1-0.1l1-2.5
		c0,0,0,0,0-0.1c0,0,0,0,0.1,0h0.3c0,0,0.1,0,0.1,0c0,0,0,0,0,0.1l1,2.5c0,0,0,0,0,0c0,0,0,0,0,0.1s0,0-0.1,0h-0.2c0,0-0.1,0-0.1,0
		c0,0,0,0,0,0l-0.2-0.6H89l-0.2,0.6c0,0,0,0,0,0s0,0-0.1,0H88.4z M89.1,30.2h1.1l-0.5-1.4L89.1,30.2z"/>
	<path class="st2" d="M91.3,31.2C91.3,31.2,91.3,31.2,91.3,31.2C91.3,31.1,91.3,31.1,91.3,31.2l-0.1-2.7c0,0,0-0.1,0-0.1
		c0,0,0,0,0.1,0h1.6c0,0,0.1,0,0.1,0c0,0,0,0,0,0.1v0.2c0,0,0,0.1,0,0.1s0,0-0.1,0h-1.3v0.9h1.2c0,0,0.1,0,0.1,0c0,0,0,0,0,0.1v0.2
		c0,0,0,0,0,0.1c0,0,0,0-0.1,0h-1.2v1.1c0,0,0,0,0,0.1c0,0,0,0-0.1,0H91.3z"/>
	<path class="st2" d="M93.6,31.2C93.6,31.2,93.6,31.2,93.6,31.2C93.6,31.1,93.5,31.1,93.6,31.2l-0.1-2.7c0,0,0-0.1,0-0.1
		c0,0,0,0,0.1,0h1.6c0,0,0.1,0,0.1,0c0,0,0,0,0,0.1v0.2c0,0,0,0.1,0,0.1s0,0-0.1,0h-1.3v0.9h1.2c0,0,0.1,0,0.1,0c0,0,0,0,0,0.1v0.2
		c0,0,0,0,0,0.1c0,0,0,0-0.1,0h-1.2v1.1c0,0,0,0,0,0.1c0,0,0,0-0.1,0H93.6z"/>
	<path class="st2" d="M95.9,31.2C95.9,31.2,95.9,31.2,95.9,31.2C95.8,31.1,95.8,31.1,95.9,31.2l-0.1-2.7c0,0,0,0,0-0.1
		c0,0,0,0,0.1,0h0.2c0,0,0,0,0.1,0c0,0,0,0,0,0.1v2.6c0,0,0,0,0,0.1c0,0,0,0-0.1,0H95.9z"/>
	<path class="st2" d="M97,31.2C97,31.2,96.9,31.2,97,31.2C96.9,31.1,96.9,31.1,97,31.2l-0.1-2.7c0,0,0-0.1,0-0.1c0,0,0,0,0.1,0h0.2
		c0,0,0.1,0,0.1,0c0,0,0,0,0,0l1.3,2v-2c0,0,0-0.1,0-0.1c0,0,0,0,0.1,0h0.2c0,0,0.1,0,0.1,0c0,0,0,0,0,0.1v2.6c0,0,0,0,0,0.1
		s0,0-0.1,0h-0.2c0,0,0,0-0.1,0s0,0,0,0l-1.3-2v1.9c0,0,0,0,0,0.1c0,0,0,0-0.1,0H97z"/>
	<path class="st2" d="M100.6,31.2c-0.2,0-0.4,0-0.6-0.1c-0.2-0.1-0.3-0.2-0.4-0.4c-0.1-0.2-0.1-0.3-0.1-0.6c0-0.1,0-0.2,0-0.4
		c0-0.1,0-0.3,0-0.4c0-0.2,0.1-0.4,0.1-0.5s0.2-0.3,0.4-0.4c0.2-0.1,0.4-0.1,0.6-0.1c0.2,0,0.3,0,0.5,0.1c0.1,0.1,0.2,0.1,0.3,0.2
		c0.1,0.1,0.2,0.2,0.2,0.2c0,0.1,0.1,0.2,0.1,0.2c0,0,0,0,0,0.1c0,0,0,0-0.1,0h-0.2c0,0,0,0-0.1,0c0,0,0,0,0-0.1
		c0-0.1-0.1-0.1-0.1-0.2c-0.1-0.1-0.1-0.1-0.2-0.2c-0.1,0-0.2-0.1-0.3-0.1c-0.2,0-0.4,0.1-0.5,0.2s-0.2,0.3-0.2,0.6
		c0,0.2,0,0.5,0,0.7c0,0.3,0.1,0.4,0.2,0.6c0.1,0.1,0.3,0.2,0.5,0.2c0.1,0,0.3,0,0.4-0.1c0.1-0.1,0.2-0.1,0.3-0.2
		c0.1-0.1,0.1-0.2,0.1-0.4V30h-0.6c0,0,0,0-0.1,0c0,0,0,0,0-0.1v-0.1c0,0,0-0.1,0-0.1c0,0,0,0,0.1,0h0.9c0,0,0.1,0,0.1,0
		c0,0,0,0,0,0.1v0.4c0,0.2,0,0.4-0.1,0.6c-0.1,0.2-0.2,0.3-0.4,0.4C101.1,31.2,100.9,31.2,100.6,31.2z"/>
	<path class="st2" d="M104.1,31.2c-0.2,0-0.4,0-0.6-0.1c-0.2-0.1-0.3-0.2-0.4-0.3s-0.1-0.2-0.1-0.4c0,0,0,0,0-0.1c0,0,0,0,0.1,0h0.2
		c0,0,0.1,0,0.1,0s0,0,0,0.1c0,0.1,0,0.1,0.1,0.2c0.1,0.1,0.1,0.1,0.2,0.2c0.1,0,0.2,0.1,0.4,0.1c0.2,0,0.4,0,0.5-0.1
		c0.1-0.1,0.2-0.2,0.2-0.3c0-0.1,0-0.2-0.1-0.2c-0.1-0.1-0.1-0.1-0.3-0.2c-0.1,0-0.3-0.1-0.4-0.1c-0.2-0.1-0.3-0.1-0.5-0.2
		c-0.1-0.1-0.2-0.1-0.3-0.2s-0.1-0.2-0.1-0.4c0-0.1,0-0.3,0.1-0.4c0.1-0.1,0.2-0.2,0.3-0.3c0.1-0.1,0.3-0.1,0.5-0.1
		c0.2,0,0.3,0,0.4,0.1c0.1,0,0.2,0.1,0.3,0.2c0.1,0.1,0.1,0.1,0.2,0.2s0.1,0.2,0.1,0.2c0,0,0,0,0,0.1c0,0,0,0-0.1,0h-0.2
		c0,0,0,0-0.1,0c0,0,0,0,0-0.1c0-0.1-0.1-0.2-0.2-0.3s-0.2-0.1-0.4-0.1c-0.2,0-0.3,0-0.4,0.1s-0.2,0.2-0.2,0.3c0,0.1,0,0.2,0.1,0.2
		s0.1,0.1,0.2,0.2c0.1,0,0.2,0.1,0.4,0.1c0.2,0.1,0.4,0.1,0.5,0.2c0.1,0.1,0.2,0.1,0.3,0.2c0.1,0.1,0.1,0.2,0.1,0.4
		c0,0.2,0,0.3-0.1,0.4c-0.1,0.1-0.2,0.2-0.4,0.3S104.4,31.2,104.1,31.2z"/>
	<path class="st2" d="M106.7,31.2c-0.2,0-0.4,0-0.6-0.1s-0.3-0.2-0.4-0.4c-0.1-0.2-0.1-0.4-0.1-0.6c0-0.1,0-0.2,0-0.3
		c0-0.1,0-0.2,0-0.3c0-0.2,0.1-0.4,0.2-0.6c0.1-0.2,0.2-0.3,0.4-0.4c0.2-0.1,0.3-0.1,0.6-0.1c0.2,0,0.4,0,0.6,0.1
		c0.2,0.1,0.3,0.2,0.4,0.4c0.1,0.2,0.1,0.4,0.1,0.6c0,0.1,0,0.2,0,0.3c0,0.1,0,0.2,0,0.3c0,0.2-0.1,0.4-0.1,0.6
		c-0.1,0.2-0.2,0.3-0.4,0.4C107.1,31.2,106.9,31.2,106.7,31.2z M106.7,30.9c0.2,0,0.4-0.1,0.5-0.2s0.2-0.3,0.2-0.6
		c0-0.1,0-0.2,0-0.3s0-0.2,0-0.3c0-0.2,0-0.3-0.1-0.4s-0.1-0.2-0.2-0.2c-0.1-0.1-0.2-0.1-0.4-0.1c-0.1,0-0.2,0-0.3,0.1
		c-0.1,0.1-0.2,0.1-0.2,0.2s-0.1,0.3-0.1,0.4c0,0.1,0,0.2,0,0.3s0,0.2,0,0.3c0,0.3,0.1,0.5,0.2,0.6S106.5,30.9,106.7,30.9z"/>
	<path class="st2" d="M108.4,31.2C108.4,31.2,108.4,31.2,108.4,31.2C108.4,31.1,108.4,31.1,108.4,31.2l-0.1-2.7c0,0,0,0,0-0.1
		c0,0,0,0,0.1,0h0.2c0,0,0,0,0.1,0c0,0,0,0,0,0.1v2.3h1.3c0,0,0.1,0,0.1,0c0,0,0,0,0,0.1v0.2c0,0,0,0,0,0.1s0,0-0.1,0H108.4z"/>
	<path class="st2" d="M111.5,31.2c-0.2,0-0.4,0-0.6-0.1c-0.2-0.1-0.3-0.2-0.4-0.4c-0.1-0.2-0.1-0.4-0.1-0.6v-1.6c0,0,0-0.1,0-0.1
		c0,0,0,0,0.1,0h0.2c0,0,0.1,0,0.1,0c0,0,0,0,0,0.1v1.6c0,0.3,0.1,0.4,0.2,0.6s0.3,0.2,0.5,0.2c0.2,0,0.4-0.1,0.5-0.2
		c0.1-0.1,0.2-0.3,0.2-0.6v-1.6c0,0,0-0.1,0-0.1c0,0,0,0,0.1,0h0.2c0,0,0,0,0.1,0c0,0,0,0,0,0.1v1.6c0,0.3,0,0.5-0.1,0.6
		c-0.1,0.2-0.2,0.3-0.4,0.4C111.9,31.2,111.8,31.2,111.5,31.2z"/>
	<path class="st2" d="M113.9,31.2C113.9,31.2,113.9,31.2,113.9,31.2C113.8,31.1,113.8,31.1,113.9,31.2l-0.1-2.4h-0.8c0,0,0,0-0.1,0
		c0,0,0,0,0-0.1v-0.2c0,0,0-0.1,0-0.1c0,0,0,0,0.1,0h1.9c0,0,0.1,0,0.1,0c0,0,0,0,0,0.1v0.2c0,0,0,0,0,0.1c0,0,0,0-0.1,0h-0.7v2.3
		c0,0,0,0,0,0.1s0,0-0.1,0H113.9z"/>
	<path class="st2" d="M115.6,31.2C115.6,31.2,115.5,31.2,115.6,31.2C115.5,31.1,115.5,31.1,115.6,31.2l-0.1-2.7c0,0,0,0,0-0.1
		c0,0,0,0,0.1,0h0.2c0,0,0,0,0.1,0c0,0,0,0,0,0.1v2.6c0,0,0,0,0,0.1c0,0,0,0-0.1,0H115.6z"/>
	<path class="st2" d="M117.6,31.2c-0.2,0-0.4,0-0.6-0.1s-0.3-0.2-0.4-0.4c-0.1-0.2-0.1-0.4-0.1-0.6c0-0.1,0-0.2,0-0.3
		c0-0.1,0-0.2,0-0.3c0-0.2,0.1-0.4,0.2-0.6c0.1-0.2,0.2-0.3,0.4-0.4c0.2-0.1,0.3-0.1,0.6-0.1c0.2,0,0.4,0,0.6,0.1
		c0.2,0.1,0.3,0.2,0.4,0.4c0.1,0.2,0.1,0.4,0.1,0.6c0,0.1,0,0.2,0,0.3c0,0.1,0,0.2,0,0.3c0,0.2-0.1,0.4-0.1,0.6
		c-0.1,0.2-0.2,0.3-0.4,0.4C118,31.2,117.8,31.2,117.6,31.2z M117.6,30.9c0.2,0,0.4-0.1,0.5-0.2s0.2-0.3,0.2-0.6c0-0.1,0-0.2,0-0.3
		s0-0.2,0-0.3c0-0.2,0-0.3-0.1-0.4s-0.1-0.2-0.2-0.2c-0.1-0.1-0.2-0.1-0.4-0.1c-0.1,0-0.2,0-0.3,0.1c-0.1,0.1-0.2,0.1-0.2,0.2
		s-0.1,0.3-0.1,0.4c0,0.1,0,0.2,0,0.3s0,0.2,0,0.3c0,0.3,0.1,0.5,0.2,0.6S117.4,30.9,117.6,30.9z"/>
	<path class="st2" d="M119.3,31.2C119.3,31.2,119.3,31.2,119.3,31.2C119.2,31.1,119.2,31.1,119.3,31.2l-0.1-2.7c0,0,0-0.1,0-0.1
		c0,0,0,0,0.1,0h0.2c0,0,0.1,0,0.1,0c0,0,0,0,0,0l1.3,2v-2c0,0,0-0.1,0-0.1c0,0,0,0,0.1,0h0.2c0,0,0.1,0,0.1,0c0,0,0,0,0,0.1v2.6
		c0,0,0,0,0,0.1s0,0-0.1,0H121c0,0,0,0-0.1,0s0,0,0,0l-1.3-2v1.9c0,0,0,0,0,0.1c0,0,0,0-0.1,0H119.3z"/>
</g>
</svg>
