<?xml version="1.0" encoding="utf-8"?>
<!-- Generator: Adobe Illustrator 23.1.1, SVG Export Plug-In . SVG Version: 6.00 Build 0)  -->
<svg version="1.1" id="Layer_1" xmlns="http://www.w3.org/2000/svg" xmlns:xlink="http://www.w3.org/1999/xlink" x="0px" y="0px"
	 viewBox="0 0 133 40" style="enable-background:new 0 0 133 40;" xml:space="preserve">
<style type="text/css">
	.st0{fill:#FFFFFF;}
</style>
<path class="st0" d="M30.8,24.8c0,2.8-0.9,5.4-2.4,7.5c-2.4,3.4-6.4,5.6-10.9,5.5c-6.9,0-12.6-5.6-12.9-12.4c-0.1-2.1,0.3-4,1.1-5.8
	L6,7.3c0-1.1,0.9-2,2-2s2,0.9,2,2v0.1l-0.2,7c0.1-0.1,0.3-0.2,0.4-0.3l3-9.9c0.3-1.1,1.4-1.7,2.5-1.4c0.9,0.3,1.5,1.1,1.5,2
	c0,0.2,0,0.4-0.1,0.6l-2,6.7l0,0c0.1,0,0.3-0.1,0.4-0.1l5.1-8.9c0.6-0.9,1.8-1.3,2.8-0.7c0.6,0.4,1,1.1,1,1.8c0,0.4-0.1,0.7-0.3,1.1
	l-3.6,6.9c0.5,0.1,1,0.3,1.5,0.4c0.7,0.2,1.4,0.5,2,0.9c1.7,1,3,2.3,4.4,4.1c0.5,0.9,0.4,1.4,0.2,1.9c-0.1,0.4-0.3,0.7-0.6,1
	c-0.4,0.4-0.9,0.6-1.4,0.6s-0.9-0.2-1.3-0.5l0,0c-0.1,0-0.1-0.1-0.2-0.1L24,19.4c-0.5-0.6-1-1.1-1.5-1.5c-1.4-1.1-3.2-1.4-5.4-1.2
	C13.2,17,9.4,20.4,9,24.3c-0.7,5.5,3.9,10.2,9.4,9.7c3.8-0.4,6.9-3.2,7.6-7c0.1-0.4,0.1-0.8,0.1-1.2c0-0.3,0-0.6,0-0.9v-0.6
	c0-0.4,0.1-0.7,0.3-1c0.4-0.7,1.1-1.2,2-1.2c0.3,0,0.5,0,0.7,0.1c0.3,0.1,0.6,0.3,0.8,0.5c0.3,0.3,0.5,0.7,0.6,1.1
	C30.7,24,30.8,24.4,30.8,24.8z"/>
<path class="st0" d="M16.4,17.3c0.6-0.1,1.7-0.2,2.7,0c0.2,0,0.3,0.2,0.2,0.4L18.5,19c0,0.1,0,0.1,0,0.2l2,10.4c0,0.1,0,0.2-0.1,0.2
	l-2.5,2.3c-0.1,0.1-0.2,0.1-0.3,0l-2.5-2.3C15,29.7,15,29.7,15,29.6l2-10.5c0-0.1,0-0.1,0-0.2l-0.7-1.2
	C16.1,17.5,16.2,17.4,16.4,17.3z"/>
<g>
	<path class="st0" d="M45.6,26.2c-0.1-0.6-0.3-1.3-0.9-2.8c-0.6-1.6-0.8-2-1.2-2.4c-0.4-0.3-0.8-0.5-1.4-0.5h-1.8v3
		c0,1.2,0,1.9,0.1,2.7h-3.8c0.1-0.8,0.1-1.4,0.1-2.7v-9.6c0-1.1,0-1.8-0.1-2.6c0.8,0,1.4,0.1,2.7,0.1h4.6c2.9,0,4.6,1.5,4.6,4.1
		c0,1.3-0.4,2.3-1.1,2.9c-0.4,0.4-0.8,0.6-1.7,0.9c0.9,0.3,1.3,0.7,1.9,2c0.3,0.6,0.5,1.2,1.3,3.1c0.2,0.5,0.4,0.9,0.9,1.9
		L45.6,26.2L45.6,26.2z M43.1,17.5c1.1,0,1.7-0.6,1.7-1.7c0-1-0.6-1.5-1.7-1.5h-2.8v3.2H43.1z"/>
	<path class="st0" d="M54.8,15.3c-0.1,0.7-0.1,1.4-0.1,2.7v5.5c0,1,0.1,1.9,0.1,2.7h-3.7c0.1-0.9,0.1-1.6,0.1-2.7V18
		c0-1.2,0-1.9-0.1-2.7H54.8z M54.8,11.3V14h-3.6v-2.7H54.8z"/>
	<path class="st0" d="M58.1,14.9c0-0.9,0-1.6-0.1-2.4h3.6c-0.1,0.7-0.1,1.6-0.1,2.4v0.4h0.6c0.8,0,1.2,0,1.8-0.1v3
		c-0.5-0.1-1-0.1-1.6-0.1h-0.8v4.6c0,0.5,0.1,0.8,0.3,0.9s0.5,0.2,0.8,0.2c0.5,0,0.8-0.1,1.3-0.3l0.3,2.7c-0.8,0.2-1.5,0.4-2.5,0.4
		c-1.2,0-2.1-0.2-2.6-0.6c-0.7-0.5-0.9-1.1-0.9-2.3v-5.5h-0.7c-0.6,0-1,0-1.6,0.1v-3c0.5,0.1,1,0.1,1.6,0.1h0.6V14.9z"/>
	<path class="st0" d="M68.1,21.7c0.2,1.4,1,2.2,2.4,2.2c0.7,0,1.3-0.2,1.8-0.7c0.3-0.3,0.4-0.4,0.5-0.9l3.1,0.9
		c-0.4,0.9-0.7,1.3-1.2,1.8c-1,1-2.4,1.5-4.2,1.5c-1.8,0-3.1-0.5-4.1-1.5c-1.1-1.1-1.6-2.6-1.6-4.4c0-3.5,2.3-5.9,5.7-5.9
		c2.8,0,4.7,1.5,5.4,4.2c0.1,0.6,0.2,1.3,0.3,2.3c0,0.1,0,0.2,0,0.4h-8.1V21.7z M72.8,19.3c-0.3-1.1-1-1.8-2.3-1.8s-2,0.6-2.3,1.8
		H72.8z"/>
	<path class="st0" d="M81,21.3c0.1,0.6,0.2,1,0.5,1.3c0.4,0.5,1.2,0.8,2.1,0.8c1.4,0,2.2-0.6,2.2-1.6c0-0.6-0.3-1-0.8-1.3
		c-0.4-0.2-0.8-0.3-2.7-0.7c-1.6-0.4-2.2-0.6-2.9-1c-1.1-0.8-1.7-2-1.7-3.4c0-2.8,2.2-4.5,5.7-4.5c2.3,0,4,0.7,5,2
		c0.4,0.6,0.7,1.1,0.9,2.1l-3.8,0.5c-0.2-1.2-0.9-1.6-2.2-1.6c-1.1,0-1.9,0.6-1.9,1.4c0,0.5,0.3,0.9,0.8,1.1
		c0.4,0.2,0.4,0.2,2.5,0.6c1.4,0.3,2.2,0.6,2.9,1c1.3,0.8,1.9,2,1.9,3.6c0,1.3-0.4,2.5-1.3,3.3c-1,1-2.6,1.5-4.7,1.5
		c-1.5,0-3-0.3-4-0.9c-0.9-0.5-1.6-1.3-1.9-2.3c-0.2-0.4-0.3-0.8-0.4-1.7L81,21.3z"/>
	<path class="st0" d="M92.7,14.9c0-0.9,0-1.6-0.1-2.4h3.6c-0.1,0.7-0.1,1.6-0.1,2.4v0.4h0.6c0.8,0,1.2,0,1.8-0.1v3
		c-0.5-0.1-1-0.1-1.6-0.1h-0.8v4.6c0,0.5,0.1,0.8,0.3,0.9c0.2,0.1,0.5,0.2,0.8,0.2c0.5,0,0.8-0.1,1.3-0.3l0.3,2.7
		c-0.9,0.2-1.6,0.3-2.6,0.3c-1.2,0-2.1-0.2-2.6-0.6c-0.7-0.5-0.9-1.1-0.9-2.3v-5.5H92c-0.6,0-1,0-1.6,0.1v-3c0.5,0.1,1,0.1,1.6,0.1
		h0.6L92.7,14.9L92.7,14.9z"/>
	<path class="st0" d="M103.5,15.3c-0.1,0.7-0.1,1.4-0.1,2.7v5.5c0,1,0.1,1.9,0.1,2.7h-3.7c0.1-0.9,0.1-1.6,0.1-2.7V18
		c0-1.2,0-1.9-0.1-2.7H103.5z M103.5,11.3V14h-3.6v-2.7H103.5z"/>
	<path class="st0" d="M105.4,26.2c0.1-0.8,0.1-1.6,0.1-2.7V18c0-1.2,0-2-0.1-2.7h3.6v0.8c0,0.1,0,0.4,0,0.5c1.1-1.1,2.2-1.5,3.7-1.5
		c1.2,0,2.2,0.3,2.9,1c0.7,0.7,1,1.6,1,3v4.4c0,1,0.1,1.9,0.1,2.7H113c0.1-0.9,0.1-1.6,0.1-2.7v-3.7c0-0.7-0.1-1-0.3-1.3
		c-0.2-0.3-0.6-0.5-1.2-0.5c-1,0-1.9,0.6-2.7,1.9v3.6c0,1,0,1.8,0.1,2.7H105.4z"/>
	<path class="st0" d="M120,14.9c0-0.9,0-1.6-0.1-2.4h3.6c-0.1,0.7-0.1,1.6-0.1,2.4v0.4h0.6c0.8,0,1.2,0,1.8-0.1v3
		c-0.5-0.1-1-0.1-1.6-0.1h-0.8v4.6c0,0.5,0.1,0.8,0.3,0.9c0.2,0.1,0.5,0.2,0.8,0.2c0.5,0,0.8-0.1,1.3-0.3l0.3,2.7
		c-0.8,0.2-1.5,0.4-2.5,0.4c-1.2,0-2.1-0.2-2.6-0.6c-0.7-0.5-0.9-1.1-0.9-2.3v-5.5h-0.7c-0.6,0-1,0-1.6,0.1v-3
		c0.5,0.1,1,0.1,1.6,0.1h0.6L120,14.9L120,14.9z"/>
</g>
<g>
	<path class="st0" d="M36.8,32.7L36.8,32.7C36.7,32.6,36.7,32.6,36.8,32.7l-0.1-2.8v-0.1c0,0,0,0,0.1,0h1.7h0.1c0,0,0,0,0,0.1v0.2
		v0.1c0,0,0,0-0.1,0h-1.4v1h1.3h0.1c0,0,0,0,0,0.1v0.2v0.1c0,0,0,0-0.1,0h-1.3v1.1v0.1c0,0,0,0-0.1,0h-0.2V32.7z"/>
	<path class="st0" d="M39.9,32.7C39.8,32.7,39.8,32.7,39.9,32.7C39.8,32.6,39.8,32.6,39.9,32.7l-0.1-2.5H39c0,0,0,0-0.1,0
		c0,0,0,0,0-0.1v-0.2v-0.1c0,0,0,0,0.1,0h2h0.1c0,0,0,0,0,0.1v0.2v0.1c0,0,0,0-0.1,0h-0.8v2.4v0.1c0,0,0,0-0.1,0H39.9z"/>
	<path class="st0" d="M41.6,32.7C41.6,32.7,41.5,32.7,41.6,32.7C41.5,32.6,41.5,32.6,41.6,32.7l-0.1-2.8v-0.1c0,0,0,0,0.1,0h1.7h0.1
		c0,0,0,0,0,0.1v0.2v0.1c0,0,0,0-0.1,0h-1.4v0.9h1.3h0.1c0,0,0,0,0,0.1v0.2v0.1c0,0,0,0-0.1,0h-1.3v0.9h1.4h0.1c0,0,0,0,0,0.1v0.2
		v0.1c0,0,0,0-0.1,0h-1.7V32.7z"/>
	<path class="st0" d="M45,33.5L45,33.5C45,33.5,44.9,33.5,45,33.5l-0.1-4.4V29c0,0,0,0,0.1,0h0.2h0.1c0,0,0,0,0,0.1v4.4v0.1
		c0,0,0,0-0.1,0L45,33.5L45,33.5z"/>
	<path class="st0" d="M48,32.7c-0.2,0-0.4,0-0.6-0.1c-0.2-0.1-0.3-0.2-0.4-0.4c-0.1-0.1-0.1-0.3-0.1-0.6c0-0.1,0-0.2,0-0.4
		c0-0.1,0-0.3,0-0.4c0-0.2,0.1-0.4,0.1-0.6c0.1-0.2,0.2-0.3,0.4-0.4s0.4-0.1,0.6-0.1c0.2,0,0.4,0,0.5,0.1s0.3,0.1,0.4,0.2
		c0.1,0.1,0.2,0.2,0.2,0.3c0,0.1,0.1,0.2,0.1,0.2s0,0,0,0.1c0,0,0,0-0.1,0h-0.2c0,0,0,0-0.1,0c0,0,0,0,0-0.1s-0.1-0.1-0.1-0.2
		c-0.1-0.1-0.1-0.1-0.2-0.2c-0.1,0-0.2-0.1-0.4-0.1s-0.4,0.1-0.5,0.2s-0.2,0.3-0.2,0.6c0,0.2,0,0.5,0,0.7c0,0.3,0.1,0.5,0.2,0.6
		c0.1,0.1,0.3,0.2,0.5,0.2c0.1,0,0.3,0,0.4-0.1c0.1-0.1,0.2-0.1,0.3-0.2c0.1-0.1,0.1-0.3,0.1-0.4v-0.1h-0.6c0,0,0,0-0.1,0
		c0,0,0,0,0-0.1v-0.1v-0.1c0,0,0,0,0.1,0h0.9h0.1c0,0,0,0,0,0.1v0.4c0,0.2,0,0.4-0.1,0.6s-0.2,0.3-0.4,0.4
		C48.5,32.7,48.2,32.7,48,32.7z"/>
	<path class="st0" d="M49.8,32.7L49.8,32.7C49.8,32.6,49.8,32.6,49.8,32.7l-0.1-2.8v-0.1c0,0,0,0,0.1,0H50h0.1c0,0,0,0,0,0.1v2.7
		v0.1c0,0,0,0-0.1,0H49.8z"/>
	<path class="st0" d="M51.9,32.7c-0.2,0-0.4,0-0.6-0.1c-0.2-0.1-0.3-0.2-0.4-0.4c-0.1-0.2-0.1-0.4-0.1-0.6c0-0.1,0-0.2,0-0.4
		c0-0.1,0-0.3,0-0.4c0-0.2,0.1-0.4,0.1-0.6c0.1-0.2,0.2-0.3,0.4-0.4s0.4-0.1,0.6-0.1c0.2,0,0.4,0,0.5,0.1s0.3,0.1,0.4,0.2
		c0.1,0.1,0.2,0.2,0.2,0.3c0,0.1,0.1,0.2,0.1,0.2s0,0,0,0.1c0,0,0,0-0.1,0h-0.2c0,0,0,0-0.1,0c0,0,0,0,0-0.1s-0.1-0.1-0.1-0.2
		c-0.1-0.1-0.1-0.1-0.2-0.2c-0.1,0-0.2-0.1-0.4-0.1s-0.4,0.1-0.5,0.2s-0.2,0.3-0.2,0.6c0,0.2,0,0.5,0,0.7c0,0.3,0.1,0.5,0.2,0.6
		c0.1,0.1,0.3,0.2,0.5,0.2c0.1,0,0.3,0,0.4-0.1c0.1-0.1,0.2-0.1,0.3-0.2c0.1-0.1,0.1-0.3,0.1-0.4v-0.1h-0.6c0,0,0,0-0.1,0
		c0,0,0,0,0-0.1v-0.1v-0.1c0,0,0,0,0.1,0h0.9h0.1c0,0,0,0,0,0.1v0.4c0,0.2,0,0.4-0.1,0.6s-0.2,0.3-0.4,0.4
		C52.4,32.7,52.2,32.7,51.9,32.7z"/>
	<path class="st0" d="M54.7,33.5L54.7,33.5C54.6,33.5,54.6,33.5,54.7,33.5l-0.1-4.4V29c0,0,0,0,0.1,0h0.2H55c0,0,0,0,0,0.1v4.4v0.1
		c0,0,0,0-0.1,0L54.7,33.5L54.7,33.5z"/>
	<path class="st0" d="M57.7,32.7c-0.3,0-0.5,0-0.6-0.1c-0.2-0.1-0.3-0.2-0.4-0.4c-0.1-0.2-0.1-0.4-0.1-0.6c0-0.1,0-0.2,0-0.4
		c0-0.1,0-0.3,0-0.4c0-0.2,0.1-0.4,0.1-0.6c0.1-0.2,0.2-0.3,0.4-0.4s0.4-0.1,0.6-0.1c0.2,0,0.4,0,0.5,0.1s0.3,0.1,0.4,0.2
		c0.1,0.1,0.2,0.2,0.2,0.3c0,0.1,0.1,0.2,0.1,0.3c0,0,0,0,0,0.1c0,0,0,0-0.1,0h-0.2c0,0,0,0-0.1,0c0,0,0,0,0-0.1
		c0-0.2-0.1-0.4-0.3-0.4c-0.1-0.1-0.3-0.1-0.5-0.1s-0.4,0.1-0.5,0.2S57,30.6,57,30.9c0,0.2,0,0.5,0,0.7c0,0.3,0.1,0.5,0.2,0.6
		c0.1,0.1,0.3,0.2,0.5,0.2s0.4,0,0.5-0.1c0.1-0.1,0.2-0.2,0.3-0.4v-0.1c0,0,0,0,0.1,0h0.2c0,0,0,0,0.1,0c0,0,0,0,0,0.1
		c0,0.1,0,0.2-0.1,0.3c0,0.1-0.1,0.2-0.2,0.3c-0.1,0.1-0.2,0.2-0.4,0.2C58,32.7,57.9,32.7,57.7,32.7z"/>
	<path class="st0" d="M60.4,32.7c-0.2,0-0.4,0-0.6-0.1c-0.2-0.1-0.3-0.2-0.4-0.4c-0.1-0.2-0.1-0.4-0.2-0.6c0-0.1,0-0.2,0-0.3
		c0-0.1,0-0.2,0-0.3c0-0.3,0.1-0.5,0.2-0.6c0.1-0.2,0.2-0.3,0.4-0.4s0.4-0.1,0.6-0.1c0.2,0,0.4,0,0.6,0.1c0.2,0.1,0.3,0.2,0.4,0.4
		c0.1,0.2,0.1,0.4,0.2,0.6c0,0.1,0,0.2,0,0.3c0,0.1,0,0.2,0,0.3c0,0.3-0.1,0.5-0.1,0.6c-0.1,0.2-0.2,0.3-0.4,0.4
		C60.8,32.7,60.6,32.7,60.4,32.7z M60.4,32.4c0.2,0,0.4-0.1,0.5-0.2c0.1-0.1,0.2-0.3,0.2-0.6c0-0.1,0-0.2,0-0.3s0-0.2,0-0.3
		c0-0.2,0-0.3-0.1-0.5c-0.1-0.1-0.1-0.2-0.3-0.3c-0.1-0.1-0.2-0.1-0.4-0.1c-0.1,0-0.3,0-0.4,0.1c-0.1,0.1-0.2,0.1-0.3,0.3
		c-0.1,0.1-0.1,0.3-0.1,0.5c0,0.1,0,0.2,0,0.3s0,0.2,0,0.3c0,0.3,0.1,0.5,0.2,0.6C60,32.3,60.2,32.4,60.4,32.4z"/>
	<path class="st0" d="M62.2,32.7L62.2,32.7C62.2,32.6,62.1,32.6,62.2,32.7l-0.1-2.8v-0.1c0,0,0,0,0.1,0h0.2h0.1l0,0l1.4,2.1v-2.1
		v-0.1c0,0,0,0,0.1,0h0.2h0.1c0,0,0,0,0,0.1v2.7v0.1c0,0,0,0-0.1,0H64h-0.1l0,0l-1.4-2.1v2v0.1c0,0,0,0-0.1,0h-0.2V32.7z"/>
	<path class="st0" d="M65.7,32.7L65.7,32.7C65.6,32.6,65.6,32.6,65.7,32.7l-0.1-2.5h-0.8c0,0,0,0-0.1,0c0,0,0,0,0-0.1v-0.2v-0.1
		c0,0,0,0,0.1,0h2h0.1c0,0,0,0,0,0.1v0.2v0.1c0,0,0,0-0.1,0H66v2.4v0.1c0,0,0,0-0.1,0H65.7z"/>
	<path class="st0" d="M67.5,32.7C67.4,32.7,67.4,32.7,67.5,32.7C67.4,32.6,67.4,32.6,67.5,32.7l-0.1-2.8v-0.1c0,0,0,0,0.1,0h1
		c0.3,0,0.6,0.1,0.7,0.2c0.2,0.1,0.3,0.4,0.3,0.6s-0.1,0.4-0.2,0.5s-0.2,0.2-0.4,0.3l0.6,1.1l0,0c0,0,0,0,0,0.1c0,0,0,0-0.1,0h-0.2
		h-0.1c0,0,0,0-0.1-0.1l-0.6-1h-0.7v1.1v0.1c0,0,0,0-0.1,0C67.6,32.7,67.5,32.7,67.5,32.7z M67.8,31.2h0.7c0.2,0,0.4,0,0.5-0.1
		s0.2-0.2,0.2-0.4c0-0.2,0-0.3-0.1-0.4s-0.3-0.1-0.5-0.1h-0.7L67.8,31.2L67.8,31.2z"/>
	<path class="st0" d="M69.9,32.7C69.8,32.7,69.8,32.7,69.9,32.7C69.8,32.7,69.8,32.6,69.9,32.7C69.8,32.6,69.8,32.6,69.9,32.7
		l0.9-2.8c0,0,0,0,0-0.1c0,0,0,0,0.1,0h0.3h0.1c0,0,0,0,0,0.1l1,2.7l0,0c0,0,0,0,0,0.1c0,0,0,0-0.1,0H72h-0.1l0,0l-0.2-0.6h-1.3
		l-0.2,0.6l0,0c0,0,0,0-0.1,0H69.9z M70.5,31.7h1.1L71,30.2L70.5,31.7z"/>
	<path class="st0" d="M73.8,32.7c-0.3,0-0.5,0-0.6-0.1c-0.2-0.1-0.3-0.2-0.4-0.4c-0.1-0.2-0.1-0.4-0.1-0.6c0-0.1,0-0.2,0-0.4
		c0-0.1,0-0.3,0-0.4c0-0.2,0.1-0.4,0.1-0.6c0.1-0.2,0.2-0.3,0.4-0.4s0.4-0.1,0.6-0.1s0.4,0,0.5,0.1s0.3,0.1,0.4,0.2s0.2,0.2,0.2,0.3
		c0,0.1,0.1,0.2,0.1,0.3c0,0,0,0,0,0.1c0,0,0,0-0.1,0h-0.2c0,0,0,0-0.1,0c0,0,0,0,0-0.1c0-0.2-0.1-0.4-0.3-0.4
		c-0.1-0.1-0.3-0.1-0.5-0.1s-0.4,0.1-0.5,0.2s-0.2,0.3-0.2,0.6c0,0.2,0,0.5,0,0.7c0,0.3,0.1,0.5,0.2,0.6c0.1,0.1,0.3,0.2,0.5,0.2
		s0.4,0,0.5-0.1c0.1-0.1,0.2-0.2,0.3-0.4v-0.1c0,0,0,0,0.1,0h0.2c0,0,0,0,0.1,0c0,0,0,0,0,0.1c0,0.1,0,0.2-0.1,0.3s-0.1,0.2-0.2,0.3
		s-0.2,0.2-0.4,0.2C74.1,32.7,74,32.7,73.8,32.7z"/>
	<path class="st0" d="M76.2,32.7L76.2,32.7C76.1,32.6,76.1,32.6,76.2,32.7l-0.1-2.5h-0.8h-0.1c0,0,0,0,0-0.1v-0.2v-0.1
		c0,0,0,0,0.1,0h2h0.1c0,0,0,0,0,0.1v0.2v0.1c0,0,0,0-0.1,0h-0.8v2.4v0.1c0,0,0,0-0.1,0H76.2z"/>
	<path class="st0" d="M78.9,32.7c-0.2,0-0.4,0-0.6-0.1s-0.3-0.2-0.4-0.4c-0.1-0.2-0.1-0.4-0.1-0.7v-1.7v-0.1c0,0,0,0,0.1,0h0.2h0.1
		c0,0,0,0,0,0.1v1.7c0,0.3,0.1,0.5,0.2,0.6c0.1,0.1,0.3,0.2,0.5,0.2s0.4-0.1,0.5-0.2c0.1-0.1,0.2-0.3,0.2-0.6v-1.7v-0.1
		c0,0,0,0,0.1,0h0.2H80c0,0,0,0,0,0.1v1.7c0,0.3,0,0.5-0.1,0.7s-0.2,0.3-0.4,0.4C79.4,32.7,79.2,32.7,78.9,32.7z"/>
	<path class="st0" d="M80.5,32.7L80.5,32.7C80.4,32.7,80.4,32.6,80.5,32.7C80.4,32.6,80.4,32.6,80.5,32.7l0.9-2.8c0,0,0,0,0-0.1
		c0,0,0,0,0.1,0h0.3h0.1c0,0,0,0,0,0.1l1,2.7l0,0c0,0,0,0,0,0.1c0,0,0,0-0.1,0h-0.2h-0.1l0,0l-0.2-0.6H81l-0.2,0.6l0,0
		c0,0,0,0-0.1,0H80.5z M81.1,31.7h1.1l-0.6-1.5L81.1,31.7z"/>
	<path class="st0" d="M83.5,32.7L83.5,32.7C83.4,32.6,83.4,32.6,83.5,32.7l-0.1-2.8v-0.1c0,0,0,0,0.1,0h0.2h0.1c0,0,0,0,0,0.1v2.4
		h1.4h0.1c0,0,0,0,0,0.1v0.2v0.1c0,0,0,0-0.1,0H83.5z"/>
	<path class="st0" d="M86.7,33.5C86.7,33.5,86.6,33.5,86.7,33.5C86.6,33.5,86.6,33.5,86.7,33.5l-0.1-4.4V29c0,0,0,0,0.1,0h0.2H87
		c0,0,0,0,0,0.1v4.4v0.1c0,0,0,0-0.1,0L86.7,33.5L86.7,33.5z"/>
	<path class="st0" d="M89.5,32.7c-0.2,0-0.4,0-0.6-0.1s-0.3-0.2-0.4-0.3s-0.1-0.2-0.1-0.4c0,0,0,0,0-0.1c0,0,0,0,0.1,0h0.2h0.1
		c0,0,0,0,0,0.1s0,0.1,0.1,0.2c0.1,0.1,0.1,0.1,0.2,0.2c0.1,0,0.2,0.1,0.4,0.1c0.2,0,0.4,0,0.5-0.1c0.1-0.1,0.2-0.2,0.2-0.3
		c0-0.1,0-0.2-0.1-0.2c-0.1-0.1-0.1-0.1-0.3-0.2c-0.1,0-0.3-0.1-0.5-0.2s-0.4-0.1-0.5-0.2s-0.2-0.2-0.3-0.3s-0.1-0.2-0.1-0.4
		c0-0.1,0-0.3,0.1-0.4s0.2-0.2,0.3-0.3c0.1-0.1,0.3-0.1,0.5-0.1s0.3,0,0.4,0.1c0.1,0,0.2,0.1,0.3,0.2c0.1,0.1,0.1,0.2,0.2,0.2
		c0,0.1,0.1,0.2,0.1,0.3c0,0,0,0,0,0.1c0,0,0,0-0.1,0H90c0,0,0,0-0.1,0c0,0,0,0,0-0.1s-0.1-0.2-0.2-0.3c-0.1-0.1-0.3-0.1-0.4-0.1
		c-0.2,0-0.3,0-0.4,0.1s-0.2,0.2-0.2,0.3c0,0.1,0,0.2,0.1,0.2c0.1,0.1,0.1,0.1,0.2,0.2c0.1,0,0.3,0.1,0.4,0.1
		c0.2,0.1,0.4,0.1,0.5,0.2s0.2,0.2,0.3,0.3c0.1,0.1,0.1,0.2,0.1,0.4c0,0.2,0,0.3-0.1,0.4c-0.1,0.1-0.2,0.2-0.4,0.3
		C89.9,32.7,89.7,32.7,89.5,32.7z"/>
	<path class="st0" d="M91.8,32.7L91.8,32.7C91.8,32.6,91.7,32.6,91.8,32.7l-0.1-2.5h-0.8h-0.1c0,0,0,0,0-0.1v-0.2v-0.1
		c0,0,0,0,0.1,0h2H93c0,0,0,0,0,0.1v0.2v0.1c0,0,0,0-0.1,0h-0.8v2.4v0.1c0,0,0,0-0.1,0H91.8z"/>
	<path class="st0" d="M93,32.7L93,32.7C92.9,32.7,92.9,32.6,93,32.7c-0.1-0.1-0.1-0.1-0.1-0.1l1-2.7c0,0,0,0,0-0.1c0,0,0,0,0.1,0
		h0.3h0.1c0,0,0,0,0,0.1l1,2.7l0,0c0,0,0,0,0,0.1c0,0,0,0-0.1,0h-0.2H95l0,0L94.9,32h-1.3l-0.2,0.6l0,0c0,0,0,0-0.1,0H93V32.7z
		 M93.7,31.7h1.1l-0.6-1.5L93.7,31.7z"/>
	<path class="st0" d="M96,32.7L96,32.7C96,32.6,95.9,32.6,96,32.7l-0.1-2.8v-0.1c0,0,0,0,0.1,0h1.7h0.1c0,0,0,0,0,0.1v0.2v0.1
		c0,0,0,0-0.1,0h-1.4v1h1.3h0.1c0,0,0,0,0,0.1v0.2v0.1c0,0,0,0-0.1,0h-1.3v1.1v0.1c0,0,0,0-0.1,0L96,32.7L96,32.7z"/>
	<path class="st0" d="M98.4,32.7L98.4,32.7C98.3,32.6,98.3,32.6,98.4,32.7l-0.1-2.8v-0.1c0,0,0,0,0.1,0h1.7h0.1c0,0,0,0,0,0.1v0.2
		v0.1c0,0,0,0-0.1,0h-1.4v1h1.3h0.1c0,0,0,0,0,0.1v0.2v0.1c0,0,0,0-0.1,0h-1.3v1.1v0.1c0,0,0,0-0.1,0h-0.2V32.7z"/>
	<path class="st0" d="M100.8,32.7L100.8,32.7C100.7,32.6,100.7,32.6,100.8,32.7l-0.1-2.8v-0.1c0,0,0,0,0.1,0h0.2h0.1c0,0,0,0,0,0.1
		v2.7v0.1c0,0,0,0-0.1,0H100.8z"/>
	<path class="st0" d="M102,32.7C101.9,32.7,101.9,32.7,102,32.7C101.9,32.6,101.9,32.6,102,32.7l-0.1-2.8v-0.1c0,0,0,0,0.1,0h0.2
		h0.1l0,0l1.4,2.1v-2.1v-0.1c0,0,0,0,0.1,0h0.2h0.1c0,0,0,0,0,0.1v2.7v0.1c0,0,0,0-0.1,0h-0.2h-0.1l0,0l-1.4-2.1v2v0.1
		c0,0,0,0-0.1,0H102V32.7z"/>
	<path class="st0" d="M105.7,32.7c-0.2,0-0.4,0-0.6-0.1s-0.3-0.2-0.4-0.4c-0.1-0.2-0.1-0.4-0.1-0.6c0-0.1,0-0.2,0-0.4
		c0-0.1,0-0.3,0-0.4c0-0.2,0.1-0.4,0.1-0.6s0.2-0.3,0.4-0.4c0.2-0.1,0.4-0.1,0.6-0.1s0.4,0,0.5,0.1s0.3,0.1,0.4,0.2s0.2,0.2,0.2,0.3
		c0,0.1,0.1,0.2,0.1,0.2s0,0,0,0.1c0,0,0,0-0.1,0h-0.2c0,0,0,0-0.1,0c0,0,0,0,0-0.1s-0.1-0.1-0.1-0.2c-0.1-0.1-0.1-0.1-0.2-0.2
		c-0.1,0-0.2-0.1-0.4-0.1c-0.2,0-0.4,0.1-0.5,0.2s-0.2,0.3-0.2,0.6c0,0.2,0,0.5,0,0.7c0,0.3,0.1,0.5,0.2,0.6
		c0.1,0.1,0.3,0.2,0.5,0.2c0.1,0,0.3,0,0.4-0.1c0.1-0.1,0.2-0.1,0.3-0.2c0.1-0.1,0.1-0.3,0.1-0.4v-0.1h-0.7h-0.1c0,0,0,0,0-0.1v-0.1
		v-0.1c0,0,0,0,0.1,0h0.9h0.1c0,0,0,0,0,0.1v0.4c0,0.2,0,0.4-0.1,0.6s-0.2,0.3-0.4,0.4C106.2,32.7,106,32.7,105.7,32.7z"/>
	<path class="st0" d="M109.4,32.7c-0.2,0-0.4,0-0.6-0.1s-0.3-0.2-0.4-0.3s-0.1-0.2-0.1-0.4c0,0,0,0,0-0.1c0,0,0,0,0.1,0h0.2h0.1
		c0,0,0,0,0,0.1s0,0.1,0.1,0.2c0.1,0.1,0.1,0.1,0.2,0.2c0.1,0,0.2,0.1,0.4,0.1c0.2,0,0.4,0,0.5-0.1c0.1-0.1,0.2-0.2,0.2-0.3
		c0-0.1,0-0.2-0.1-0.2c-0.1-0.1-0.1-0.1-0.3-0.2c-0.1,0-0.3-0.1-0.5-0.2s-0.4-0.1-0.5-0.2s-0.2-0.2-0.3-0.3s-0.1-0.2-0.1-0.4
		c0-0.1,0-0.3,0.1-0.4s0.2-0.2,0.3-0.3c0.1-0.1,0.3-0.1,0.5-0.1s0.3,0,0.4,0.1c0.1,0,0.2,0.1,0.3,0.2c0.1,0.1,0.1,0.2,0.2,0.2
		c0,0.1,0.1,0.2,0.1,0.3c0,0,0,0,0,0.1c0,0,0,0-0.1,0h-0.2c0,0,0,0-0.1,0c0,0,0,0,0-0.1s-0.1-0.2-0.2-0.3c-0.1-0.1-0.3-0.1-0.4-0.1
		c-0.2,0-0.3,0-0.4,0.1s-0.2,0.2-0.2,0.3c0,0.1,0,0.2,0.1,0.2c0.1,0.1,0.1,0.1,0.2,0.2c0.1,0,0.3,0.1,0.4,0.1
		c0.2,0.1,0.4,0.1,0.5,0.2s0.2,0.2,0.3,0.3c0.1,0.1,0.1,0.2,0.1,0.4c0,0.2,0,0.3-0.1,0.4c-0.1,0.1-0.2,0.2-0.4,0.3
		C109.8,32.7,109.6,32.7,109.4,32.7z"/>
	<path class="st0" d="M112.1,32.7c-0.2,0-0.4,0-0.6-0.1s-0.3-0.2-0.4-0.4c-0.1-0.2-0.1-0.4-0.2-0.6c0-0.1,0-0.2,0-0.3
		c0-0.1,0-0.2,0-0.3c0-0.3,0.1-0.5,0.2-0.6c0.1-0.2,0.2-0.3,0.4-0.4c0.2-0.1,0.4-0.1,0.6-0.1s0.4,0,0.6,0.1s0.3,0.2,0.4,0.4
		c0.1,0.2,0.1,0.4,0.2,0.6c0,0.1,0,0.2,0,0.3c0,0.1,0,0.2,0,0.3c0,0.3-0.1,0.5-0.1,0.6c-0.1,0.2-0.2,0.3-0.4,0.4
		C112.5,32.7,112.3,32.7,112.1,32.7z M112.1,32.4c0.2,0,0.4-0.1,0.5-0.2c0.1-0.1,0.2-0.3,0.2-0.6c0-0.1,0-0.2,0-0.3s0-0.2,0-0.3
		c0-0.2,0-0.3-0.1-0.5c-0.1-0.1-0.1-0.2-0.3-0.3c-0.1-0.1-0.2-0.1-0.4-0.1c-0.1,0-0.3,0-0.4,0.1s-0.2,0.1-0.3,0.3
		c-0.1,0.1-0.1,0.3-0.1,0.5c0,0.1,0,0.2,0,0.3s0,0.2,0,0.3c0,0.3,0.1,0.5,0.2,0.6C111.5,32.3,111.9,32.4,112.1,32.4z"/>
	<path class="st0" d="M113.9,32.7L113.9,32.7C113.8,32.6,113.8,32.6,113.9,32.7l-0.1-2.8v-0.1c0,0,0,0,0.1,0h0.2h0.1c0,0,0,0,0,0.1
		v2.4h1.4h0.1c0,0,0,0,0,0.1v0.2v0.1c0,0,0,0-0.1,0H113.9z"/>
	<path class="st0" d="M117.2,32.7c-0.2,0-0.4,0-0.6-0.1s-0.3-0.2-0.4-0.4c-0.1-0.2-0.1-0.4-0.1-0.7v-1.7v-0.1c0,0,0,0,0.1,0h0.2h0.1
		c0,0,0,0,0,0.1v1.7c0,0.3,0.1,0.5,0.2,0.6c0.1,0.1,0.3,0.2,0.5,0.2s0.4-0.1,0.5-0.2c0.1-0.1,0.2-0.3,0.2-0.6v-1.7v-0.1
		c0,0,0,0,0.1,0h0.2h0.1c0,0,0,0,0,0.1v1.7c0,0.3,0,0.5-0.1,0.7s-0.2,0.3-0.4,0.4C117.6,32.7,117.4,32.7,117.2,32.7z"/>
	<path class="st0" d="M119.7,32.7C119.6,32.7,119.6,32.7,119.7,32.7C119.6,32.6,119.6,32.6,119.7,32.7l-0.1-2.5h-0.8h-0.1
		c0,0,0,0,0-0.1v-0.2v-0.1c0,0,0,0,0.1,0h2h0.1c0,0,0,0,0,0.1v0.2v0.1c0,0,0,0-0.1,0H120v2.4v0.1c0,0,0,0-0.1,0H119.7z"/>
	<path class="st0" d="M121.4,32.7L121.4,32.7C121.3,32.6,121.3,32.6,121.4,32.7l-0.1-2.8v-0.1c0,0,0,0,0.1,0h0.2h0.1c0,0,0,0,0,0.1
		v2.7v0.1c0,0,0,0-0.1,0H121.4z"/>
	<path class="st0" d="M123.5,32.7c-0.2,0-0.4,0-0.6-0.1s-0.3-0.2-0.4-0.4c-0.1-0.2-0.1-0.4-0.2-0.6c0-0.1,0-0.2,0-0.3
		c0-0.1,0-0.2,0-0.3c0-0.3,0.1-0.5,0.2-0.6c0.1-0.2,0.2-0.3,0.4-0.4c0.2-0.1,0.4-0.1,0.6-0.1s0.4,0,0.6,0.1s0.3,0.2,0.4,0.4
		c0.1,0.2,0.1,0.4,0.2,0.6c0,0.1,0,0.2,0,0.3c0,0.1,0,0.2,0,0.3c0,0.3-0.1,0.5-0.1,0.6c-0.1,0.2-0.2,0.3-0.4,0.4
		C123.9,32.7,123.7,32.7,123.5,32.7z M123.5,32.4c0.2,0,0.4-0.1,0.5-0.2c0.1-0.1,0.2-0.3,0.2-0.6c0-0.1,0-0.2,0-0.3s0-0.2,0-0.3
		c0-0.2,0-0.3-0.1-0.5c-0.1-0.1-0.1-0.2-0.3-0.3c-0.1-0.1-0.2-0.1-0.4-0.1c-0.1,0-0.3,0-0.4,0.1s-0.2,0.1-0.3,0.3
		c-0.1,0.1-0.1,0.3-0.1,0.5c0,0.1,0,0.2,0,0.3s0,0.2,0,0.3c0,0.3,0.1,0.5,0.2,0.6C123.1,32.3,123.3,32.4,123.5,32.4z"/>
	<path class="st0" d="M125.3,32.7L125.3,32.7C125.2,32.6,125.2,32.6,125.3,32.7l-0.1-2.8v-0.1c0,0,0,0,0.1,0h0.2h0.1l0,0l1.4,2.1
		v-2.1v-0.1c0,0,0,0,0.1,0h0.2h0.1c0,0,0,0,0,0.1v2.7v0.1c0,0,0,0-0.1,0h-0.2H127l0,0l-1.4-2.1v2v0.1c0,0,0,0-0.1,0h-0.2V32.7z"/>
</g>
</svg>
