<?xml version="1.0" encoding="utf-8"?>
<!-- Generator: Adobe Illustrator 23.1.1, SVG Export Plug-In . SVG Version: 6.00 Build 0)  -->
<svg version="1.1" id="Layer_1" xmlns="http://www.w3.org/2000/svg" xmlns:xlink="http://www.w3.org/1999/xlink" x="0px" y="0px"
	 viewBox="0 0 133 41" style="enable-background:new 0 0 133 41;" xml:space="preserve">
<style type="text/css">
	.st0{fill:#FFFFFF;}
</style>
<path class="st0" d="M30.9,25.3c0,2.8-0.9,5.4-2.4,7.5c-2.4,3.4-6.4,5.6-10.9,5.5C10.7,38.3,5,32.7,4.7,25.9c-0.1-2.1,0.3-4,1.1-5.8
	L6.1,7.8c0-1.1,0.9-2,2-2c1.1,0,2,0.9,2,2v0.1l-0.2,7c0.1-0.1,0.3-0.2,0.4-0.3l3-9.9c0.3-1.1,1.4-1.7,2.5-1.4c0.9,0.3,1.5,1.1,1.5,2
	c0,0.2,0,0.4-0.1,0.6l-2,6.7l0,0c0.1,0,0.3-0.1,0.4-0.1l5.1-8.9c0.6-0.9,1.8-1.3,2.8-0.7c0.6,0.4,1,1.1,1,1.8c0,0.4-0.1,0.7-0.3,1.1
	l-3.6,6.9c0.5,0.1,1,0.3,1.5,0.4c0.7,0.2,1.4,0.5,2,0.9c1.7,1,3,2.3,4.4,4.1c0.5,0.9,0.4,1.4,0.2,1.9c-0.1,0.4-0.3,0.7-0.6,1
	c-0.4,0.4-0.9,0.6-1.4,0.6c-0.5,0-0.9-0.2-1.3-0.5c0,0,0,0,0,0c-0.1,0-0.1-0.1-0.2-0.1l-1.1-1.1c-0.5-0.6-1-1.1-1.5-1.5
	c-1.4-1.1-3.2-1.4-5.4-1.2c-3.9,0.3-7.7,3.7-8.1,7.6c-0.7,5.5,3.9,10.2,9.4,9.7c3.8-0.4,6.9-3.2,7.6-7c0.1-0.4,0.1-0.8,0.1-1.2
	c0-0.3,0-0.6,0-0.9v-0.6c0-0.4,0.1-0.7,0.3-1c0.4-0.7,1.1-1.2,2-1.2c0.3,0,0.5,0,0.7,0.1c0.3,0.1,0.6,0.3,0.8,0.5
	c0.3,0.3,0.5,0.7,0.6,1.1C30.8,24.5,30.9,24.9,30.9,25.3z"/>
<path class="st0" d="M16.5,17.8c0.6-0.1,1.7-0.2,2.7,0c0.2,0,0.3,0.2,0.2,0.4l-0.8,1.3c0,0.1,0,0.1,0,0.2l2,10.4
	c0,0.1,0,0.2-0.1,0.2L18,32.6c-0.1,0.1-0.2,0.1-0.3,0l-2.5-2.3c-0.1-0.1-0.1-0.1-0.1-0.2l2-10.5c0-0.1,0-0.1,0-0.2l-0.7-1.2
	C16.2,18,16.3,17.9,16.5,17.8z"/>
<g>
	<path class="st0" d="M45.7,25.7c-0.1-0.6-0.3-1.3-0.9-2.8c-0.6-1.6-0.8-2-1.2-2.4c-0.4-0.3-0.8-0.5-1.4-0.5h-1.8V23
		c0,1.2,0,1.9,0.1,2.7h-3.8c0.1-0.8,0.1-1.4,0.1-2.7v-9.6c0-1.1,0-1.8-0.1-2.6c0.8,0,1.4,0.1,2.7,0.1H44c2.9,0,4.6,1.5,4.6,4.1
		c0,1.3-0.4,2.3-1.1,2.9c-0.4,0.4-0.8,0.6-1.7,0.9c0.9,0.3,1.3,0.7,1.9,2c0.3,0.6,0.5,1.2,1.3,3.1c0.2,0.5,0.4,0.9,0.9,1.9H45.7z
		 M43.2,17c1.1,0,1.7-0.6,1.7-1.7c0-1-0.6-1.5-1.7-1.5h-2.8V17H43.2z"/>
	<path class="st0" d="M54.9,14.8c-0.1,0.7-0.1,1.4-0.1,2.7V23c0,1,0.1,1.9,0.1,2.7h-3.7c0.1-0.9,0.1-1.6,0.1-2.7v-5.5
		c0-1.2,0-1.9-0.1-2.7H54.9z M54.9,10.8v2.7h-3.6v-2.7H54.9z"/>
	<path class="st0" d="M58.2,14.4c0-0.9,0-1.6-0.1-2.4h3.6c-0.1,0.7-0.1,1.6-0.1,2.4v0.4h0.6c0.8,0,1.2,0,1.8-0.1v3
		c-0.5-0.1-1-0.1-1.6-0.1h-0.8v4.6c0,0.5,0.1,0.8,0.3,0.9c0.2,0.1,0.5,0.2,0.8,0.2c0.5,0,0.8-0.1,1.3-0.3l0.3,2.7
		c-0.8,0.2-1.5,0.4-2.5,0.4c-1.2,0-2.1-0.2-2.6-0.6c-0.7-0.5-0.9-1.1-0.9-2.3v-5.5h-0.7c-0.6,0-1,0-1.6,0.1v-3
		c0.5,0.1,1,0.1,1.6,0.1h0.6V14.4z"/>
	<path class="st0" d="M68.2,21.2c0.2,1.4,1,2.2,2.4,2.2c0.7,0,1.3-0.2,1.8-0.7c0.3-0.3,0.4-0.4,0.5-0.9l3.1,0.9
		c-0.4,0.9-0.7,1.3-1.2,1.8c-1,1-2.4,1.5-4.2,1.5c-1.8,0-3.1-0.5-4.1-1.5c-1.1-1.1-1.6-2.6-1.6-4.4c0-3.5,2.3-5.9,5.7-5.9
		c2.8,0,4.7,1.5,5.4,4.2c0.1,0.6,0.2,1.3,0.3,2.3c0,0.1,0,0.2,0,0.4H68.2z M72.9,18.8c-0.3-1.1-1-1.8-2.3-1.8c-1.3,0-2,0.6-2.3,1.8
		H72.9z"/>
	<path class="st0" d="M81.1,20.8c0.1,0.6,0.2,1,0.5,1.3c0.4,0.5,1.2,0.8,2.1,0.8c1.4,0,2.2-0.6,2.2-1.6c0-0.6-0.3-1-0.8-1.3
		c-0.4-0.2-0.8-0.3-2.7-0.7c-1.6-0.4-2.2-0.6-2.9-1c-1.1-0.8-1.7-2-1.7-3.4c0-2.8,2.2-4.5,5.7-4.5c2.3,0,4,0.7,5,2
		c0.4,0.6,0.7,1.1,0.9,2.1L85.6,15c-0.2-1.2-0.9-1.6-2.2-1.6c-1.1,0-1.9,0.6-1.9,1.4c0,0.5,0.3,0.9,0.8,1.1c0.4,0.2,0.4,0.2,2.5,0.6
		c1.4,0.3,2.2,0.6,2.9,1c1.3,0.8,1.9,2,1.9,3.6c0,1.3-0.4,2.5-1.3,3.3c-1,1-2.6,1.5-4.7,1.5c-1.5,0-3-0.3-4-0.9
		c-0.9-0.5-1.6-1.3-1.9-2.3c-0.2-0.4-0.3-0.8-0.4-1.7L81.1,20.8z"/>
	<path class="st0" d="M92.8,14.4c0-0.9,0-1.6-0.1-2.4h3.6c-0.1,0.7-0.1,1.6-0.1,2.4v0.4h0.6c0.8,0,1.2,0,1.8-0.1v3
		c-0.5-0.1-1-0.1-1.6-0.1h-0.8v4.6c0,0.5,0.1,0.8,0.3,0.9c0.2,0.1,0.5,0.2,0.8,0.2c0.5,0,0.8-0.1,1.3-0.3l0.3,2.7
		C98,25.9,97.3,26,96.3,26c-1.2,0-2.1-0.2-2.6-0.6c-0.7-0.5-0.9-1.1-0.9-2.3v-5.5h-0.7c-0.6,0-1,0-1.6,0.1v-3c0.5,0.1,1,0.1,1.6,0.1
		h0.6V14.4z"/>
	<path class="st0" d="M103.6,14.8c-0.1,0.7-0.1,1.4-0.1,2.7V23c0,1,0.1,1.9,0.1,2.7h-3.7c0.1-0.9,0.1-1.6,0.1-2.7v-5.5
		c0-1.2,0-1.9-0.1-2.7H103.6z M103.6,10.8v2.7H100v-2.7H103.6z"/>
	<path class="st0" d="M105.5,25.7c0.1-0.8,0.1-1.6,0.1-2.7v-5.5c0-1.2,0-2-0.1-2.7h3.6v0.8c0,0.1,0,0.4,0,0.5
		c1.1-1.1,2.2-1.5,3.7-1.5c1.2,0,2.2,0.3,2.9,1c0.7,0.7,1,1.6,1,3V23c0,1,0.1,1.9,0.1,2.7h-3.7c0.1-0.9,0.1-1.6,0.1-2.7v-3.7
		c0-0.7-0.1-1-0.3-1.3c-0.2-0.3-0.6-0.5-1.2-0.5c-1,0-1.9,0.6-2.7,1.9V23c0,1,0,1.8,0.1,2.7H105.5z"/>
	<path class="st0" d="M120.1,14.4c0-0.9,0-1.6-0.1-2.4h3.6c-0.1,0.7-0.1,1.6-0.1,2.4v0.4h0.6c0.8,0,1.2,0,1.8-0.1v3
		c-0.5-0.1-1-0.1-1.6-0.1h-0.8v4.6c0,0.5,0.1,0.8,0.3,0.9c0.2,0.1,0.5,0.2,0.8,0.2c0.5,0,0.8-0.1,1.3-0.3l0.3,2.7
		c-0.8,0.2-1.5,0.4-2.5,0.4c-1.2,0-2.1-0.2-2.6-0.6c-0.7-0.5-0.9-1.1-0.9-2.3v-5.5h-0.7c-0.6,0-1,0-1.6,0.1v-3
		c0.5,0.1,1,0.1,1.6,0.1h0.6V14.4z"/>
</g>
<g>
	<path class="st0" d="M36.9,32.2C36.9,32.2,36.9,32.2,36.9,32.2C36.8,32.1,36.8,32.1,36.9,32.2l-0.1-2.8c0,0,0-0.1,0-0.1
		c0,0,0,0,0.1,0h1.7c0,0,0.1,0,0.1,0c0,0,0,0,0,0.1v0.2c0,0,0,0.1,0,0.1c0,0,0,0-0.1,0h-1.4v1h1.3c0,0,0.1,0,0.1,0c0,0,0,0,0,0.1
		v0.2c0,0,0,0.1,0,0.1c0,0,0,0-0.1,0h-1.3v1.1c0,0,0,0.1,0,0.1c0,0,0,0-0.1,0H36.9z"/>
	<path class="st0" d="M40,32.2C39.9,32.2,39.9,32.2,40,32.2C39.9,32.1,39.9,32.1,40,32.2l-0.1-2.5h-0.8c0,0,0,0-0.1,0c0,0,0,0,0-0.1
		v-0.2c0,0,0-0.1,0-0.1c0,0,0,0,0.1,0h2c0,0,0.1,0,0.1,0c0,0,0,0,0,0.1v0.2c0,0,0,0.1,0,0.1c0,0,0,0-0.1,0h-0.8v2.4c0,0,0,0.1,0,0.1
		c0,0,0,0-0.1,0H40z"/>
	<path class="st0" d="M41.7,32.2C41.7,32.2,41.6,32.2,41.7,32.2C41.6,32.1,41.6,32.1,41.7,32.2l-0.1-2.8c0,0,0-0.1,0-0.1
		c0,0,0,0,0.1,0h1.7c0,0,0.1,0,0.1,0c0,0,0,0,0,0.1v0.2c0,0,0,0.1,0,0.1c0,0,0,0-0.1,0H42v0.9h1.3c0,0,0.1,0,0.1,0c0,0,0,0,0,0.1
		v0.2c0,0,0,0.1,0,0.1c0,0,0,0-0.1,0H42v0.9h1.4c0,0,0.1,0,0.1,0c0,0,0,0,0,0.1v0.2c0,0,0,0.1,0,0.1c0,0,0,0-0.1,0H41.7z"/>
	<path class="st0" d="M45.1,33C45.1,33,45.1,33,45.1,33C45.1,33,45,33,45.1,33L45,28.6c0,0,0-0.1,0-0.1c0,0,0,0,0.1,0h0.2
		c0,0,0.1,0,0.1,0c0,0,0,0,0,0.1V33c0,0,0,0.1,0,0.1c0,0,0,0-0.1,0H45.1z"/>
	<path class="st0" d="M48.1,32.2c-0.2,0-0.4,0-0.6-0.1c-0.2-0.1-0.3-0.2-0.4-0.4C47,31.6,47,31.4,47,31.1c0-0.1,0-0.2,0-0.4
		c0-0.1,0-0.3,0-0.4c0-0.2,0.1-0.4,0.1-0.6c0.1-0.2,0.2-0.3,0.4-0.4c0.2-0.1,0.4-0.1,0.6-0.1c0.2,0,0.4,0,0.5,0.1
		c0.1,0.1,0.3,0.1,0.4,0.2c0.1,0.1,0.2,0.2,0.2,0.3c0,0.1,0.1,0.2,0.1,0.2c0,0,0,0,0,0.1c0,0,0,0-0.1,0h-0.2c0,0,0,0-0.1,0
		c0,0,0,0,0-0.1c0-0.1-0.1-0.1-0.1-0.2c-0.1-0.1-0.1-0.1-0.2-0.2c-0.1,0-0.2-0.1-0.4-0.1c-0.2,0-0.4,0.1-0.5,0.2
		c-0.1,0.1-0.2,0.3-0.2,0.6c0,0.2,0,0.5,0,0.7c0,0.3,0.1,0.5,0.2,0.6c0.1,0.1,0.3,0.2,0.5,0.2c0.1,0,0.3,0,0.4-0.1
		c0.1-0.1,0.2-0.1,0.3-0.2c0.1-0.1,0.1-0.3,0.1-0.4V31h-0.6c0,0,0,0-0.1,0c0,0,0,0,0-0.1v-0.1c0,0,0-0.1,0-0.1c0,0,0,0,0.1,0h0.9
		c0,0,0.1,0,0.1,0c0,0,0,0,0,0.1v0.4c0,0.2,0,0.4-0.1,0.6c-0.1,0.2-0.2,0.3-0.4,0.4C48.6,32.2,48.3,32.2,48.1,32.2z"/>
	<path class="st0" d="M49.9,32.2C49.9,32.2,49.9,32.2,49.9,32.2C49.9,32.1,49.9,32.1,49.9,32.2l-0.1-2.8c0,0,0-0.1,0-0.1
		c0,0,0,0,0.1,0h0.2c0,0,0.1,0,0.1,0c0,0,0,0,0,0.1v2.7c0,0,0,0.1,0,0.1c0,0,0,0-0.1,0H49.9z"/>
	<path class="st0" d="M52,32.2c-0.2,0-0.4,0-0.6-0.1c-0.2-0.1-0.3-0.2-0.4-0.4c-0.1-0.2-0.1-0.4-0.1-0.6c0-0.1,0-0.2,0-0.4
		c0-0.1,0-0.3,0-0.4c0-0.2,0.1-0.4,0.1-0.6c0.1-0.2,0.2-0.3,0.4-0.4c0.2-0.1,0.4-0.1,0.6-0.1c0.2,0,0.4,0,0.5,0.1
		c0.1,0.1,0.3,0.1,0.4,0.2c0.1,0.1,0.2,0.2,0.2,0.3c0,0.1,0.1,0.2,0.1,0.2c0,0,0,0,0,0.1c0,0,0,0-0.1,0h-0.2c0,0,0,0-0.1,0
		c0,0,0,0,0-0.1c0-0.1-0.1-0.1-0.1-0.2c-0.1-0.1-0.1-0.1-0.2-0.2c-0.1,0-0.2-0.1-0.4-0.1c-0.2,0-0.4,0.1-0.5,0.2
		c-0.1,0.1-0.2,0.3-0.2,0.6c0,0.2,0,0.5,0,0.7c0,0.3,0.1,0.5,0.2,0.6c0.1,0.1,0.3,0.2,0.5,0.2c0.1,0,0.3,0,0.4-0.1
		c0.1-0.1,0.2-0.1,0.3-0.2c0.1-0.1,0.1-0.3,0.1-0.4V31h-0.6c0,0,0,0-0.1,0c0,0,0,0,0-0.1v-0.1c0,0,0-0.1,0-0.1c0,0,0,0,0.1,0h0.9
		c0,0,0.1,0,0.1,0c0,0,0,0,0,0.1v0.4c0,0.2,0,0.4-0.1,0.6c-0.1,0.2-0.2,0.3-0.4,0.4C52.5,32.2,52.3,32.2,52,32.2z"/>
	<path class="st0" d="M54.8,33C54.8,33,54.8,33,54.8,33C54.7,33,54.7,33,54.8,33l-0.1-4.4c0,0,0-0.1,0-0.1c0,0,0,0,0.1,0H55
		c0,0,0.1,0,0.1,0c0,0,0,0,0,0.1V33c0,0,0,0.1,0,0.1c0,0,0,0-0.1,0H54.8z"/>
	<path class="st0" d="M57.8,32.2c-0.3,0-0.5,0-0.6-0.1c-0.2-0.1-0.3-0.2-0.4-0.4c-0.1-0.2-0.1-0.4-0.1-0.6c0-0.1,0-0.2,0-0.4
		c0-0.1,0-0.3,0-0.4c0-0.2,0.1-0.4,0.1-0.6c0.1-0.2,0.2-0.3,0.4-0.4c0.2-0.1,0.4-0.1,0.6-0.1c0.2,0,0.4,0,0.5,0.1
		c0.1,0.1,0.3,0.1,0.4,0.2c0.1,0.1,0.2,0.2,0.2,0.3c0,0.1,0.1,0.2,0.1,0.3c0,0,0,0,0,0.1c0,0,0,0-0.1,0h-0.2c0,0,0,0-0.1,0
		c0,0,0,0,0-0.1c0-0.2-0.1-0.4-0.3-0.4c-0.1-0.1-0.3-0.1-0.5-0.1c-0.2,0-0.4,0.1-0.5,0.2c-0.1,0.1-0.2,0.3-0.2,0.6
		c0,0.2,0,0.5,0,0.7c0,0.3,0.1,0.5,0.2,0.6c0.1,0.1,0.3,0.2,0.5,0.2c0.2,0,0.4,0,0.5-0.1c0.1-0.1,0.2-0.2,0.3-0.4c0,0,0-0.1,0-0.1
		c0,0,0,0,0.1,0h0.2c0,0,0,0,0.1,0c0,0,0,0,0,0.1c0,0.1,0,0.2-0.1,0.3c0,0.1-0.1,0.2-0.2,0.3c-0.1,0.1-0.2,0.2-0.4,0.2
		C58.1,32.2,58,32.2,57.8,32.2z"/>
	<path class="st0" d="M60.5,32.2c-0.2,0-0.4,0-0.6-0.1c-0.2-0.1-0.3-0.2-0.4-0.4c-0.1-0.2-0.1-0.4-0.2-0.6c0-0.1,0-0.2,0-0.3
		c0-0.1,0-0.2,0-0.3c0-0.3,0.1-0.5,0.2-0.6c0.1-0.2,0.2-0.3,0.4-0.4c0.2-0.1,0.4-0.1,0.6-0.1c0.2,0,0.4,0,0.6,0.1
		c0.2,0.1,0.3,0.2,0.4,0.4c0.1,0.2,0.1,0.4,0.2,0.6c0,0.1,0,0.2,0,0.3c0,0.1,0,0.2,0,0.3c0,0.3-0.1,0.5-0.1,0.6
		c-0.1,0.2-0.2,0.3-0.4,0.4C60.9,32.2,60.7,32.2,60.5,32.2z M60.5,31.9c0.2,0,0.4-0.1,0.5-0.2s0.2-0.3,0.2-0.6c0-0.1,0-0.2,0-0.3
		s0-0.2,0-0.3c0-0.2,0-0.3-0.1-0.5c-0.1-0.1-0.1-0.2-0.3-0.3c-0.1-0.1-0.2-0.1-0.4-0.1c-0.1,0-0.3,0-0.4,0.1
		c-0.1,0.1-0.2,0.1-0.3,0.3c-0.1,0.1-0.1,0.3-0.1,0.5c0,0.1,0,0.2,0,0.3s0,0.2,0,0.3c0,0.3,0.1,0.5,0.2,0.6
		C60.1,31.8,60.3,31.9,60.5,31.9z"/>
	<path class="st0" d="M62.3,32.2C62.3,32.2,62.3,32.2,62.3,32.2C62.3,32.1,62.2,32.1,62.3,32.2l-0.1-2.8c0,0,0-0.1,0-0.1
		c0,0,0,0,0.1,0h0.2c0,0,0.1,0,0.1,0c0,0,0,0,0,0l1.4,2.1v-2.1c0,0,0-0.1,0-0.1c0,0,0,0,0.1,0h0.2c0,0,0.1,0,0.1,0c0,0,0,0,0,0.1
		v2.7c0,0,0,0.1,0,0.1c0,0,0,0-0.1,0h-0.2c0,0-0.1,0-0.1,0c0,0,0,0,0,0l-1.4-2.1v2c0,0,0,0.1,0,0.1c0,0,0,0-0.1,0H62.3z"/>
	<path class="st0" d="M65.8,32.2C65.8,32.2,65.8,32.2,65.8,32.2C65.7,32.1,65.7,32.1,65.8,32.2l-0.1-2.5h-0.8c0,0,0,0-0.1,0
		c0,0,0,0,0-0.1v-0.2c0,0,0-0.1,0-0.1c0,0,0,0,0.1,0h2c0,0,0.1,0,0.1,0c0,0,0,0,0,0.1v0.2c0,0,0,0.1,0,0.1c0,0,0,0-0.1,0h-0.8v2.4
		c0,0,0,0.1,0,0.1c0,0,0,0-0.1,0H65.8z"/>
	<path class="st0" d="M67.6,32.2C67.5,32.2,67.5,32.2,67.6,32.2C67.5,32.1,67.5,32.1,67.6,32.2l-0.1-2.8c0,0,0-0.1,0-0.1
		c0,0,0,0,0.1,0h1c0.3,0,0.6,0.1,0.7,0.2c0.2,0.1,0.3,0.4,0.3,0.6c0,0.2-0.1,0.4-0.2,0.5c-0.1,0.1-0.2,0.2-0.4,0.3l0.6,1.1
		c0,0,0,0,0,0c0,0,0,0,0,0.1c0,0,0,0-0.1,0h-0.2c0,0-0.1,0-0.1,0s0,0-0.1-0.1l-0.6-1h-0.7v1.1c0,0,0,0.1,0,0.1c0,0,0,0-0.1,0H67.6z
		 M67.9,30.7h0.7c0.2,0,0.4,0,0.5-0.1c0.1-0.1,0.2-0.2,0.2-0.4c0-0.2,0-0.3-0.1-0.4c-0.1-0.1-0.3-0.1-0.5-0.1h-0.7V30.7z"/>
	<path class="st0" d="M70,32.2C69.9,32.2,69.9,32.2,70,32.2C69.9,32.2,69.9,32.1,70,32.2c-0.1-0.1-0.1-0.1-0.1-0.1l1-2.7
		c0,0,0,0,0-0.1c0,0,0,0,0.1,0h0.3c0,0,0.1,0,0.1,0c0,0,0,0,0,0.1l1,2.7c0,0,0,0,0,0c0,0,0,0,0,0.1c0,0,0,0-0.1,0h-0.2
		c0,0-0.1,0-0.1,0c0,0,0,0,0,0l-0.2-0.6h-1.3l-0.2,0.6c0,0,0,0,0,0c0,0,0,0-0.1,0H70z M70.6,31.2h1.1l-0.6-1.5L70.6,31.2z"/>
	<path class="st0" d="M73.9,32.2c-0.3,0-0.5,0-0.6-0.1c-0.2-0.1-0.3-0.2-0.4-0.4c-0.1-0.2-0.1-0.4-0.1-0.6c0-0.1,0-0.2,0-0.4
		c0-0.1,0-0.3,0-0.4c0-0.2,0.1-0.4,0.1-0.6c0.1-0.2,0.2-0.3,0.4-0.4s0.4-0.1,0.6-0.1c0.2,0,0.4,0,0.5,0.1c0.1,0.1,0.3,0.1,0.4,0.2
		c0.1,0.1,0.2,0.2,0.2,0.3c0,0.1,0.1,0.2,0.1,0.3c0,0,0,0,0,0.1c0,0,0,0-0.1,0h-0.2c0,0,0,0-0.1,0c0,0,0,0,0-0.1
		c0-0.2-0.1-0.4-0.3-0.4c-0.1-0.1-0.3-0.1-0.5-0.1c-0.2,0-0.4,0.1-0.5,0.2c-0.1,0.1-0.2,0.3-0.2,0.6c0,0.2,0,0.5,0,0.7
		c0,0.3,0.1,0.5,0.2,0.6c0.1,0.1,0.3,0.2,0.5,0.2c0.2,0,0.4,0,0.5-0.1c0.1-0.1,0.2-0.2,0.3-0.4c0,0,0-0.1,0-0.1c0,0,0,0,0.1,0H75
		c0,0,0,0,0.1,0c0,0,0,0,0,0.1c0,0.1,0,0.2-0.1,0.3s-0.1,0.2-0.2,0.3c-0.1,0.1-0.2,0.2-0.4,0.2C74.2,32.2,74.1,32.2,73.9,32.2z"/>
	<path class="st0" d="M76.3,32.2C76.3,32.2,76.3,32.2,76.3,32.2C76.2,32.1,76.2,32.1,76.3,32.2l-0.1-2.5h-0.8c0,0-0.1,0-0.1,0
		c0,0,0,0,0-0.1v-0.2c0,0,0-0.1,0-0.1c0,0,0,0,0.1,0h2c0,0,0.1,0,0.1,0c0,0,0,0,0,0.1v0.2c0,0,0,0.1,0,0.1c0,0,0,0-0.1,0h-0.8v2.4
		c0,0,0,0.1,0,0.1c0,0,0,0-0.1,0H76.3z"/>
	<path class="st0" d="M79,32.2c-0.2,0-0.4,0-0.6-0.1c-0.2-0.1-0.3-0.2-0.4-0.4c-0.1-0.2-0.1-0.4-0.1-0.7v-1.7c0,0,0-0.1,0-0.1
		c0,0,0,0,0.1,0h0.2c0,0,0.1,0,0.1,0c0,0,0,0,0,0.1v1.7c0,0.3,0.1,0.5,0.2,0.6c0.1,0.1,0.3,0.2,0.5,0.2c0.2,0,0.4-0.1,0.5-0.2
		c0.1-0.1,0.2-0.3,0.2-0.6v-1.7c0,0,0-0.1,0-0.1c0,0,0,0,0.1,0h0.2c0,0,0.1,0,0.1,0c0,0,0,0,0,0.1v1.7c0,0.3,0,0.5-0.1,0.7
		c-0.1,0.2-0.2,0.3-0.4,0.4C79.5,32.2,79.3,32.2,79,32.2z"/>
	<path class="st0" d="M80.6,32.2C80.6,32.2,80.6,32.2,80.6,32.2C80.5,32.2,80.5,32.1,80.6,32.2c-0.1-0.1-0.1-0.1-0.1-0.1l1-2.7
		c0,0,0,0,0-0.1c0,0,0,0,0.1,0h0.3c0,0,0.1,0,0.1,0c0,0,0,0,0,0.1l1,2.7c0,0,0,0,0,0c0,0,0,0,0,0.1c0,0,0,0-0.1,0h-0.2
		c0,0-0.1,0-0.1,0c0,0,0,0,0,0l-0.2-0.6h-1.3l-0.2,0.6c0,0,0,0,0,0c0,0,0,0-0.1,0H80.6z M81.2,31.2h1.1l-0.6-1.5L81.2,31.2z"/>
	<path class="st0" d="M83.6,32.2C83.6,32.2,83.6,32.2,83.6,32.2C83.5,32.1,83.5,32.1,83.6,32.2l-0.1-2.8c0,0,0-0.1,0-0.1
		c0,0,0,0,0.1,0h0.2c0,0,0.1,0,0.1,0c0,0,0,0,0,0.1v2.4h1.4c0,0,0.1,0,0.1,0c0,0,0,0,0,0.1v0.2c0,0,0,0.1,0,0.1c0,0,0,0-0.1,0H83.6z
		"/>
	<path class="st0" d="M86.8,33C86.8,33,86.7,33,86.8,33C86.7,33,86.7,33,86.8,33l-0.1-4.4c0,0,0-0.1,0-0.1c0,0,0,0,0.1,0h0.2
		c0,0,0.1,0,0.1,0c0,0,0,0,0,0.1V33c0,0,0,0.1,0,0.1c0,0,0,0-0.1,0H86.8z"/>
	<path class="st0" d="M89.6,32.2c-0.2,0-0.4,0-0.6-0.1c-0.2-0.1-0.3-0.2-0.4-0.3c-0.1-0.1-0.1-0.2-0.1-0.4c0,0,0,0,0-0.1
		c0,0,0,0,0.1,0h0.2c0,0,0.1,0,0.1,0c0,0,0,0,0,0.1c0,0.1,0,0.1,0.1,0.2c0.1,0.1,0.1,0.1,0.2,0.2c0.1,0,0.2,0.1,0.4,0.1
		c0.2,0,0.4,0,0.5-0.1c0.1-0.1,0.2-0.2,0.2-0.3c0-0.1,0-0.2-0.1-0.2c-0.1-0.1-0.1-0.1-0.3-0.2c-0.1,0-0.3-0.1-0.5-0.2
		c-0.2-0.1-0.4-0.1-0.5-0.2c-0.1-0.1-0.2-0.2-0.3-0.3s-0.1-0.2-0.1-0.4c0-0.1,0-0.3,0.1-0.4c0.1-0.1,0.2-0.2,0.3-0.3
		c0.1-0.1,0.3-0.1,0.5-0.1c0.2,0,0.3,0,0.4,0.1c0.1,0,0.2,0.1,0.3,0.2c0.1,0.1,0.1,0.2,0.2,0.2c0,0.1,0.1,0.2,0.1,0.3c0,0,0,0,0,0.1
		c0,0,0,0-0.1,0h-0.2c0,0,0,0-0.1,0c0,0,0,0,0-0.1c0-0.1-0.1-0.2-0.2-0.3c-0.1-0.1-0.3-0.1-0.4-0.1c-0.2,0-0.3,0-0.4,0.1
		c-0.1,0.1-0.2,0.2-0.2,0.3c0,0.1,0,0.2,0.1,0.2c0.1,0.1,0.1,0.1,0.2,0.2c0.1,0,0.3,0.1,0.4,0.1c0.2,0.1,0.4,0.1,0.5,0.2
		c0.1,0.1,0.2,0.2,0.3,0.3c0.1,0.1,0.1,0.2,0.1,0.4c0,0.2,0,0.3-0.1,0.4c-0.1,0.1-0.2,0.2-0.4,0.3C90,32.2,89.8,32.2,89.6,32.2z"/>
	<path class="st0" d="M91.9,32.2C91.9,32.2,91.9,32.2,91.9,32.2C91.9,32.1,91.8,32.1,91.9,32.2l-0.1-2.5h-0.8c0,0-0.1,0-0.1,0
		c0,0,0,0,0-0.1v-0.2c0,0,0-0.1,0-0.1c0,0,0,0,0.1,0h2c0,0,0.1,0,0.1,0c0,0,0,0,0,0.1v0.2c0,0,0,0.1,0,0.1c0,0,0,0-0.1,0h-0.8v2.4
		c0,0,0,0.1,0,0.1c0,0,0,0-0.1,0H91.9z"/>
	<path class="st0" d="M93.1,32.2C93.1,32.2,93.1,32.2,93.1,32.2C93,32.2,93,32.1,93.1,32.2C93,32.1,93,32.1,93,32.1l1-2.7
		c0,0,0,0,0-0.1c0,0,0,0,0.1,0h0.3c0,0,0.1,0,0.1,0c0,0,0,0,0,0.1l1,2.7c0,0,0,0,0,0c0,0,0,0,0,0.1c0,0,0,0-0.1,0h-0.2
		c0,0-0.1,0-0.1,0c0,0,0,0,0,0L95,31.5h-1.3l-0.2,0.6c0,0,0,0,0,0c0,0,0,0-0.1,0H93.1z M93.8,31.2h1.1l-0.6-1.5L93.8,31.2z"/>
	<path class="st0" d="M96.1,32.2C96.1,32.2,96.1,32.2,96.1,32.2C96.1,32.1,96,32.1,96.1,32.2L96,29.4c0,0,0-0.1,0-0.1c0,0,0,0,0.1,0
		h1.7c0,0,0.1,0,0.1,0c0,0,0,0,0,0.1v0.2c0,0,0,0.1,0,0.1c0,0,0,0-0.1,0h-1.4v1h1.3c0,0,0.1,0,0.1,0c0,0,0,0,0,0.1v0.2
		c0,0,0,0.1,0,0.1c0,0,0,0-0.1,0h-1.3v1.1c0,0,0,0.1,0,0.1c0,0,0,0-0.1,0H96.1z"/>
	<path class="st0" d="M98.5,32.2C98.5,32.2,98.5,32.2,98.5,32.2C98.4,32.1,98.4,32.1,98.5,32.2l-0.1-2.8c0,0,0-0.1,0-0.1
		c0,0,0,0,0.1,0h1.7c0,0,0.1,0,0.1,0c0,0,0,0,0,0.1v0.2c0,0,0,0.1,0,0.1s0,0-0.1,0h-1.4v1h1.3c0,0,0.1,0,0.1,0c0,0,0,0,0,0.1v0.2
		c0,0,0,0.1,0,0.1c0,0,0,0-0.1,0h-1.3v1.1c0,0,0,0.1,0,0.1c0,0,0,0-0.1,0H98.5z"/>
	<path class="st0" d="M100.9,32.2C100.9,32.2,100.9,32.2,100.9,32.2C100.8,32.1,100.8,32.1,100.9,32.2l-0.1-2.8c0,0,0-0.1,0-0.1
		c0,0,0,0,0.1,0h0.2c0,0,0.1,0,0.1,0c0,0,0,0,0,0.1v2.7c0,0,0,0.1,0,0.1c0,0,0,0-0.1,0H100.9z"/>
	<path class="st0" d="M102.1,32.2C102,32.2,102,32.2,102.1,32.2C102,32.1,102,32.1,102.1,32.2l-0.1-2.8c0,0,0-0.1,0-0.1
		c0,0,0,0,0.1,0h0.2c0,0,0.1,0,0.1,0c0,0,0,0,0,0l1.4,2.1v-2.1c0,0,0-0.1,0-0.1c0,0,0,0,0.1,0h0.2c0,0,0.1,0,0.1,0c0,0,0,0,0,0.1
		v2.7c0,0,0,0.1,0,0.1c0,0,0,0-0.1,0h-0.2c0,0-0.1,0-0.1,0c0,0,0,0,0,0l-1.4-2.1v2c0,0,0,0.1,0,0.1c0,0,0,0-0.1,0H102.1z"/>
	<path class="st0" d="M105.8,32.2c-0.2,0-0.4,0-0.6-0.1c-0.2-0.1-0.3-0.2-0.4-0.4c-0.1-0.2-0.1-0.4-0.1-0.6c0-0.1,0-0.2,0-0.4
		c0-0.1,0-0.3,0-0.4c0-0.2,0.1-0.4,0.1-0.6s0.2-0.3,0.4-0.4c0.2-0.1,0.4-0.1,0.6-0.1c0.2,0,0.4,0,0.5,0.1c0.1,0.1,0.3,0.1,0.4,0.2
		c0.1,0.1,0.2,0.2,0.2,0.3c0,0.1,0.1,0.2,0.1,0.2c0,0,0,0,0,0.1c0,0,0,0-0.1,0h-0.2c0,0,0,0-0.1,0c0,0,0,0,0-0.1
		c0-0.1-0.1-0.1-0.1-0.2c-0.1-0.1-0.1-0.1-0.2-0.2c-0.1,0-0.2-0.1-0.4-0.1c-0.2,0-0.4,0.1-0.5,0.2c-0.1,0.1-0.2,0.3-0.2,0.6
		c0,0.2,0,0.5,0,0.7c0,0.3,0.1,0.5,0.2,0.6c0.1,0.1,0.3,0.2,0.5,0.2c0.1,0,0.3,0,0.4-0.1c0.1-0.1,0.2-0.1,0.3-0.2
		c0.1-0.1,0.1-0.3,0.1-0.4V31H106c0,0-0.1,0-0.1,0c0,0,0,0,0-0.1v-0.1c0,0,0-0.1,0-0.1c0,0,0,0,0.1,0h0.9c0,0,0.1,0,0.1,0
		c0,0,0,0,0,0.1v0.4c0,0.2,0,0.4-0.1,0.6c-0.1,0.2-0.2,0.3-0.4,0.4C106.3,32.2,106.1,32.2,105.8,32.2z"/>
	<path class="st0" d="M109.5,32.2c-0.2,0-0.4,0-0.6-0.1c-0.2-0.1-0.3-0.2-0.4-0.3c-0.1-0.1-0.1-0.2-0.1-0.4c0,0,0,0,0-0.1
		c0,0,0,0,0.1,0h0.2c0,0,0.1,0,0.1,0s0,0,0,0.1c0,0.1,0,0.1,0.1,0.2c0.1,0.1,0.1,0.1,0.2,0.2c0.1,0,0.2,0.1,0.4,0.1
		c0.2,0,0.4,0,0.5-0.1c0.1-0.1,0.2-0.2,0.2-0.3c0-0.1,0-0.2-0.1-0.2c-0.1-0.1-0.1-0.1-0.3-0.2c-0.1,0-0.3-0.1-0.5-0.2
		c-0.2-0.1-0.4-0.1-0.5-0.2c-0.1-0.1-0.2-0.2-0.3-0.3s-0.1-0.2-0.1-0.4c0-0.1,0-0.3,0.1-0.4c0.1-0.1,0.2-0.2,0.3-0.3
		c0.1-0.1,0.3-0.1,0.5-0.1c0.2,0,0.3,0,0.4,0.1c0.1,0,0.2,0.1,0.3,0.2c0.1,0.1,0.1,0.2,0.2,0.2c0,0.1,0.1,0.2,0.1,0.3c0,0,0,0,0,0.1
		c0,0,0,0-0.1,0h-0.2c0,0,0,0-0.1,0c0,0,0,0,0-0.1c0-0.1-0.1-0.2-0.2-0.3c-0.1-0.1-0.3-0.1-0.4-0.1c-0.2,0-0.3,0-0.4,0.1
		c-0.1,0.1-0.2,0.2-0.2,0.3c0,0.1,0,0.2,0.1,0.2c0.1,0.1,0.1,0.1,0.2,0.2c0.1,0,0.3,0.1,0.4,0.1c0.2,0.1,0.4,0.1,0.5,0.2
		c0.1,0.1,0.2,0.2,0.3,0.3c0.1,0.1,0.1,0.2,0.1,0.4c0,0.2,0,0.3-0.1,0.4c-0.1,0.1-0.2,0.2-0.4,0.3C109.9,32.2,109.7,32.2,109.5,32.2
		z"/>
	<path class="st0" d="M112.2,32.2c-0.2,0-0.4,0-0.6-0.1s-0.3-0.2-0.4-0.4c-0.1-0.2-0.1-0.4-0.2-0.6c0-0.1,0-0.2,0-0.3
		c0-0.1,0-0.2,0-0.3c0-0.3,0.1-0.5,0.2-0.6c0.1-0.2,0.2-0.3,0.4-0.4c0.2-0.1,0.4-0.1,0.6-0.1c0.2,0,0.4,0,0.6,0.1
		c0.2,0.1,0.3,0.2,0.4,0.4c0.1,0.2,0.1,0.4,0.2,0.6c0,0.1,0,0.2,0,0.3c0,0.1,0,0.2,0,0.3c0,0.3-0.1,0.5-0.1,0.6
		c-0.1,0.2-0.2,0.3-0.4,0.4C112.6,32.2,112.4,32.2,112.2,32.2z M112.2,31.9c0.2,0,0.4-0.1,0.5-0.2c0.1-0.1,0.2-0.3,0.2-0.6
		c0-0.1,0-0.2,0-0.3s0-0.2,0-0.3c0-0.2,0-0.3-0.1-0.5c-0.1-0.1-0.1-0.2-0.3-0.3c-0.1-0.1-0.2-0.1-0.4-0.1c-0.1,0-0.3,0-0.4,0.1
		c-0.1,0.1-0.2,0.1-0.3,0.3c-0.1,0.1-0.1,0.3-0.1,0.5c0,0.1,0,0.2,0,0.3s0,0.2,0,0.3c0,0.3,0.1,0.5,0.2,0.6S112,31.9,112.2,31.9z"/>
	<path class="st0" d="M114,32.2C114,32.2,114,32.2,114,32.2C113.9,32.1,113.9,32.1,114,32.2l-0.1-2.8c0,0,0-0.1,0-0.1c0,0,0,0,0.1,0
		h0.2c0,0,0.1,0,0.1,0c0,0,0,0,0,0.1v2.4h1.4c0,0,0.1,0,0.1,0c0,0,0,0,0,0.1v0.2c0,0,0,0.1,0,0.1c0,0,0,0-0.1,0H114z"/>
	<path class="st0" d="M117.3,32.2c-0.2,0-0.4,0-0.6-0.1c-0.2-0.1-0.3-0.2-0.4-0.4c-0.1-0.2-0.1-0.4-0.1-0.7v-1.7c0,0,0-0.1,0-0.1
		c0,0,0,0,0.1,0h0.2c0,0,0.1,0,0.1,0c0,0,0,0,0,0.1v1.7c0,0.3,0.1,0.5,0.2,0.6c0.1,0.1,0.3,0.2,0.5,0.2c0.2,0,0.4-0.1,0.5-0.2
		c0.1-0.1,0.2-0.3,0.2-0.6v-1.7c0,0,0-0.1,0-0.1c0,0,0,0,0.1,0h0.2c0,0,0.1,0,0.1,0c0,0,0,0,0,0.1v1.7c0,0.3,0,0.5-0.1,0.7
		c-0.1,0.2-0.2,0.3-0.4,0.4C117.7,32.2,117.5,32.2,117.3,32.2z"/>
	<path class="st0" d="M119.8,32.2C119.7,32.2,119.7,32.2,119.8,32.2C119.7,32.1,119.7,32.1,119.8,32.2l-0.1-2.5h-0.8
		c0,0-0.1,0-0.1,0c0,0,0,0,0-0.1v-0.2c0,0,0-0.1,0-0.1c0,0,0,0,0.1,0h2c0,0,0.1,0,0.1,0c0,0,0,0,0,0.1v0.2c0,0,0,0.1,0,0.1
		c0,0,0,0-0.1,0h-0.8v2.4c0,0,0,0.1,0,0.1c0,0,0,0-0.1,0H119.8z"/>
	<path class="st0" d="M121.5,32.2C121.5,32.2,121.5,32.2,121.5,32.2C121.4,32.1,121.4,32.1,121.5,32.2l-0.1-2.8c0,0,0-0.1,0-0.1
		c0,0,0,0,0.1,0h0.2c0,0,0.1,0,0.1,0c0,0,0,0,0,0.1v2.7c0,0,0,0.1,0,0.1c0,0,0,0-0.1,0H121.5z"/>
	<path class="st0" d="M123.6,32.2c-0.2,0-0.4,0-0.6-0.1s-0.3-0.2-0.4-0.4c-0.1-0.2-0.1-0.4-0.2-0.6c0-0.1,0-0.2,0-0.3
		c0-0.1,0-0.2,0-0.3c0-0.3,0.1-0.5,0.2-0.6c0.1-0.2,0.2-0.3,0.4-0.4c0.2-0.1,0.4-0.1,0.6-0.1c0.2,0,0.4,0,0.6,0.1
		c0.2,0.1,0.3,0.2,0.4,0.4c0.1,0.2,0.1,0.4,0.2,0.6c0,0.1,0,0.2,0,0.3c0,0.1,0,0.2,0,0.3c0,0.3-0.1,0.5-0.1,0.6
		c-0.1,0.2-0.2,0.3-0.4,0.4C124,32.2,123.8,32.2,123.6,32.2z M123.6,31.9c0.2,0,0.4-0.1,0.5-0.2c0.1-0.1,0.2-0.3,0.2-0.6
		c0-0.1,0-0.2,0-0.3s0-0.2,0-0.3c0-0.2,0-0.3-0.1-0.5c-0.1-0.1-0.1-0.2-0.3-0.3c-0.1-0.1-0.2-0.1-0.4-0.1c-0.1,0-0.3,0-0.4,0.1
		c-0.1,0.1-0.2,0.1-0.3,0.3c-0.1,0.1-0.1,0.3-0.1,0.5c0,0.1,0,0.2,0,0.3s0,0.2,0,0.3c0,0.3,0.1,0.5,0.2,0.6
		C123.2,31.8,123.4,31.9,123.6,31.9z"/>
	<path class="st0" d="M125.4,32.2C125.4,32.2,125.4,32.2,125.4,32.2C125.3,32.1,125.3,32.1,125.4,32.2l-0.1-2.8c0,0,0-0.1,0-0.1
		c0,0,0,0,0.1,0h0.2c0,0,0.1,0,0.1,0c0,0,0,0,0,0l1.4,2.1v-2.1c0,0,0-0.1,0-0.1c0,0,0,0,0.1,0h0.2c0,0,0.1,0,0.1,0c0,0,0,0,0,0.1
		v2.7c0,0,0,0.1,0,0.1c0,0,0,0-0.1,0h-0.2c0,0-0.1,0-0.1,0c0,0,0,0,0,0l-1.4-2.1v2c0,0,0,0.1,0,0.1c0,0,0,0-0.1,0H125.4z"/>
</g>
</svg>
