<?xml version="1.0" encoding="utf-8"?>
<!-- Generator: Adobe Illustrator 23.1.1, SVG Export Plug-In . SVG Version: 6.00 Build 0)  -->
<svg version="1.1" id="Layer_1" xmlns="http://www.w3.org/2000/svg" xmlns:xlink="http://www.w3.org/1999/xlink" x="0px" y="0px"
	 viewBox="0 0 133 40" style="enable-background:new 0 0 133 40;" xml:space="preserve">
<style type="text/css">
	.st0{fill:#222222;}
</style>
<path class="st0" d="M31.6,24.6c0,2.7-0.8,5.2-2.3,7.2c-2.3,3.3-6.1,5.4-10.4,5.3c-6.5-0.1-12-5.4-12.2-11.9c-0.1-2,0.3-3.9,1-5.6
	L7.9,7.9c0-1.1,0.9-1.9,2-1.9c1.1,0,2,0.9,2,1.9v0.1l-0.2,6.7c0.1-0.1,0.3-0.2,0.4-0.3l2.9-9.5c0.3-1,1.4-1.6,2.4-1.3
	c0.9,0.2,1.4,1,1.4,1.9c0,0.2,0,0.4-0.1,0.6l-1.9,6.4l0,0c0.1,0,0.3-0.1,0.4-0.1L22,3.8c0.6-0.9,1.7-1.2,2.7-0.7c0.6,0.4,1,1,1,1.7
	c0,0.4-0.1,0.7-0.3,1l-3.5,6.6c0.5,0.1,1,0.2,1.4,0.4c0.7,0.2,1.3,0.5,1.9,0.8c1.6,0.9,2.9,2.2,4.2,3.9c0.5,0.8,0.4,1.3,0.2,1.8
	c-0.1,0.4-0.2,0.7-0.5,1c-0.4,0.4-0.9,0.6-1.4,0.6c-0.4,0-0.9-0.1-1.2-0.4c0,0,0,0,0,0c-0.1,0-0.1-0.1-0.1-0.1l-1-1
	c-0.4-0.6-0.9-1.1-1.5-1.5c-1.4-1-3-1.4-5.2-1.2c-3.7,0.3-7.3,3.5-7.8,7.2c-0.6,5.3,3.7,9.8,9,9.3c3.6-0.3,6.6-3.1,7.3-6.7
	c0.1-0.4,0.1-0.7,0.1-1.1c0-0.3,0-0.6,0-0.8v-0.6c0-0.4,0.1-0.7,0.2-1c0.4-0.7,1.1-1.1,1.9-1.1c0.2,0,0.5,0,0.7,0.1
	c0.3,0.1,0.6,0.3,0.8,0.5c0.3,0.3,0.5,0.6,0.6,1C31.6,23.9,31.6,24.2,31.6,24.6z"/>
<path class="st0" d="M17.8,17.4c0.5-0.1,1.6-0.2,2.6,0c0.2,0,0.3,0.2,0.2,0.4l-0.8,1.3c0,0.1,0,0.1,0,0.2l1.9,9.9
	c0,0.1,0,0.2-0.1,0.2l-2.3,2.2c-0.1,0.1-0.2,0.1-0.3,0l-2.4-2.2c-0.1-0.1-0.1-0.1-0.1-0.2l1.9-10c0-0.1,0-0.1,0-0.2l-0.7-1.2
	C17.6,17.7,17.6,17.5,17.8,17.4z"/>
<g>
	<path class="st0" d="M45.8,24.9c-0.1-0.5-0.3-1.2-0.8-2.7c-0.5-1.5-0.8-1.9-1.2-2.3c-0.4-0.3-0.8-0.5-1.3-0.5h-1.7v2.8
		c0,1.2,0,1.8,0.1,2.6h-3.7c0.1-0.8,0.1-1.3,0.1-2.6v-9.2c0-1.1,0-1.7-0.1-2.5c0.8,0,1.4,0.1,2.5,0.1h4.4c2.8,0,4.4,1.4,4.4,3.9
		c0,1.2-0.3,2.2-1,2.8c-0.4,0.4-0.8,0.6-1.6,0.9c0.9,0.3,1.3,0.7,1.8,1.9c0.3,0.5,0.5,1.1,1.3,3c0.2,0.5,0.4,0.9,0.8,1.8H45.8z
		 M43.3,16.6c1,0,1.6-0.6,1.6-1.6c0-1-0.5-1.5-1.6-1.5h-2.7v3H43.3z"/>
	<path class="st0" d="M54.6,14.5c-0.1,0.7-0.1,1.4-0.1,2.6v5.3c0,0.9,0.1,1.8,0.1,2.6H51c0.1-0.8,0.1-1.5,0.1-2.6v-5.3
		c0-1.1,0-1.8-0.1-2.6H54.6z M54.5,10.7v2.6h-3.5v-2.6H54.5z"/>
	<path class="st0" d="M57.7,14.2c0-0.9,0-1.5-0.1-2.3h3.5C61,12.5,61,13.4,61,14.2v0.4h0.6c0.8,0,1.1,0,1.7-0.1v2.8
		c-0.5-0.1-1-0.1-1.6-0.1H61v4.4c0,0.5,0.1,0.7,0.3,0.9c0.2,0.1,0.5,0.2,0.8,0.2c0.4,0,0.8-0.1,1.2-0.3l0.3,2.6
		c-0.8,0.2-1.4,0.3-2.4,0.3c-1.2,0-2-0.2-2.5-0.6c-0.6-0.5-0.9-1.1-0.9-2.2v-5.2h-0.6c-0.5,0-1,0-1.5,0.1v-2.9
		c0.5,0.1,0.9,0.1,1.5,0.1h0.6V14.2z"/>
	<path class="st0" d="M67.3,20.7c0.2,1.4,1,2.1,2.3,2.1c0.7,0,1.3-0.2,1.7-0.6c0.3-0.2,0.4-0.4,0.5-0.9l3,0.8
		c-0.4,0.9-0.6,1.3-1.1,1.8c-1,1-2.3,1.5-4,1.5c-1.7,0-3-0.5-4-1.5c-1-1-1.6-2.5-1.6-4.2c0-3.4,2.2-5.6,5.4-5.6c2.7,0,4.5,1.5,5.1,4
		c0.1,0.5,0.2,1.3,0.3,2.2c0,0.1,0,0.2,0,0.3H67.3z M71.7,18.3c-0.2-1.1-1-1.7-2.2-1.7c-1.2,0-1.9,0.5-2.2,1.7H71.7z"/>
	<path class="st0" d="M79.6,20.3c0.1,0.6,0.2,0.9,0.4,1.3c0.4,0.5,1.1,0.8,2,0.8c1.3,0,2.1-0.6,2.1-1.5c0-0.5-0.3-1-0.7-1.2
		c-0.4-0.2-0.8-0.3-2.6-0.7c-1.6-0.3-2.1-0.5-2.7-1c-1.1-0.8-1.7-1.9-1.7-3.3c0-2.6,2.1-4.3,5.5-4.3c2.2,0,3.8,0.7,4.7,1.9
		c0.4,0.6,0.6,1.1,0.9,2l-3.6,0.4c-0.2-1.1-0.8-1.6-2.1-1.6c-1,0-1.8,0.6-1.8,1.3c0,0.5,0.3,0.8,0.8,1.1c0.3,0.2,0.3,0.2,2.4,0.6
		c1.3,0.3,2.1,0.6,2.8,1c1.2,0.8,1.8,1.9,1.8,3.5c0,1.3-0.4,2.4-1.2,3.1c-1,1-2.5,1.5-4.5,1.5c-1.5,0-2.9-0.3-3.8-0.8
		c-0.9-0.5-1.5-1.2-1.8-2.2c-0.2-0.4-0.3-0.8-0.4-1.6L79.6,20.3z"/>
	<path class="st0" d="M90.7,14.2c0-0.9,0-1.5-0.1-2.3h3.5c-0.1,0.7-0.1,1.5-0.1,2.3v0.4h0.6c0.8,0,1.1,0,1.7-0.1v2.8
		c-0.5-0.1-1-0.1-1.6-0.1h-0.7v4.4c0,0.5,0.1,0.7,0.3,0.9c0.2,0.1,0.5,0.2,0.8,0.2c0.4,0,0.8-0.1,1.2-0.3l0.3,2.6
		c-0.8,0.2-1.4,0.3-2.4,0.3c-1.2,0-2-0.2-2.5-0.6c-0.6-0.5-0.9-1.1-0.9-2.2v-5.2h-0.6c-0.5,0-1,0-1.5,0.1v-2.9
		c0.5,0.1,0.9,0.1,1.5,0.1h0.6V14.2z"/>
	<path class="st0" d="M101.1,14.5c-0.1,0.7-0.1,1.4-0.1,2.6v5.3c0,0.9,0.1,1.8,0.1,2.6h-3.6c0.1-0.8,0.1-1.5,0.1-2.6v-5.3
		c0-1.1,0-1.8-0.1-2.6H101.1z M101.1,10.7v2.6h-3.5v-2.6H101.1z"/>
	<path class="st0" d="M102.9,24.9c0.1-0.8,0.1-1.5,0.1-2.6v-5.3c0-1.2,0-1.9-0.1-2.6h3.4v0.7c0,0.1,0,0.4,0,0.5
		c1.1-1,2.1-1.5,3.5-1.5c1.2,0,2.1,0.3,2.7,1c0.7,0.7,1,1.5,1,2.9v4.3c0,1,0.1,1.8,0.1,2.6h-3.6c0.1-0.8,0.1-1.5,0.1-2.6v-3.5
		c0-0.7-0.1-1-0.3-1.3c-0.2-0.3-0.6-0.5-1.1-0.5c-1,0-1.8,0.6-2.5,1.8v3.4c0,1,0,1.7,0.1,2.6H102.9z"/>
	<path class="st0" d="M116.8,14.2c0-0.9,0-1.5-0.1-2.3h3.5c-0.1,0.7-0.1,1.5-0.1,2.3v0.4h0.6c0.8,0,1.1,0,1.7-0.1v2.8
		c-0.5-0.1-1-0.1-1.6-0.1H120v4.4c0,0.5,0.1,0.7,0.3,0.9c0.2,0.1,0.5,0.2,0.8,0.2c0.4,0,0.8-0.1,1.2-0.3l0.3,2.6
		c-0.8,0.2-1.4,0.3-2.4,0.3c-1.2,0-2-0.2-2.5-0.6c-0.6-0.5-0.9-1.1-0.9-2.2v-5.2h-0.6c-0.5,0-1,0-1.5,0.1v-2.9
		c0.5,0.1,0.9,0.1,1.5,0.1h0.6V14.2z"/>
</g>
<g>
	<path class="st0" d="M37.4,31.2C37.4,31.2,37.3,31.2,37.4,31.2C37.3,31.1,37.3,31.1,37.4,31.2l-0.1-2.7c0,0,0-0.1,0-0.1
		c0,0,0,0,0.1,0H39c0,0,0.1,0,0.1,0c0,0,0,0,0,0.1v0.2c0,0,0,0.1,0,0.1s0,0-0.1,0h-1.3v0.9h1.2c0,0,0.1,0,0.1,0c0,0,0,0,0,0.1v0.2
		c0,0,0,0,0,0.1c0,0,0,0-0.1,0h-1.2v1.1c0,0,0,0,0,0.1s0,0-0.1,0H37.4z"/>
	<path class="st0" d="M40.3,31.2C40.2,31.2,40.2,31.2,40.3,31.2C40.2,31.1,40.2,31.1,40.3,31.2l-0.1-2.4h-0.8c0,0,0,0-0.1,0
		c0,0,0,0,0-0.1v-0.2c0,0,0-0.1,0-0.1c0,0,0,0,0.1,0h1.9c0,0,0.1,0,0.1,0c0,0,0,0,0,0.1v0.2c0,0,0,0,0,0.1c0,0,0,0-0.1,0h-0.7v2.3
		c0,0,0,0,0,0.1s0,0-0.1,0H40.3z"/>
	<path class="st0" d="M41.9,31.2C41.9,31.2,41.9,31.2,41.9,31.2C41.9,31.1,41.9,31.1,41.9,31.2l-0.1-2.7c0,0,0-0.1,0-0.1
		c0,0,0,0,0.1,0h1.6c0,0,0.1,0,0.1,0c0,0,0,0,0,0.1v0.1c0,0,0,0.1,0,0.1s0,0-0.1,0h-1.3v0.9h1.2c0,0,0.1,0,0.1,0c0,0,0,0,0,0.1v0.1
		c0,0,0,0,0,0.1c0,0,0,0-0.1,0h-1.2v0.9h1.4c0,0,0.1,0,0.1,0c0,0,0,0,0,0.1v0.2c0,0,0,0,0,0.1c0,0,0,0-0.1,0H41.9z"/>
	<path class="st0" d="M45.2,32C45.2,32,45.2,32,45.2,32C45.1,31.9,45.1,31.9,45.2,32l-0.1-4.2c0,0,0,0,0-0.1c0,0,0,0,0.1,0h0.2
		c0,0,0,0,0.1,0c0,0,0,0,0,0.1v4.1c0,0,0,0,0,0.1c0,0,0,0-0.1,0H45.2z"/>
	<path class="st0" d="M48.1,31.2c-0.2,0-0.4,0-0.6-0.1c-0.2-0.1-0.3-0.2-0.4-0.4C47,30.6,47,30.4,47,30.2c0-0.1,0-0.2,0-0.4
		c0-0.1,0-0.3,0-0.4c0-0.2,0.1-0.4,0.1-0.5s0.2-0.3,0.4-0.4c0.2-0.1,0.4-0.1,0.6-0.1c0.2,0,0.3,0,0.5,0.1c0.1,0.1,0.2,0.1,0.3,0.2
		c0.1,0.1,0.2,0.2,0.2,0.2c0,0.1,0.1,0.2,0.1,0.2c0,0,0,0,0,0.1c0,0,0,0-0.1,0h-0.2c0,0,0,0-0.1,0c0,0,0,0,0-0.1
		c0-0.1-0.1-0.1-0.1-0.2c-0.1-0.1-0.1-0.1-0.2-0.2s-0.2-0.1-0.3-0.1c-0.2,0-0.4,0.1-0.5,0.2c-0.1,0.1-0.2,0.3-0.2,0.6
		c0,0.2,0,0.5,0,0.7c0,0.3,0.1,0.4,0.2,0.6c0.1,0.1,0.3,0.2,0.5,0.2c0.1,0,0.3,0,0.4-0.1c0.1-0.1,0.2-0.1,0.3-0.2
		c0.1-0.1,0.1-0.2,0.1-0.4V30h-0.6c0,0,0,0-0.1,0c0,0,0,0,0-0.1v-0.1c0,0,0-0.1,0-0.1c0,0,0,0,0.1,0h0.9c0,0,0.1,0,0.1,0
		c0,0,0,0,0,0.1v0.4c0,0.2,0,0.4-0.1,0.6c-0.1,0.2-0.2,0.3-0.4,0.4C48.5,31.2,48.3,31.2,48.1,31.2z"/>
	<path class="st0" d="M49.8,31.2C49.8,31.2,49.8,31.2,49.8,31.2C49.7,31.1,49.7,31.1,49.8,31.2l-0.1-2.7c0,0,0,0,0-0.1
		c0,0,0,0,0.1,0H50c0,0,0,0,0.1,0c0,0,0,0,0,0.1v2.6c0,0,0,0,0,0.1c0,0,0,0-0.1,0H49.8z"/>
	<path class="st0" d="M51.8,31.2c-0.2,0-0.4,0-0.6-0.1c-0.2-0.1-0.3-0.2-0.4-0.4c-0.1-0.2-0.1-0.3-0.1-0.6c0-0.1,0-0.2,0-0.4
		c0-0.1,0-0.3,0-0.4c0-0.2,0.1-0.4,0.1-0.5s0.2-0.3,0.4-0.4c0.2-0.1,0.4-0.1,0.6-0.1c0.2,0,0.3,0,0.5,0.1c0.1,0.1,0.2,0.1,0.3,0.2
		c0.1,0.1,0.2,0.2,0.2,0.2c0,0.1,0.1,0.2,0.1,0.2c0,0,0,0,0,0.1c0,0,0,0-0.1,0h-0.2c0,0,0,0-0.1,0c0,0,0,0,0-0.1
		c0-0.1-0.1-0.1-0.1-0.2c-0.1-0.1-0.1-0.1-0.2-0.2s-0.2-0.1-0.3-0.1c-0.2,0-0.4,0.1-0.5,0.2c-0.1,0.1-0.2,0.3-0.2,0.6
		c0,0.2,0,0.5,0,0.7c0,0.3,0.1,0.4,0.2,0.6c0.1,0.1,0.3,0.2,0.5,0.2c0.1,0,0.3,0,0.4-0.1c0.1-0.1,0.2-0.1,0.3-0.2
		c0.1-0.1,0.1-0.2,0.1-0.4V30h-0.6c0,0,0,0-0.1,0c0,0,0,0,0-0.1v-0.1c0,0,0-0.1,0-0.1c0,0,0,0,0.1,0h0.9c0,0,0.1,0,0.1,0
		c0,0,0,0,0,0.1v0.4c0,0.2,0,0.4-0.1,0.6c-0.1,0.2-0.2,0.3-0.4,0.4C52.2,31.2,52,31.2,51.8,31.2z"/>
	<path class="st0" d="M54.5,32C54.4,32,54.4,32,54.5,32C54.4,31.9,54.4,31.9,54.5,32l-0.1-4.2c0,0,0,0,0-0.1c0,0,0,0,0.1,0h0.2
		c0,0,0,0,0.1,0c0,0,0,0,0,0.1v4.1c0,0,0,0,0,0.1c0,0,0,0-0.1,0H54.5z"/>
	<path class="st0" d="M57.3,31.2c-0.2,0-0.4,0-0.6-0.1c-0.2-0.1-0.3-0.2-0.4-0.4c-0.1-0.2-0.1-0.3-0.1-0.6c0-0.1,0-0.2,0-0.3
		s0-0.2,0-0.4c0-0.2,0.1-0.4,0.1-0.6c0.1-0.2,0.2-0.3,0.4-0.4c0.2-0.1,0.4-0.1,0.6-0.1c0.2,0,0.3,0,0.5,0.1c0.1,0,0.2,0.1,0.3,0.2
		c0.1,0.1,0.2,0.2,0.2,0.3c0,0.1,0.1,0.2,0.1,0.3c0,0,0,0,0,0.1c0,0,0,0-0.1,0h-0.2c0,0,0,0-0.1,0s0,0,0-0.1c0-0.2-0.1-0.3-0.2-0.4
		s-0.3-0.1-0.5-0.1c-0.2,0-0.4,0.1-0.5,0.2c-0.1,0.1-0.2,0.3-0.2,0.6c0,0.2,0,0.4,0,0.7c0,0.3,0.1,0.5,0.2,0.6
		c0.1,0.1,0.3,0.2,0.5,0.2c0.2,0,0.3,0,0.5-0.1c0.1-0.1,0.2-0.2,0.2-0.4c0,0,0-0.1,0-0.1c0,0,0,0,0.1,0h0.2c0,0,0,0,0.1,0
		c0,0,0,0,0,0.1c0,0.1,0,0.2-0.1,0.3s-0.1,0.2-0.2,0.3c-0.1,0.1-0.2,0.2-0.3,0.2C57.6,31.2,57.5,31.2,57.3,31.2z"/>
	<path class="st0" d="M59.9,31.2c-0.2,0-0.4,0-0.6-0.1c-0.2-0.1-0.3-0.2-0.4-0.4c-0.1-0.2-0.1-0.4-0.1-0.6c0-0.1,0-0.2,0-0.3
		c0-0.1,0-0.2,0-0.3c0-0.2,0.1-0.4,0.2-0.6s0.2-0.3,0.4-0.4c0.2-0.1,0.3-0.1,0.6-0.1c0.2,0,0.4,0,0.6,0.1c0.2,0.1,0.3,0.2,0.4,0.4
		c0.1,0.2,0.1,0.4,0.1,0.6c0,0.1,0,0.2,0,0.3c0,0.1,0,0.2,0,0.3c0,0.2-0.1,0.4-0.1,0.6c-0.1,0.2-0.2,0.3-0.4,0.4
		C60.3,31.2,60.1,31.2,59.9,31.2z M59.9,30.9c0.2,0,0.4-0.1,0.5-0.2s0.2-0.3,0.2-0.6c0-0.1,0-0.2,0-0.3s0-0.2,0-0.3
		c0-0.2,0-0.3-0.1-0.4s-0.1-0.2-0.2-0.2c-0.1-0.1-0.2-0.1-0.4-0.1c-0.1,0-0.2,0-0.3,0.1c-0.1,0.1-0.2,0.1-0.2,0.2
		c-0.1,0.1-0.1,0.3-0.1,0.4c0,0.1,0,0.2,0,0.3s0,0.2,0,0.3c0,0.3,0.1,0.5,0.2,0.6C59.5,30.8,59.7,30.9,59.9,30.9z"/>
	<path class="st0" d="M61.7,31.2C61.6,31.2,61.6,31.2,61.7,31.2C61.6,31.1,61.6,31.1,61.7,31.2l-0.1-2.7c0,0,0-0.1,0-0.1
		c0,0,0,0,0.1,0h0.2c0,0,0.1,0,0.1,0c0,0,0,0,0,0l1.3,2v-2c0,0,0-0.1,0-0.1c0,0,0,0,0.1,0h0.2c0,0,0.1,0,0.1,0c0,0,0,0,0,0.1v2.6
		c0,0,0,0,0,0.1s0,0-0.1,0h-0.2c0,0-0.1,0-0.1,0c0,0,0,0,0,0l-1.3-2v1.9c0,0,0,0,0,0.1s0,0-0.1,0H61.7z"/>
	<path class="st0" d="M65,31.2C65,31.2,64.9,31.2,65,31.2C64.9,31.1,64.9,31.1,65,31.2l-0.1-2.4h-0.8c0,0,0,0-0.1,0c0,0,0,0,0-0.1
		v-0.2c0,0,0-0.1,0-0.1c0,0,0,0,0.1,0H66c0,0,0.1,0,0.1,0c0,0,0,0,0,0.1v0.2c0,0,0,0,0,0.1c0,0,0,0-0.1,0h-0.7v2.3c0,0,0,0,0,0.1
		s0,0-0.1,0H65z"/>
	<path class="st0" d="M66.7,31.2C66.6,31.2,66.6,31.2,66.7,31.2C66.6,31.1,66.6,31.1,66.7,31.2l-0.1-2.7c0,0,0-0.1,0-0.1
		c0,0,0,0,0.1,0h1c0.3,0,0.5,0.1,0.7,0.2s0.3,0.3,0.3,0.6c0,0.2-0.1,0.4-0.2,0.5C68.3,29.9,68.2,30,68,30l0.6,1c0,0,0,0,0,0
		c0,0,0,0,0,0.1s0,0-0.1,0h-0.2c0,0-0.1,0-0.1,0s0,0-0.1-0.1l-0.6-1H67v1c0,0,0,0,0,0.1c0,0,0,0-0.1,0H66.7z M67,29.7h0.6
		c0.2,0,0.3,0,0.4-0.1s0.1-0.2,0.1-0.4c0-0.2,0-0.3-0.1-0.4c-0.1-0.1-0.2-0.1-0.4-0.1H67V29.7z"/>
	<path class="st0" d="M69,31.2C68.9,31.2,68.9,31.2,69,31.2C68.9,31.1,68.9,31.1,69,31.2c-0.1-0.1-0.1-0.1-0.1-0.1l1-2.5
		c0,0,0,0,0-0.1c0,0,0,0,0.1,0h0.3c0,0,0.1,0,0.1,0c0,0,0,0,0,0.1l1,2.5c0,0,0,0,0,0c0,0,0,0,0,0.1s0,0-0.1,0h-0.2c0,0-0.1,0-0.1,0
		c0,0,0,0,0,0l-0.2-0.6h-1.3l-0.2,0.6c0,0,0,0,0,0s0,0-0.1,0H69z M69.6,30.2h1.1l-0.5-1.4L69.6,30.2z"/>
	<path class="st0" d="M72.7,31.2c-0.2,0-0.4,0-0.6-0.1s-0.3-0.2-0.4-0.4c-0.1-0.2-0.1-0.3-0.1-0.6c0-0.1,0-0.2,0-0.3s0-0.2,0-0.4
		c0-0.2,0.1-0.4,0.1-0.6c0.1-0.2,0.2-0.3,0.4-0.4s0.4-0.1,0.6-0.1c0.2,0,0.3,0,0.5,0.1c0.1,0,0.2,0.1,0.3,0.2
		c0.1,0.1,0.2,0.2,0.2,0.3c0,0.1,0.1,0.2,0.1,0.3c0,0,0,0,0,0.1c0,0,0,0-0.1,0h-0.2c0,0,0,0-0.1,0s0,0,0-0.1c0-0.2-0.1-0.3-0.2-0.4
		c-0.1-0.1-0.3-0.1-0.5-0.1c-0.2,0-0.4,0.1-0.5,0.2S72,29.2,72,29.5c0,0.2,0,0.4,0,0.7c0,0.3,0.1,0.5,0.2,0.6s0.3,0.2,0.5,0.2
		c0.2,0,0.3,0,0.5-0.1c0.1-0.1,0.2-0.2,0.2-0.4c0,0,0-0.1,0-0.1c0,0,0,0,0.1,0h0.2c0,0,0,0,0.1,0c0,0,0,0,0,0.1c0,0.1,0,0.2-0.1,0.3
		s-0.1,0.2-0.2,0.3c-0.1,0.1-0.2,0.2-0.3,0.2S72.9,31.2,72.7,31.2z"/>
	<path class="st0" d="M75,31.2C75,31.2,75,31.2,75,31.2C74.9,31.1,74.9,31.1,75,31.2l-0.1-2.4h-0.8c0,0,0,0-0.1,0c0,0,0,0,0-0.1
		v-0.2c0,0,0-0.1,0-0.1c0,0,0,0,0.1,0h1.9c0,0,0.1,0,0.1,0c0,0,0,0,0,0.1v0.2c0,0,0,0,0,0.1c0,0,0,0-0.1,0h-0.7v2.3c0,0,0,0,0,0.1
		s0,0-0.1,0H75z"/>
	<path class="st0" d="M77.6,31.2c-0.2,0-0.4,0-0.6-0.1c-0.2-0.1-0.3-0.2-0.4-0.4c-0.1-0.2-0.1-0.4-0.1-0.6v-1.6c0,0,0-0.1,0-0.1
		c0,0,0,0,0.1,0h0.2c0,0,0.1,0,0.1,0c0,0,0,0,0,0.1v1.6c0,0.3,0.1,0.4,0.2,0.6s0.3,0.2,0.5,0.2c0.2,0,0.4-0.1,0.5-0.2
		c0.1-0.1,0.2-0.3,0.2-0.6v-1.6c0,0,0-0.1,0-0.1c0,0,0,0,0.1,0h0.2c0,0,0,0,0.1,0c0,0,0,0,0,0.1v1.6c0,0.3,0,0.5-0.1,0.6
		c-0.1,0.2-0.2,0.3-0.4,0.4C78,31.2,77.9,31.2,77.6,31.2z"/>
	<path class="st0" d="M79.1,31.2C79.1,31.2,79.1,31.2,79.1,31.2C79,31.1,79,31.1,79.1,31.2C79,31.1,79,31.1,79,31.1l1-2.5
		c0,0,0,0,0-0.1c0,0,0,0,0.1,0h0.3c0,0,0.1,0,0.1,0c0,0,0,0,0,0.1l1,2.5c0,0,0,0,0,0c0,0,0,0,0,0.1s0,0-0.1,0h-0.2c0,0-0.1,0-0.1,0
		c0,0,0,0,0,0l-0.2-0.6h-1.3l-0.2,0.6c0,0,0,0,0,0s0,0-0.1,0H79.1z M79.7,30.2h1.1l-0.5-1.4L79.7,30.2z"/>
	<path class="st0" d="M82,31.2C82,31.2,82,31.2,82,31.2C81.9,31.1,81.9,31.1,82,31.2l-0.1-2.7c0,0,0,0,0-0.1c0,0,0,0,0.1,0h0.2
		c0,0,0,0,0.1,0c0,0,0,0,0,0.1v2.3h1.3c0,0,0.1,0,0.1,0c0,0,0,0,0,0.1v0.2c0,0,0,0,0,0.1s0,0-0.1,0H82z"/>
	<path class="st0" d="M85,32C85,32,85,32,85,32C84.9,31.9,84.9,31.9,85,32l-0.1-4.2c0,0,0,0,0-0.1c0,0,0,0,0.1,0h0.2c0,0,0,0,0.1,0
		c0,0,0,0,0,0.1v4.1c0,0,0,0,0,0.1c0,0,0,0-0.1,0H85z"/>
	<path class="st0" d="M87.7,31.2c-0.2,0-0.4,0-0.6-0.1C87,31,86.9,31,86.8,30.8s-0.1-0.2-0.1-0.4c0,0,0,0,0-0.1c0,0,0,0,0.1,0H87
		c0,0,0.1,0,0.1,0s0,0,0,0.1c0,0.1,0,0.1,0.1,0.2c0.1,0.1,0.1,0.1,0.2,0.2c0.1,0,0.2,0.1,0.4,0.1c0.2,0,0.4,0,0.5-0.1
		c0.1-0.1,0.2-0.2,0.2-0.3c0-0.1,0-0.2-0.1-0.2c-0.1-0.1-0.1-0.1-0.3-0.2c-0.1,0-0.3-0.1-0.4-0.1c-0.2-0.1-0.3-0.1-0.5-0.2
		c-0.1-0.1-0.2-0.1-0.3-0.2s-0.1-0.2-0.1-0.4c0-0.1,0-0.3,0.1-0.4c0.1-0.1,0.2-0.2,0.3-0.3c0.1-0.1,0.3-0.1,0.5-0.1
		c0.2,0,0.3,0,0.4,0.1c0.1,0,0.2,0.1,0.3,0.2c0.1,0.1,0.1,0.1,0.2,0.2s0.1,0.2,0.1,0.2c0,0,0,0,0,0.1c0,0,0,0-0.1,0h-0.2
		c0,0,0,0-0.1,0c0,0,0,0,0-0.1c0-0.1-0.1-0.2-0.2-0.3s-0.2-0.1-0.4-0.1c-0.2,0-0.3,0-0.4,0.1s-0.2,0.2-0.2,0.3c0,0.1,0,0.2,0.1,0.2
		s0.1,0.1,0.2,0.2c0.1,0,0.2,0.1,0.4,0.1c0.2,0.1,0.4,0.1,0.5,0.2c0.1,0.1,0.2,0.1,0.3,0.2c0.1,0.1,0.1,0.2,0.1,0.4
		c0,0.2,0,0.3-0.1,0.4c-0.1,0.1-0.2,0.2-0.4,0.3S87.9,31.2,87.7,31.2z"/>
	<path class="st0" d="M90,31.2C89.9,31.2,89.9,31.2,90,31.2C89.9,31.1,89.9,31.1,90,31.2l-0.1-2.4h-0.8c0,0,0,0-0.1,0c0,0,0,0,0-0.1
		v-0.2c0,0,0-0.1,0-0.1c0,0,0,0,0.1,0H91c0,0,0.1,0,0.1,0c0,0,0,0,0,0.1v0.2c0,0,0,0,0,0.1c0,0,0,0-0.1,0h-0.7v2.3c0,0,0,0,0,0.1
		s0,0-0.1,0H90z"/>
	<path class="st0" d="M91.1,31.2C91,31.2,91,31.2,91.1,31.2C91,31.1,91,31.1,91.1,31.2C91,31.1,91,31.1,91,31.1l1-2.5c0,0,0,0,0-0.1
		c0,0,0,0,0.1,0h0.3c0,0,0.1,0,0.1,0c0,0,0,0,0,0.1l1,2.5c0,0,0,0,0,0c0,0,0,0,0,0.1s0,0-0.1,0h-0.2c0,0-0.1,0-0.1,0c0,0,0,0,0,0
		l-0.2-0.6h-1.3l-0.2,0.6c0,0,0,0,0,0s0,0-0.1,0H91.1z M91.7,30.2h1.1l-0.5-1.4L91.7,30.2z"/>
	<path class="st0" d="M94,31.2C93.9,31.2,93.9,31.2,94,31.2C93.9,31.1,93.9,31.1,94,31.2l-0.1-2.7c0,0,0-0.1,0-0.1c0,0,0,0,0.1,0
		h1.6c0,0,0.1,0,0.1,0c0,0,0,0,0,0.1v0.2c0,0,0,0.1,0,0.1s0,0-0.1,0h-1.3v0.9h1.2c0,0,0.1,0,0.1,0c0,0,0,0,0,0.1v0.2c0,0,0,0,0,0.1
		c0,0,0,0-0.1,0h-1.2v1.1c0,0,0,0,0,0.1c0,0,0,0-0.1,0H94z"/>
	<path class="st0" d="M96.2,31.2C96.2,31.2,96.2,31.2,96.2,31.2C96.2,31.1,96.2,31.1,96.2,31.2l-0.1-2.7c0,0,0-0.1,0-0.1
		c0,0,0,0,0.1,0h1.6c0,0,0.1,0,0.1,0c0,0,0,0,0,0.1v0.2c0,0,0,0.1,0,0.1s0,0-0.1,0h-1.3v0.9h1.2c0,0,0.1,0,0.1,0c0,0,0,0,0,0.1v0.2
		c0,0,0,0,0,0.1c0,0,0,0-0.1,0h-1.2v1.1c0,0,0,0,0,0.1c0,0,0,0-0.1,0H96.2z"/>
	<path class="st0" d="M98.5,31.2C98.5,31.2,98.5,31.2,98.5,31.2C98.5,31.1,98.4,31.1,98.5,31.2l-0.1-2.7c0,0,0,0,0-0.1
		c0,0,0,0,0.1,0h0.2c0,0,0,0,0.1,0c0,0,0,0,0,0.1v2.6c0,0,0,0,0,0.1c0,0,0,0-0.1,0H98.5z"/>
	<path class="st0" d="M99.6,31.2C99.6,31.2,99.6,31.2,99.6,31.2C99.5,31.1,99.5,31.1,99.6,31.2l-0.1-2.7c0,0,0-0.1,0-0.1
		c0,0,0,0,0.1,0h0.2c0,0,0.1,0,0.1,0c0,0,0,0,0,0l1.3,2v-2c0,0,0-0.1,0-0.1c0,0,0,0,0.1,0h0.2c0,0,0.1,0,0.1,0c0,0,0,0,0,0.1v2.6
		c0,0,0,0,0,0.1s0,0-0.1,0h-0.2c0,0,0,0-0.1,0s0,0,0,0l-1.3-2v1.9c0,0,0,0,0,0.1c0,0,0,0-0.1,0H99.6z"/>
	<path class="st0" d="M103.2,31.2c-0.2,0-0.4,0-0.6-0.1c-0.2-0.1-0.3-0.2-0.4-0.4c-0.1-0.2-0.1-0.3-0.1-0.6c0-0.1,0-0.2,0-0.4
		c0-0.1,0-0.3,0-0.4c0-0.2,0.1-0.4,0.1-0.5s0.2-0.3,0.4-0.4c0.2-0.1,0.4-0.1,0.6-0.1c0.2,0,0.3,0,0.5,0.1c0.1,0.1,0.2,0.1,0.3,0.2
		c0.1,0.1,0.2,0.2,0.2,0.2c0,0.1,0.1,0.2,0.1,0.2c0,0,0,0,0,0.1c0,0,0,0-0.1,0H104c0,0,0,0-0.1,0c0,0,0,0,0-0.1
		c0-0.1-0.1-0.1-0.1-0.2c-0.1-0.1-0.1-0.1-0.2-0.2c-0.1,0-0.2-0.1-0.3-0.1c-0.2,0-0.4,0.1-0.5,0.2s-0.2,0.3-0.2,0.6
		c0,0.2,0,0.5,0,0.7c0,0.3,0.1,0.4,0.2,0.6c0.1,0.1,0.3,0.2,0.5,0.2c0.1,0,0.3,0,0.4-0.1c0.1-0.1,0.2-0.1,0.3-0.2
		c0.1-0.1,0.1-0.2,0.1-0.4V30h-0.6c0,0,0,0-0.1,0c0,0,0,0,0-0.1v-0.1c0,0,0-0.1,0-0.1c0,0,0,0,0.1,0h0.9c0,0,0.1,0,0.1,0
		c0,0,0,0,0,0.1v0.4c0,0.2,0,0.4-0.1,0.6c-0.1,0.2-0.2,0.3-0.4,0.4C103.7,31.2,103.5,31.2,103.2,31.2z"/>
	<path class="st0" d="M106.8,31.2c-0.2,0-0.4,0-0.6-0.1c-0.2-0.1-0.3-0.2-0.4-0.3s-0.1-0.2-0.1-0.4c0,0,0,0,0-0.1c0,0,0,0,0.1,0h0.2
		c0,0,0.1,0,0.1,0s0,0,0,0.1c0,0.1,0,0.1,0.1,0.2c0.1,0.1,0.1,0.1,0.2,0.2c0.1,0,0.2,0.1,0.4,0.1c0.2,0,0.4,0,0.5-0.1
		c0.1-0.1,0.2-0.2,0.2-0.3c0-0.1,0-0.2-0.1-0.2c-0.1-0.1-0.1-0.1-0.3-0.2c-0.1,0-0.3-0.1-0.4-0.1c-0.2-0.1-0.3-0.1-0.5-0.2
		c-0.1-0.1-0.2-0.1-0.3-0.2s-0.1-0.2-0.1-0.4c0-0.1,0-0.3,0.1-0.4c0.1-0.1,0.2-0.2,0.3-0.3c0.1-0.1,0.3-0.1,0.5-0.1
		c0.2,0,0.3,0,0.4,0.1c0.1,0,0.2,0.1,0.3,0.2c0.1,0.1,0.1,0.1,0.2,0.2s0.1,0.2,0.1,0.2c0,0,0,0,0,0.1c0,0,0,0-0.1,0h-0.2
		c0,0,0,0-0.1,0c0,0,0,0,0-0.1c0-0.1-0.1-0.2-0.2-0.3s-0.2-0.1-0.4-0.1c-0.2,0-0.3,0-0.4,0.1s-0.2,0.2-0.2,0.3c0,0.1,0,0.2,0.1,0.2
		s0.1,0.1,0.2,0.2c0.1,0,0.2,0.1,0.4,0.1c0.2,0.1,0.4,0.1,0.5,0.2c0.1,0.1,0.2,0.1,0.3,0.2c0.1,0.1,0.1,0.2,0.1,0.4
		c0,0.2,0,0.3-0.1,0.4c-0.1,0.1-0.2,0.2-0.4,0.3S107,31.2,106.8,31.2z"/>
	<path class="st0" d="M109.3,31.2c-0.2,0-0.4,0-0.6-0.1s-0.3-0.2-0.4-0.4c-0.1-0.2-0.1-0.4-0.1-0.6c0-0.1,0-0.2,0-0.3
		c0-0.1,0-0.2,0-0.3c0-0.2,0.1-0.4,0.2-0.6c0.1-0.2,0.2-0.3,0.4-0.4c0.2-0.1,0.3-0.1,0.6-0.1c0.2,0,0.4,0,0.6,0.1
		c0.2,0.1,0.3,0.2,0.4,0.4c0.1,0.2,0.1,0.4,0.1,0.6c0,0.1,0,0.2,0,0.3c0,0.1,0,0.2,0,0.3c0,0.2-0.1,0.4-0.1,0.6
		c-0.1,0.2-0.2,0.3-0.4,0.4C109.7,31.2,109.5,31.2,109.3,31.2z M109.3,30.9c0.2,0,0.4-0.1,0.5-0.2s0.2-0.3,0.2-0.6
		c0-0.1,0-0.2,0-0.3s0-0.2,0-0.3c0-0.2,0-0.3-0.1-0.4s-0.1-0.2-0.2-0.2c-0.1-0.1-0.2-0.1-0.4-0.1c-0.1,0-0.2,0-0.3,0.1
		c-0.1,0.1-0.2,0.1-0.2,0.2s-0.1,0.3-0.1,0.4c0,0.1,0,0.2,0,0.3s0,0.2,0,0.3c0,0.3,0.1,0.5,0.2,0.6S109.1,30.9,109.3,30.9z"/>
	<path class="st0" d="M111.1,31.2C111,31.2,111,31.2,111.1,31.2C111,31.1,111,31.1,111.1,31.2l-0.1-2.7c0,0,0,0,0-0.1c0,0,0,0,0.1,0
		h0.2c0,0,0,0,0.1,0c0,0,0,0,0,0.1v2.3h1.3c0,0,0.1,0,0.1,0c0,0,0,0,0,0.1v0.2c0,0,0,0,0,0.1s0,0-0.1,0H111.1z"/>
	<path class="st0" d="M114.1,31.2c-0.2,0-0.4,0-0.6-0.1c-0.2-0.1-0.3-0.2-0.4-0.4c-0.1-0.2-0.1-0.4-0.1-0.6v-1.6c0,0,0-0.1,0-0.1
		c0,0,0,0,0.1,0h0.2c0,0,0.1,0,0.1,0c0,0,0,0,0,0.1v1.6c0,0.3,0.1,0.4,0.2,0.6s0.3,0.2,0.5,0.2c0.2,0,0.4-0.1,0.5-0.2
		c0.1-0.1,0.2-0.3,0.2-0.6v-1.6c0,0,0-0.1,0-0.1c0,0,0,0,0.1,0h0.2c0,0,0,0,0.1,0c0,0,0,0,0,0.1v1.6c0,0.3,0,0.5-0.1,0.6
		c-0.1,0.2-0.2,0.3-0.4,0.4C114.6,31.2,114.4,31.2,114.1,31.2z"/>
	<path class="st0" d="M116.5,31.2C116.5,31.2,116.5,31.2,116.5,31.2C116.5,31.1,116.5,31.1,116.5,31.2l-0.1-2.4h-0.8c0,0,0,0-0.1,0
		c0,0,0,0,0-0.1v-0.2c0,0,0-0.1,0-0.1c0,0,0,0,0.1,0h1.9c0,0,0.1,0,0.1,0c0,0,0,0,0,0.1v0.2c0,0,0,0,0,0.1c0,0,0,0-0.1,0h-0.7v2.3
		c0,0,0,0,0,0.1s0,0-0.1,0H116.5z"/>
	<path class="st0" d="M118.2,31.2C118.2,31.2,118.2,31.2,118.2,31.2C118.1,31.1,118.1,31.1,118.2,31.2l-0.1-2.7c0,0,0,0,0-0.1
		c0,0,0,0,0.1,0h0.2c0,0,0,0,0.1,0c0,0,0,0,0,0.1v2.6c0,0,0,0,0,0.1c0,0,0,0-0.1,0H118.2z"/>
	<path class="st0" d="M120.2,31.2c-0.2,0-0.4,0-0.6-0.1s-0.3-0.2-0.4-0.4c-0.1-0.2-0.1-0.4-0.1-0.6c0-0.1,0-0.2,0-0.3
		c0-0.1,0-0.2,0-0.3c0-0.2,0.1-0.4,0.2-0.6c0.1-0.2,0.2-0.3,0.4-0.4c0.2-0.1,0.3-0.1,0.6-0.1c0.2,0,0.4,0,0.6,0.1
		c0.2,0.1,0.3,0.2,0.4,0.4c0.1,0.2,0.1,0.4,0.1,0.6c0,0.1,0,0.2,0,0.3c0,0.1,0,0.2,0,0.3c0,0.2-0.1,0.4-0.1,0.6
		c-0.1,0.2-0.2,0.3-0.4,0.4C120.6,31.2,120.4,31.2,120.2,31.2z M120.2,30.9c0.2,0,0.4-0.1,0.5-0.2s0.2-0.3,0.2-0.6
		c0-0.1,0-0.2,0-0.3s0-0.2,0-0.3c0-0.2,0-0.3-0.1-0.4s-0.1-0.2-0.2-0.2c-0.1-0.1-0.2-0.1-0.4-0.1c-0.1,0-0.2,0-0.3,0.1
		c-0.1,0.1-0.2,0.1-0.2,0.2s-0.1,0.3-0.1,0.4c0,0.1,0,0.2,0,0.3s0,0.2,0,0.3c0,0.3,0.1,0.5,0.2,0.6S120,30.9,120.2,30.9z"/>
	<path class="st0" d="M121.9,31.2C121.9,31.2,121.9,31.2,121.9,31.2C121.9,31.1,121.8,31.1,121.9,31.2l-0.1-2.7c0,0,0-0.1,0-0.1
		c0,0,0,0,0.1,0h0.2c0,0,0.1,0,0.1,0c0,0,0,0,0,0l1.3,2v-2c0,0,0-0.1,0-0.1c0,0,0,0,0.1,0h0.2c0,0,0.1,0,0.1,0c0,0,0,0,0,0.1v2.6
		c0,0,0,0,0,0.1s0,0-0.1,0h-0.2c0,0,0,0-0.1,0s0,0,0,0l-1.3-2v1.9c0,0,0,0,0,0.1c0,0,0,0-0.1,0H121.9z"/>
</g>
</svg>
