<?xml version="1.0" encoding="utf-8"?>
<!-- Generator: Adobe Illustrator 23.1.1, SVG Export Plug-In . SVG Version: 6.00 Build 0)  -->
<svg version="1.1" id="Layer_1" xmlns="http://www.w3.org/2000/svg" xmlns:xlink="http://www.w3.org/1999/xlink" x="0px" y="0px"
	 viewBox="0 0 133 40" style="enable-background:new 0 0 133 40;" xml:space="preserve">
<style type="text/css">
	.st0{fill:#545454;}
	.st1{fill:#00BAFF;}
</style>
<path class="st0" d="M32.7,24.6c0,2.7-0.8,5.2-2.3,7.2c-2.3,3.3-6.1,5.4-10.4,5.3C13.4,37,8,31.7,7.7,25.2c-0.1-2,0.3-3.9,1-5.6
	L9,7.9c0-1.1,0.9-1.9,2-1.9c1.1,0,2,0.9,2,1.9v0.1l-0.2,6.7c0.1-0.1,0.3-0.2,0.4-0.3l2.9-9.5c0.3-1,1.4-1.6,2.4-1.3
	c0.9,0.2,1.4,1,1.4,1.9c0,0.2,0,0.4-0.1,0.6l-1.9,6.4l0,0c0.1,0,0.3-0.1,0.4-0.1l4.9-8.5c0.6-0.9,1.7-1.2,2.7-0.7c0.6,0.4,1,1,1,1.7
	c0,0.4-0.1,0.7-0.3,1L23,12.4c0.5,0.1,1,0.2,1.4,0.4c0.7,0.2,1.3,0.5,1.9,0.8c1.6,0.9,2.9,2.2,4.2,3.9c0.5,0.8,0.4,1.3,0.2,1.8
	c-0.1,0.4-0.2,0.7-0.5,1c-0.4,0.4-0.9,0.6-1.4,0.6c-0.4,0-0.9-0.1-1.2-0.4c0,0,0,0,0,0c0,0-0.1-0.1-0.1-0.1l-1-1
	c-0.4-0.6-0.9-1.1-1.5-1.5c-1.4-1-3-1.4-5.2-1.2c-3.7,0.3-7.3,3.5-7.8,7.2c-0.6,5.3,3.7,9.8,9,9.3c3.6-0.3,6.6-3.1,7.3-6.7
	c0.1-0.4,0.1-0.7,0.1-1.1c0-0.3,0-0.6,0-0.8v-0.6c0-0.4,0.1-0.7,0.2-1c0.4-0.7,1.1-1.1,1.9-1.1c0.2,0,0.5,0,0.7,0.1
	c0.3,0.1,0.6,0.3,0.8,0.5c0.3,0.3,0.5,0.6,0.6,1C32.7,23.9,32.7,24.2,32.7,24.6z"/>
<path class="st1" d="M18.9,17.4c0.5-0.1,1.6-0.2,2.6,0c0.2,0,0.3,0.2,0.2,0.4l-0.8,1.3c0,0.1,0,0.1,0,0.2l1.9,9.9
	c0,0.1,0,0.2-0.1,0.2l-2.3,2.2c-0.1,0.1-0.2,0.1-0.3,0l-2.4-2.2c-0.1-0.1-0.1-0.1-0.1-0.2l1.9-10c0-0.1,0-0.1,0-0.2l-0.7-1.2
	C18.7,17.7,18.8,17.5,18.9,17.4z"/>
<g>
	<path class="st1" d="M46.9,24.9c-0.1-0.5-0.3-1.2-0.8-2.7c-0.5-1.5-0.8-1.9-1.2-2.3c-0.4-0.3-0.8-0.5-1.3-0.5h-1.7v2.8
		c0,1.2,0,1.8,0.1,2.6h-3.7c0.1-0.8,0.1-1.3,0.1-2.6v-9.2c0-1.1,0-1.7-0.1-2.5c0.8,0,1.4,0.1,2.5,0.1h4.4c2.8,0,4.4,1.4,4.4,3.9
		c0,1.2-0.3,2.2-1,2.8c-0.4,0.4-0.8,0.6-1.6,0.9c0.9,0.3,1.3,0.7,1.8,1.9c0.3,0.5,0.5,1.1,1.3,3c0.2,0.5,0.4,0.9,0.8,1.8H46.9z
		 M44.5,16.6c1,0,1.6-0.6,1.6-1.6c0-1-0.5-1.5-1.6-1.5h-2.7v3H44.5z"/>
	<path class="st0" d="M55.7,14.5c-0.1,0.7-0.1,1.4-0.1,2.6v5.3c0,0.9,0.1,1.8,0.1,2.6h-3.6c0.1-0.8,0.1-1.5,0.1-2.6v-5.3
		c0-1.1,0-1.8-0.1-2.6H55.7z M55.7,10.7v2.6h-3.5v-2.6H55.7z"/>
	<path class="st0" d="M58.9,14.2c0-0.9,0-1.5-0.1-2.3h3.5c-0.1,0.7-0.1,1.5-0.1,2.3v0.4h0.6c0.8,0,1.1,0,1.7-0.1v2.8
		c-0.5-0.1-1-0.1-1.6-0.1h-0.7v4.4c0,0.5,0.1,0.7,0.3,0.9c0.2,0.1,0.5,0.2,0.8,0.2c0.4,0,0.8-0.1,1.2-0.3l0.3,2.6
		c-0.8,0.2-1.4,0.3-2.4,0.3c-1.2,0-2-0.2-2.5-0.6c-0.6-0.5-0.9-1.1-0.9-2.2v-5.2h-0.6c-0.5,0-1,0-1.5,0.1v-2.9
		c0.5,0.1,0.9,0.1,1.5,0.1h0.6V14.2z"/>
	<path class="st0" d="M68.4,20.7c0.2,1.4,1,2.1,2.3,2.1c0.7,0,1.3-0.2,1.7-0.6c0.3-0.2,0.4-0.4,0.5-0.9l3,0.8
		c-0.4,0.9-0.6,1.3-1.1,1.8c-1,1-2.3,1.5-4,1.5c-1.7,0-3-0.5-4-1.5c-1-1-1.6-2.5-1.6-4.2c0-3.4,2.2-5.6,5.4-5.6c2.7,0,4.5,1.5,5.1,4
		c0.1,0.5,0.2,1.3,0.3,2.2c0,0.1,0,0.2,0,0.3H68.4z M72.8,18.3c-0.2-1.1-1-1.7-2.2-1.7c-1.2,0-1.9,0.5-2.2,1.7H72.8z"/>
	<path class="st1" d="M80.7,20.3c0.1,0.6,0.2,0.9,0.4,1.3c0.4,0.5,1.1,0.8,2,0.8c1.3,0,2.1-0.6,2.1-1.5c0-0.5-0.3-1-0.7-1.2
		c-0.4-0.2-0.8-0.3-2.6-0.7c-1.6-0.3-2.1-0.5-2.7-1c-1.1-0.8-1.7-1.9-1.7-3.3c0-2.6,2.1-4.3,5.5-4.3c2.2,0,3.8,0.7,4.7,1.9
		c0.4,0.6,0.6,1.1,0.9,2l-3.6,0.4c-0.2-1.1-0.8-1.6-2.1-1.6c-1,0-1.8,0.6-1.8,1.3c0,0.5,0.3,0.8,0.8,1.1c0.3,0.2,0.3,0.2,2.4,0.6
		c1.3,0.3,2.1,0.6,2.8,1c1.2,0.8,1.8,1.9,1.8,3.5c0,1.3-0.4,2.4-1.2,3.1c-1,1-2.5,1.5-4.5,1.5c-1.5,0-2.9-0.3-3.8-0.8
		c-0.9-0.5-1.5-1.2-1.8-2.2c-0.2-0.4-0.3-0.8-0.4-1.6L80.7,20.3z"/>
	<path class="st0" d="M91.9,14.2c0-0.9,0-1.5-0.1-2.3h3.5c-0.1,0.7-0.1,1.5-0.1,2.3v0.4h0.6c0.8,0,1.1,0,1.7-0.1v2.8
		c-0.5-0.1-1-0.1-1.6-0.1h-0.7v4.4c0,0.5,0.1,0.7,0.3,0.9c0.2,0.1,0.5,0.2,0.8,0.2c0.4,0,0.8-0.1,1.2-0.3l0.3,2.6
		c-0.8,0.2-1.4,0.3-2.4,0.3c-1.2,0-2-0.2-2.5-0.6c-0.6-0.5-0.9-1.1-0.9-2.2v-5.2h-0.6c-0.5,0-1,0-1.5,0.1v-2.9
		c0.5,0.1,0.9,0.1,1.5,0.1h0.6V14.2z"/>
	<path class="st0" d="M102.3,14.5c-0.1,0.7-0.1,1.4-0.1,2.6v5.3c0,0.9,0.1,1.8,0.1,2.6h-3.6c0.1-0.8,0.1-1.5,0.1-2.6v-5.3
		c0-1.1,0-1.8-0.1-2.6H102.3z M102.2,10.7v2.6h-3.5v-2.6H102.2z"/>
	<path class="st0" d="M104.1,24.9c0.1-0.8,0.1-1.5,0.1-2.6v-5.3c0-1.2,0-1.9-0.1-2.6h3.4v0.7c0,0.1,0,0.4,0,0.5
		c1.1-1,2.1-1.5,3.5-1.5c1.2,0,2.1,0.3,2.7,1c0.7,0.7,1,1.5,1,2.9v4.3c0,1,0.1,1.8,0.1,2.6h-3.6c0.1-0.8,0.1-1.5,0.1-2.6v-3.5
		c0-0.7-0.1-1-0.3-1.3c-0.2-0.3-0.6-0.5-1.1-0.5c-1,0-1.8,0.6-2.5,1.8v3.4c0,1,0,1.7,0.1,2.6H104.1z"/>
	<path class="st0" d="M118,14.2c0-0.9,0-1.5-0.1-2.3h3.5c-0.1,0.7-0.1,1.5-0.1,2.3v0.4h0.6c0.8,0,1.1,0,1.7-0.1v2.8
		c-0.5-0.1-1-0.1-1.6-0.1h-0.7v4.4c0,0.5,0.1,0.7,0.3,0.9c0.2,0.1,0.5,0.2,0.8,0.2c0.4,0,0.8-0.1,1.2-0.3l0.3,2.6
		c-0.8,0.2-1.4,0.3-2.4,0.3c-1.2,0-2-0.2-2.5-0.6c-0.6-0.5-0.9-1.1-0.9-2.2v-5.2h-0.6c-0.5,0-1,0-1.5,0.1v-2.9
		c0.5,0.1,0.9,0.1,1.5,0.1h0.6V14.2z"/>
</g>
<g>
	<path class="st0" d="M38.5,31.2C38.5,31.2,38.5,31.2,38.5,31.2C38.4,31.1,38.4,31.1,38.5,31.2l-0.1-2.7c0,0,0-0.1,0-0.1
		c0,0,0,0,0.1,0h1.6c0,0,0.1,0,0.1,0c0,0,0,0,0,0.1v0.2c0,0,0,0.1,0,0.1s0,0-0.1,0h-1.3v0.9H40c0,0,0.1,0,0.1,0c0,0,0,0,0,0.1v0.2
		c0,0,0,0,0,0.1c0,0,0,0-0.1,0h-1.2v1.1c0,0,0,0,0,0.1s0,0-0.1,0H38.5z"/>
	<path class="st0" d="M41.4,31.2C41.4,31.2,41.4,31.2,41.4,31.2C41.3,31.1,41.3,31.1,41.4,31.2l-0.1-2.4h-0.8c0,0,0,0-0.1,0
		c0,0,0,0,0-0.1v-0.2c0,0,0-0.1,0-0.1c0,0,0,0,0.1,0h1.9c0,0,0.1,0,0.1,0c0,0,0,0,0,0.1v0.2c0,0,0,0,0,0.1c0,0,0,0-0.1,0h-0.7v2.3
		c0,0,0,0,0,0.1s0,0-0.1,0H41.4z"/>
	<path class="st0" d="M43.1,31.2C43,31.2,43,31.2,43.1,31.2C43,31.1,43,31.1,43.1,31.2L43,28.5c0,0,0-0.1,0-0.1c0,0,0,0,0.1,0h1.6
		c0,0,0.1,0,0.1,0c0,0,0,0,0,0.1v0.1c0,0,0,0.1,0,0.1s0,0-0.1,0h-1.3v0.9h1.2c0,0,0.1,0,0.1,0c0,0,0,0,0,0.1v0.1c0,0,0,0,0,0.1
		c0,0,0,0-0.1,0h-1.2v0.9h1.4c0,0,0.1,0,0.1,0c0,0,0,0,0,0.1v0.2c0,0,0,0,0,0.1c0,0,0,0-0.1,0H43.1z"/>
	<path class="st0" d="M46.4,32C46.3,32,46.3,32,46.4,32C46.3,31.9,46.3,31.9,46.4,32l-0.1-4.2c0,0,0,0,0-0.1c0,0,0,0,0.1,0h0.2
		c0,0,0,0,0.1,0c0,0,0,0,0,0.1v4.1c0,0,0,0,0,0.1c0,0,0,0-0.1,0H46.4z"/>
	<path class="st0" d="M49.2,31.2c-0.2,0-0.4,0-0.6-0.1c-0.2-0.1-0.3-0.2-0.4-0.4c-0.1-0.2-0.1-0.3-0.1-0.6c0-0.1,0-0.2,0-0.4
		c0-0.1,0-0.3,0-0.4c0-0.2,0.1-0.4,0.1-0.5s0.2-0.3,0.4-0.4c0.2-0.1,0.4-0.1,0.6-0.1c0.2,0,0.3,0,0.5,0.1c0.1,0.1,0.2,0.1,0.3,0.2
		c0.1,0.1,0.2,0.2,0.2,0.2c0,0.1,0.1,0.2,0.1,0.2c0,0,0,0,0,0.1c0,0,0,0-0.1,0H50c0,0,0,0-0.1,0c0,0,0,0,0-0.1
		c0-0.1-0.1-0.1-0.1-0.2c-0.1-0.1-0.1-0.1-0.2-0.2s-0.2-0.1-0.3-0.1c-0.2,0-0.4,0.1-0.5,0.2c-0.1,0.1-0.2,0.3-0.2,0.6
		c0,0.2,0,0.5,0,0.7c0,0.3,0.1,0.4,0.2,0.6c0.1,0.1,0.3,0.2,0.5,0.2c0.1,0,0.3,0,0.4-0.1c0.1-0.1,0.2-0.1,0.3-0.2
		c0.1-0.1,0.1-0.2,0.1-0.4V30h-0.6c0,0,0,0-0.1,0c0,0,0,0,0-0.1v-0.1c0,0,0-0.1,0-0.1c0,0,0,0,0.1,0h0.9c0,0,0.1,0,0.1,0
		c0,0,0,0,0,0.1v0.4c0,0.2,0,0.4-0.1,0.6c-0.1,0.2-0.2,0.3-0.4,0.4C49.6,31.2,49.4,31.2,49.2,31.2z"/>
	<path class="st0" d="M51,31.2C50.9,31.2,50.9,31.2,51,31.2C50.9,31.1,50.9,31.1,51,31.2l-0.1-2.7c0,0,0,0,0-0.1c0,0,0,0,0.1,0h0.2
		c0,0,0,0,0.1,0c0,0,0,0,0,0.1v2.6c0,0,0,0,0,0.1c0,0,0,0-0.1,0H51z"/>
	<path class="st0" d="M52.9,31.2c-0.2,0-0.4,0-0.6-0.1c-0.2-0.1-0.3-0.2-0.4-0.4c-0.1-0.2-0.1-0.3-0.1-0.6c0-0.1,0-0.2,0-0.4
		c0-0.1,0-0.3,0-0.4c0-0.2,0.1-0.4,0.1-0.5s0.2-0.3,0.4-0.4c0.2-0.1,0.4-0.1,0.6-0.1c0.2,0,0.3,0,0.5,0.1c0.1,0.1,0.2,0.1,0.3,0.2
		c0.1,0.1,0.2,0.2,0.2,0.2c0,0.1,0.1,0.2,0.1,0.2c0,0,0,0,0,0.1c0,0,0,0-0.1,0h-0.2c0,0,0,0-0.1,0c0,0,0,0,0-0.1
		c0-0.1-0.1-0.1-0.1-0.2c-0.1-0.1-0.1-0.1-0.2-0.2s-0.2-0.1-0.3-0.1c-0.2,0-0.4,0.1-0.5,0.2c-0.1,0.1-0.2,0.3-0.2,0.6
		c0,0.2,0,0.5,0,0.7c0,0.3,0.1,0.4,0.2,0.6c0.1,0.1,0.3,0.2,0.5,0.2c0.1,0,0.3,0,0.4-0.1c0.1-0.1,0.2-0.1,0.3-0.2
		c0.1-0.1,0.1-0.2,0.1-0.4V30h-0.6c0,0,0,0-0.1,0c0,0,0,0,0-0.1v-0.1c0,0,0-0.1,0-0.1c0,0,0,0,0.1,0H54c0,0,0.1,0,0.1,0
		c0,0,0,0,0,0.1v0.4c0,0.2,0,0.4-0.1,0.6c-0.1,0.2-0.2,0.3-0.4,0.4C53.4,31.2,53.2,31.2,52.9,31.2z"/>
	<path class="st0" d="M55.6,32C55.6,32,55.6,32,55.6,32C55.5,31.9,55.5,31.9,55.6,32l-0.1-4.2c0,0,0,0,0-0.1c0,0,0,0,0.1,0h0.2
		c0,0,0,0,0.1,0c0,0,0,0,0,0.1v4.1c0,0,0,0,0,0.1c0,0,0,0-0.1,0H55.6z"/>
	<path class="st0" d="M58.4,31.2c-0.2,0-0.4,0-0.6-0.1c-0.2-0.1-0.3-0.2-0.4-0.4c-0.1-0.2-0.1-0.3-0.1-0.6c0-0.1,0-0.2,0-0.3
		s0-0.2,0-0.4c0-0.2,0.1-0.4,0.1-0.6c0.1-0.2,0.2-0.3,0.4-0.4c0.2-0.1,0.4-0.1,0.6-0.1c0.2,0,0.3,0,0.5,0.1c0.1,0,0.2,0.1,0.3,0.2
		c0.1,0.1,0.2,0.2,0.2,0.3c0,0.1,0.1,0.2,0.1,0.3c0,0,0,0,0,0.1c0,0,0,0-0.1,0h-0.2c0,0,0,0-0.1,0s0,0,0-0.1c0-0.2-0.1-0.3-0.2-0.4
		s-0.3-0.1-0.5-0.1c-0.2,0-0.4,0.1-0.5,0.2c-0.1,0.1-0.2,0.3-0.2,0.6c0,0.2,0,0.4,0,0.7c0,0.3,0.1,0.5,0.2,0.6
		c0.1,0.1,0.3,0.2,0.5,0.2c0.2,0,0.3,0,0.5-0.1c0.1-0.1,0.2-0.2,0.2-0.4c0,0,0-0.1,0-0.1c0,0,0,0,0.1,0h0.2c0,0,0,0,0.1,0
		c0,0,0,0,0,0.1c0,0.1,0,0.2-0.1,0.3s-0.1,0.2-0.2,0.3c-0.1,0.1-0.2,0.2-0.3,0.2C58.8,31.2,58.6,31.2,58.4,31.2z"/>
	<path class="st0" d="M61,31.2c-0.2,0-0.4,0-0.6-0.1c-0.2-0.1-0.3-0.2-0.4-0.4c-0.1-0.2-0.1-0.4-0.1-0.6c0-0.1,0-0.2,0-0.3
		c0-0.1,0-0.2,0-0.3c0-0.2,0.1-0.4,0.2-0.6s0.2-0.3,0.4-0.4c0.2-0.1,0.3-0.1,0.6-0.1c0.2,0,0.4,0,0.6,0.1c0.2,0.1,0.3,0.2,0.4,0.4
		c0.1,0.2,0.1,0.4,0.1,0.6c0,0.1,0,0.2,0,0.3c0,0.1,0,0.2,0,0.3c0,0.2-0.1,0.4-0.1,0.6c-0.1,0.2-0.2,0.3-0.4,0.4
		C61.5,31.2,61.3,31.2,61,31.2z M61,30.9c0.2,0,0.4-0.1,0.5-0.2s0.2-0.3,0.2-0.6c0-0.1,0-0.2,0-0.3s0-0.2,0-0.3c0-0.2,0-0.3-0.1-0.4
		s-0.1-0.2-0.2-0.2c-0.1-0.1-0.2-0.1-0.4-0.1c-0.1,0-0.2,0-0.3,0.1c-0.1,0.1-0.2,0.1-0.2,0.2c-0.1,0.1-0.1,0.3-0.1,0.4
		c0,0.1,0,0.2,0,0.3s0,0.2,0,0.3c0,0.3,0.1,0.5,0.2,0.6C60.7,30.8,60.8,30.9,61,30.9z"/>
	<path class="st0" d="M62.8,31.2C62.8,31.2,62.7,31.2,62.8,31.2C62.7,31.1,62.7,31.1,62.8,31.2l-0.1-2.7c0,0,0-0.1,0-0.1
		c0,0,0,0,0.1,0H63c0,0,0.1,0,0.1,0c0,0,0,0,0,0l1.3,2v-2c0,0,0-0.1,0-0.1c0,0,0,0,0.1,0h0.2c0,0,0.1,0,0.1,0c0,0,0,0,0,0.1v2.6
		c0,0,0,0,0,0.1s0,0-0.1,0h-0.2c0,0-0.1,0-0.1,0c0,0,0,0,0,0l-1.3-2v1.9c0,0,0,0,0,0.1s0,0-0.1,0H62.8z"/>
	<path class="st0" d="M66.1,31.2C66.1,31.2,66.1,31.2,66.1,31.2C66,31.1,66,31.1,66.1,31.2L66,28.8h-0.8c0,0,0,0-0.1,0
		c0,0,0,0,0-0.1v-0.2c0,0,0-0.1,0-0.1c0,0,0,0,0.1,0h1.9c0,0,0.1,0,0.1,0c0,0,0,0,0,0.1v0.2c0,0,0,0,0,0.1c0,0,0,0-0.1,0h-0.7v2.3
		c0,0,0,0,0,0.1s0,0-0.1,0H66.1z"/>
	<path class="st0" d="M67.8,31.2C67.8,31.2,67.7,31.2,67.8,31.2C67.7,31.1,67.7,31.1,67.8,31.2l-0.1-2.7c0,0,0-0.1,0-0.1
		c0,0,0,0,0.1,0h1c0.3,0,0.5,0.1,0.7,0.2s0.3,0.3,0.3,0.6c0,0.2-0.1,0.4-0.2,0.5c-0.1,0.1-0.2,0.2-0.4,0.3l0.6,1c0,0,0,0,0,0
		c0,0,0,0,0,0.1s0,0-0.1,0h-0.2c0,0-0.1,0-0.1,0s0,0-0.1-0.1l-0.6-1h-0.7v1c0,0,0,0,0,0.1c0,0,0,0-0.1,0H67.8z M68.1,29.7h0.6
		c0.2,0,0.3,0,0.4-0.1s0.1-0.2,0.1-0.4c0-0.2,0-0.3-0.1-0.4c-0.1-0.1-0.2-0.1-0.4-0.1h-0.6V29.7z"/>
	<path class="st0" d="M70.1,31.2C70.1,31.2,70,31.2,70.1,31.2C70,31.1,70,31.1,70.1,31.2C70,31.1,70,31.1,70,31.1l1-2.5
		c0,0,0,0,0-0.1c0,0,0,0,0.1,0h0.3c0,0,0.1,0,0.1,0c0,0,0,0,0,0.1l1,2.5c0,0,0,0,0,0c0,0,0,0,0,0.1s0,0-0.1,0h-0.2c0,0-0.1,0-0.1,0
		c0,0,0,0,0,0l-0.2-0.6h-1.3l-0.2,0.6c0,0,0,0,0,0s0,0-0.1,0H70.1z M70.7,30.2h1.1l-0.5-1.4L70.7,30.2z"/>
	<path class="st0" d="M73.8,31.2c-0.2,0-0.4,0-0.6-0.1s-0.3-0.2-0.4-0.4c-0.1-0.2-0.1-0.3-0.1-0.6c0-0.1,0-0.2,0-0.3s0-0.2,0-0.4
		c0-0.2,0.1-0.4,0.1-0.6c0.1-0.2,0.2-0.3,0.4-0.4s0.4-0.1,0.6-0.1c0.2,0,0.3,0,0.5,0.1c0.1,0,0.2,0.1,0.3,0.2
		c0.1,0.1,0.2,0.2,0.2,0.3c0,0.1,0.1,0.2,0.1,0.3c0,0,0,0,0,0.1c0,0,0,0-0.1,0h-0.2c0,0,0,0-0.1,0s0,0,0-0.1c0-0.2-0.1-0.3-0.2-0.4
		c-0.1-0.1-0.3-0.1-0.5-0.1c-0.2,0-0.4,0.1-0.5,0.2s-0.2,0.3-0.2,0.6c0,0.2,0,0.4,0,0.7c0,0.3,0.1,0.5,0.2,0.6s0.3,0.2,0.5,0.2
		c0.2,0,0.3,0,0.5-0.1c0.1-0.1,0.2-0.2,0.2-0.4c0,0,0-0.1,0-0.1c0,0,0,0,0.1,0h0.2c0,0,0,0,0.1,0c0,0,0,0,0,0.1c0,0.1,0,0.2-0.1,0.3
		s-0.1,0.2-0.2,0.3c-0.1,0.1-0.2,0.2-0.3,0.2S74,31.2,73.8,31.2z"/>
	<path class="st0" d="M76.1,31.2C76.1,31.2,76.1,31.2,76.1,31.2C76.1,31.1,76.1,31.1,76.1,31.2l-0.1-2.4h-0.8c0,0,0,0-0.1,0
		c0,0,0,0,0-0.1v-0.2c0,0,0-0.1,0-0.1c0,0,0,0,0.1,0h1.9c0,0,0.1,0,0.1,0c0,0,0,0,0,0.1v0.2c0,0,0,0,0,0.1c0,0,0,0-0.1,0h-0.7v2.3
		c0,0,0,0,0,0.1s0,0-0.1,0H76.1z"/>
	<path class="st0" d="M78.8,31.2c-0.2,0-0.4,0-0.6-0.1c-0.2-0.1-0.3-0.2-0.4-0.4c-0.1-0.2-0.1-0.4-0.1-0.6v-1.6c0,0,0-0.1,0-0.1
		c0,0,0,0,0.1,0H78c0,0,0.1,0,0.1,0c0,0,0,0,0,0.1v1.6c0,0.3,0.1,0.4,0.2,0.6s0.3,0.2,0.5,0.2c0.2,0,0.4-0.1,0.5-0.2
		c0.1-0.1,0.2-0.3,0.2-0.6v-1.6c0,0,0-0.1,0-0.1c0,0,0,0,0.1,0h0.2c0,0,0,0,0.1,0c0,0,0,0,0,0.1v1.6c0,0.3,0,0.5-0.1,0.6
		c-0.1,0.2-0.2,0.3-0.4,0.4C79.2,31.2,79,31.2,78.8,31.2z"/>
	<path class="st0" d="M80.2,31.2C80.2,31.2,80.2,31.2,80.2,31.2C80.2,31.1,80.2,31.1,80.2,31.2c-0.1-0.1-0.1-0.1-0.1-0.1l1-2.5
		c0,0,0,0,0-0.1c0,0,0,0,0.1,0h0.3c0,0,0.1,0,0.1,0c0,0,0,0,0,0.1l1,2.5c0,0,0,0,0,0c0,0,0,0,0,0.1s0,0-0.1,0h-0.2c0,0-0.1,0-0.1,0
		c0,0,0,0,0,0L82,30.6h-1.3l-0.2,0.6c0,0,0,0,0,0s0,0-0.1,0H80.2z M80.9,30.2h1.1l-0.5-1.4L80.9,30.2z"/>
	<path class="st0" d="M83.1,31.2C83.1,31.2,83.1,31.2,83.1,31.2C83.1,31.1,83,31.1,83.1,31.2L83,28.5c0,0,0,0,0-0.1c0,0,0,0,0.1,0
		h0.2c0,0,0,0,0.1,0c0,0,0,0,0,0.1v2.3h1.3c0,0,0.1,0,0.1,0c0,0,0,0,0,0.1v0.2c0,0,0,0,0,0.1s0,0-0.1,0H83.1z"/>
	<path class="st0" d="M86.1,32C86.1,32,86.1,32,86.1,32C86.1,31.9,86.1,31.9,86.1,32l-0.1-4.2c0,0,0,0,0-0.1c0,0,0,0,0.1,0h0.2
		c0,0,0,0,0.1,0c0,0,0,0,0,0.1v4.1c0,0,0,0,0,0.1c0,0,0,0-0.1,0H86.1z"/>
	<path class="st0" d="M88.9,31.2c-0.2,0-0.4,0-0.6-0.1C88.1,31,88,31,87.9,30.8s-0.1-0.2-0.1-0.4c0,0,0,0,0-0.1c0,0,0,0,0.1,0h0.2
		c0,0,0.1,0,0.1,0s0,0,0,0.1c0,0.1,0,0.1,0.1,0.2c0.1,0.1,0.1,0.1,0.2,0.2c0.1,0,0.2,0.1,0.4,0.1c0.2,0,0.4,0,0.5-0.1
		c0.1-0.1,0.2-0.2,0.2-0.3c0-0.1,0-0.2-0.1-0.2c-0.1-0.1-0.1-0.1-0.3-0.2c-0.1,0-0.3-0.1-0.4-0.1c-0.2-0.1-0.3-0.1-0.5-0.2
		c-0.1-0.1-0.2-0.1-0.3-0.2s-0.1-0.2-0.1-0.4c0-0.1,0-0.3,0.1-0.4c0.1-0.1,0.2-0.2,0.3-0.3c0.1-0.1,0.3-0.1,0.5-0.1
		c0.2,0,0.3,0,0.4,0.1c0.1,0,0.2,0.1,0.3,0.2c0.1,0.1,0.1,0.1,0.2,0.2s0.1,0.2,0.1,0.2c0,0,0,0,0,0.1c0,0,0,0-0.1,0h-0.2
		c0,0,0,0-0.1,0c0,0,0,0,0-0.1c0-0.1-0.1-0.2-0.2-0.3s-0.2-0.1-0.4-0.1c-0.2,0-0.3,0-0.4,0.1s-0.2,0.2-0.2,0.3c0,0.1,0,0.2,0.1,0.2
		s0.1,0.1,0.2,0.2c0.1,0,0.2,0.1,0.4,0.1c0.2,0.1,0.4,0.1,0.5,0.2c0.1,0.1,0.2,0.1,0.3,0.2c0.1,0.1,0.1,0.2,0.1,0.4
		c0,0.2,0,0.3-0.1,0.4c-0.1,0.1-0.2,0.2-0.4,0.3S89.1,31.2,88.9,31.2z"/>
	<path class="st0" d="M91.1,31.2C91.1,31.2,91,31.2,91.1,31.2C91,31.1,91,31.1,91.1,31.2L91,28.8h-0.8c0,0,0,0-0.1,0c0,0,0,0,0-0.1
		v-0.2c0,0,0-0.1,0-0.1c0,0,0,0,0.1,0h1.9c0,0,0.1,0,0.1,0c0,0,0,0,0,0.1v0.2c0,0,0,0,0,0.1c0,0,0,0-0.1,0h-0.7v2.3c0,0,0,0,0,0.1
		s0,0-0.1,0H91.1z"/>
	<path class="st0" d="M92.2,31.2C92.2,31.2,92.1,31.2,92.2,31.2C92.1,31.1,92.1,31.1,92.2,31.2c-0.1-0.1-0.1-0.1-0.1-0.1l1-2.5
		c0,0,0,0,0-0.1c0,0,0,0,0.1,0h0.3c0,0,0.1,0,0.1,0c0,0,0,0,0,0.1l1,2.5c0,0,0,0,0,0c0,0,0,0,0,0.1s0,0-0.1,0h-0.2c0,0-0.1,0-0.1,0
		c0,0,0,0,0,0L94,30.6h-1.3l-0.2,0.6c0,0,0,0,0,0s0,0-0.1,0H92.2z M92.8,30.2h1.1l-0.5-1.4L92.8,30.2z"/>
	<path class="st0" d="M95.1,31.2C95.1,31.2,95,31.2,95.1,31.2C95,31.1,95,31.1,95.1,31.2L95,28.5c0,0,0-0.1,0-0.1c0,0,0,0,0.1,0h1.6
		c0,0,0.1,0,0.1,0c0,0,0,0,0,0.1v0.2c0,0,0,0.1,0,0.1s0,0-0.1,0h-1.3v0.9h1.2c0,0,0.1,0,0.1,0c0,0,0,0,0,0.1v0.2c0,0,0,0,0,0.1
		c0,0,0,0-0.1,0h-1.2v1.1c0,0,0,0,0,0.1c0,0,0,0-0.1,0H95.1z"/>
	<path class="st0" d="M97.4,31.2C97.3,31.2,97.3,31.2,97.4,31.2C97.3,31.1,97.3,31.1,97.4,31.2l-0.1-2.7c0,0,0-0.1,0-0.1
		c0,0,0,0,0.1,0H99c0,0,0.1,0,0.1,0c0,0,0,0,0,0.1v0.2c0,0,0,0.1,0,0.1s0,0-0.1,0h-1.3v0.9h1.2c0,0,0.1,0,0.1,0c0,0,0,0,0,0.1v0.2
		c0,0,0,0,0,0.1c0,0,0,0-0.1,0h-1.2v1.1c0,0,0,0,0,0.1c0,0,0,0-0.1,0H97.4z"/>
	<path class="st0" d="M99.7,31.2C99.6,31.2,99.6,31.2,99.7,31.2C99.6,31.1,99.6,31.1,99.7,31.2l-0.1-2.7c0,0,0,0,0-0.1
		c0,0,0,0,0.1,0h0.2c0,0,0,0,0.1,0c0,0,0,0,0,0.1v2.6c0,0,0,0,0,0.1c0,0,0,0-0.1,0H99.7z"/>
	<path class="st0" d="M100.7,31.2C100.7,31.2,100.7,31.2,100.7,31.2C100.7,31.1,100.6,31.1,100.7,31.2l-0.1-2.7c0,0,0-0.1,0-0.1
		c0,0,0,0,0.1,0h0.2c0,0,0.1,0,0.1,0c0,0,0,0,0,0l1.3,2v-2c0,0,0-0.1,0-0.1c0,0,0,0,0.1,0h0.2c0,0,0.1,0,0.1,0c0,0,0,0,0,0.1v2.6
		c0,0,0,0,0,0.1s0,0-0.1,0h-0.2c0,0,0,0-0.1,0s0,0,0,0l-1.3-2v1.9c0,0,0,0,0,0.1c0,0,0,0-0.1,0H100.7z"/>
	<path class="st0" d="M104.4,31.2c-0.2,0-0.4,0-0.6-0.1c-0.2-0.1-0.3-0.2-0.4-0.4c-0.1-0.2-0.1-0.3-0.1-0.6c0-0.1,0-0.2,0-0.4
		c0-0.1,0-0.3,0-0.4c0-0.2,0.1-0.4,0.1-0.5s0.2-0.3,0.4-0.4c0.2-0.1,0.4-0.1,0.6-0.1c0.2,0,0.3,0,0.5,0.1c0.1,0.1,0.2,0.1,0.3,0.2
		c0.1,0.1,0.2,0.2,0.2,0.2c0,0.1,0.1,0.2,0.1,0.2c0,0,0,0,0,0.1c0,0,0,0-0.1,0h-0.2c0,0,0,0-0.1,0c0,0,0,0,0-0.1
		c0-0.1-0.1-0.1-0.1-0.2c-0.1-0.1-0.1-0.1-0.2-0.2c-0.1,0-0.2-0.1-0.3-0.1c-0.2,0-0.4,0.1-0.5,0.2s-0.2,0.3-0.2,0.6
		c0,0.2,0,0.5,0,0.7c0,0.3,0.1,0.4,0.2,0.6c0.1,0.1,0.3,0.2,0.5,0.2c0.1,0,0.3,0,0.4-0.1c0.1-0.1,0.2-0.1,0.3-0.2
		c0.1-0.1,0.1-0.2,0.1-0.4V30h-0.6c0,0,0,0-0.1,0c0,0,0,0,0-0.1v-0.1c0,0,0-0.1,0-0.1c0,0,0,0,0.1,0h0.9c0,0,0.1,0,0.1,0
		c0,0,0,0,0,0.1v0.4c0,0.2,0,0.4-0.1,0.6c-0.1,0.2-0.2,0.3-0.4,0.4C104.8,31.2,104.6,31.2,104.4,31.2z"/>
	<path class="st0" d="M107.9,31.2c-0.2,0-0.4,0-0.6-0.1c-0.2-0.1-0.3-0.2-0.4-0.3s-0.1-0.2-0.1-0.4c0,0,0,0,0-0.1c0,0,0,0,0.1,0h0.2
		c0,0,0.1,0,0.1,0s0,0,0,0.1c0,0.1,0,0.1,0.1,0.2c0.1,0.1,0.1,0.1,0.2,0.2c0.1,0,0.2,0.1,0.4,0.1c0.2,0,0.4,0,0.5-0.1
		c0.1-0.1,0.2-0.2,0.2-0.3c0-0.1,0-0.2-0.1-0.2c-0.1-0.1-0.1-0.1-0.3-0.2c-0.1,0-0.3-0.1-0.4-0.1c-0.2-0.1-0.3-0.1-0.5-0.2
		c-0.1-0.1-0.2-0.1-0.3-0.2s-0.1-0.2-0.1-0.4c0-0.1,0-0.3,0.1-0.4c0.1-0.1,0.2-0.2,0.3-0.3c0.1-0.1,0.3-0.1,0.5-0.1
		c0.2,0,0.3,0,0.4,0.1c0.1,0,0.2,0.1,0.3,0.2c0.1,0.1,0.1,0.1,0.2,0.2s0.1,0.2,0.1,0.2c0,0,0,0,0,0.1c0,0,0,0-0.1,0h-0.2
		c0,0,0,0-0.1,0c0,0,0,0,0-0.1c0-0.1-0.1-0.2-0.2-0.3s-0.2-0.1-0.4-0.1c-0.2,0-0.3,0-0.4,0.1s-0.2,0.2-0.2,0.3c0,0.1,0,0.2,0.1,0.2
		s0.1,0.1,0.2,0.2c0.1,0,0.2,0.1,0.4,0.1c0.2,0.1,0.4,0.1,0.5,0.2c0.1,0.1,0.2,0.1,0.3,0.2c0.1,0.1,0.1,0.2,0.1,0.4
		c0,0.2,0,0.3-0.1,0.4c-0.1,0.1-0.2,0.2-0.4,0.3S108.1,31.2,107.9,31.2z"/>
	<path class="st0" d="M110.4,31.2c-0.2,0-0.4,0-0.6-0.1s-0.3-0.2-0.4-0.4c-0.1-0.2-0.1-0.4-0.1-0.6c0-0.1,0-0.2,0-0.3
		c0-0.1,0-0.2,0-0.3c0-0.2,0.1-0.4,0.2-0.6c0.1-0.2,0.2-0.3,0.4-0.4c0.2-0.1,0.3-0.1,0.6-0.1c0.2,0,0.4,0,0.6,0.1
		c0.2,0.1,0.3,0.2,0.4,0.4c0.1,0.2,0.1,0.4,0.1,0.6c0,0.1,0,0.2,0,0.3c0,0.1,0,0.2,0,0.3c0,0.2-0.1,0.4-0.1,0.6
		c-0.1,0.2-0.2,0.3-0.4,0.4C110.8,31.2,110.6,31.2,110.4,31.2z M110.4,30.9c0.2,0,0.4-0.1,0.5-0.2s0.2-0.3,0.2-0.6
		c0-0.1,0-0.2,0-0.3s0-0.2,0-0.3c0-0.2,0-0.3-0.1-0.4s-0.1-0.2-0.2-0.2c-0.1-0.1-0.2-0.1-0.4-0.1c-0.1,0-0.2,0-0.3,0.1
		c-0.1,0.1-0.2,0.1-0.2,0.2s-0.1,0.3-0.1,0.4c0,0.1,0,0.2,0,0.3s0,0.2,0,0.3c0,0.3,0.1,0.5,0.2,0.6S110.2,30.9,110.4,30.9z"/>
	<path class="st0" d="M112.2,31.2C112.2,31.2,112.1,31.2,112.2,31.2C112.1,31.1,112.1,31.1,112.2,31.2l-0.1-2.7c0,0,0,0,0-0.1
		c0,0,0,0,0.1,0h0.2c0,0,0,0,0.1,0c0,0,0,0,0,0.1v2.3h1.3c0,0,0.1,0,0.1,0c0,0,0,0,0,0.1v0.2c0,0,0,0,0,0.1s0,0-0.1,0H112.2z"/>
	<path class="st0" d="M115.3,31.2c-0.2,0-0.4,0-0.6-0.1c-0.2-0.1-0.3-0.2-0.4-0.4c-0.1-0.2-0.1-0.4-0.1-0.6v-1.6c0,0,0-0.1,0-0.1
		c0,0,0,0,0.1,0h0.2c0,0,0.1,0,0.1,0c0,0,0,0,0,0.1v1.6c0,0.3,0.1,0.4,0.2,0.6s0.3,0.2,0.5,0.2c0.2,0,0.4-0.1,0.5-0.2
		c0.1-0.1,0.2-0.3,0.2-0.6v-1.6c0,0,0-0.1,0-0.1c0,0,0,0,0.1,0h0.2c0,0,0,0,0.1,0c0,0,0,0,0,0.1v1.6c0,0.3,0,0.5-0.1,0.6
		c-0.1,0.2-0.2,0.3-0.4,0.4C115.7,31.2,115.5,31.2,115.3,31.2z"/>
	<path class="st0" d="M117.7,31.2C117.6,31.2,117.6,31.2,117.7,31.2C117.6,31.1,117.6,31.1,117.7,31.2l-0.1-2.4h-0.8c0,0,0,0-0.1,0
		c0,0,0,0,0-0.1v-0.2c0,0,0-0.1,0-0.1c0,0,0,0,0.1,0h1.9c0,0,0.1,0,0.1,0c0,0,0,0,0,0.1v0.2c0,0,0,0,0,0.1c0,0,0,0-0.1,0H118v2.3
		c0,0,0,0,0,0.1s0,0-0.1,0H117.7z"/>
	<path class="st0" d="M119.3,31.2C119.3,31.2,119.3,31.2,119.3,31.2C119.3,31.1,119.3,31.1,119.3,31.2l-0.1-2.7c0,0,0,0,0-0.1
		c0,0,0,0,0.1,0h0.2c0,0,0,0,0.1,0c0,0,0,0,0,0.1v2.6c0,0,0,0,0,0.1c0,0,0,0-0.1,0H119.3z"/>
	<path class="st0" d="M121.3,31.2c-0.2,0-0.4,0-0.6-0.1s-0.3-0.2-0.4-0.4c-0.1-0.2-0.1-0.4-0.1-0.6c0-0.1,0-0.2,0-0.3
		c0-0.1,0-0.2,0-0.3c0-0.2,0.1-0.4,0.2-0.6c0.1-0.2,0.2-0.3,0.4-0.4c0.2-0.1,0.3-0.1,0.6-0.1c0.2,0,0.4,0,0.6,0.1
		c0.2,0.1,0.3,0.2,0.4,0.4c0.1,0.2,0.1,0.4,0.1,0.6c0,0.1,0,0.2,0,0.3c0,0.1,0,0.2,0,0.3c0,0.2-0.1,0.4-0.1,0.6
		c-0.1,0.2-0.2,0.3-0.4,0.4C121.7,31.2,121.5,31.2,121.3,31.2z M121.3,30.9c0.2,0,0.4-0.1,0.5-0.2s0.2-0.3,0.2-0.6
		c0-0.1,0-0.2,0-0.3s0-0.2,0-0.3c0-0.2,0-0.3-0.1-0.4s-0.1-0.2-0.2-0.2c-0.1-0.1-0.2-0.1-0.4-0.1c-0.1,0-0.2,0-0.3,0.1
		c-0.1,0.1-0.2,0.1-0.2,0.2s-0.1,0.3-0.1,0.4c0,0.1,0,0.2,0,0.3s0,0.2,0,0.3c0,0.3,0.1,0.5,0.2,0.6S121.1,30.9,121.3,30.9z"/>
	<path class="st0" d="M123.1,31.2C123,31.2,123,31.2,123.1,31.2C123,31.1,123,31.1,123.1,31.2l-0.1-2.7c0,0,0-0.1,0-0.1
		c0,0,0,0,0.1,0h0.2c0,0,0.1,0,0.1,0c0,0,0,0,0,0l1.3,2v-2c0,0,0-0.1,0-0.1c0,0,0,0,0.1,0h0.2c0,0,0.1,0,0.1,0c0,0,0,0,0,0.1v2.6
		c0,0,0,0,0,0.1s0,0-0.1,0h-0.2c0,0,0,0-0.1,0s0,0,0,0l-1.3-2v1.9c0,0,0,0,0,0.1c0,0,0,0-0.1,0H123.1z"/>
</g>
</svg>
