<?xml version="1.0" encoding="utf-8"?>
<!-- Generator: Adobe Illustrator 23.1.1, SVG Export Plug-In . SVG Version: 6.00 Build 0)  -->
<svg version="1.1" id="Layer_1" xmlns="http://www.w3.org/2000/svg" xmlns:xlink="http://www.w3.org/1999/xlink" x="0px" y="0px"
	 viewBox="0 0 133 40" style="enable-background:new 0 0 133 40;" xml:space="preserve">
<style type="text/css">
	.st0{fill:#222222;}
</style>
<path class="st0" d="M31.2,24.9c0,2.8-0.9,5.4-2.4,7.6c-2.4,3.4-6.4,5.6-11,5.6C11,37.8,5.3,32.3,5,25.4c-0.1-2.1,0.3-4.1,1.1-5.8
	L6.3,7.2c0-1.1,0.9-2,2.1-2c1.1,0,2.1,0.9,2.1,2v0.1l-0.2,7c0.1-0.1,0.3-0.2,0.4-0.3l3-9.9C14,3,15.2,2.4,16.2,2.7
	c0.9,0.3,1.5,1.1,1.5,2c0,0.2,0,0.4-0.1,0.6l-2,6.7l0,0c0.1,0,0.3-0.1,0.4-0.1L21.2,3C21.8,2.1,23,1.8,24,2.3c0.7,0.4,1,1.1,1,1.8
	c0,0.4-0.1,0.7-0.3,1.1L21,12.1c0.5,0.1,1,0.3,1.5,0.4c0.7,0.2,1.4,0.5,2,0.9c1.7,1,3.1,2.3,4.4,4.1c0.5,0.9,0.4,1.4,0.2,1.9
	c-0.1,0.4-0.3,0.7-0.6,1c-0.4,0.4-0.9,0.6-1.4,0.6c-0.5,0-0.9-0.2-1.3-0.5c0,0,0,0,0,0c-0.1,0-0.1-0.1-0.2-0.1l-1.1-1.1
	c-0.5-0.6-1-1.1-1.5-1.5c-1.5-1.1-3.2-1.4-5.4-1.2c-3.9,0.3-7.7,3.7-8.2,7.6c-0.7,5.6,3.9,10.2,9.5,9.7c3.8-0.4,6.9-3.3,7.7-7
	c0.1-0.4,0.1-0.8,0.1-1.2c0-0.3,0-0.6,0-0.9v-0.6c0-0.4,0.1-0.7,0.3-1c0.4-0.7,1.1-1.2,2-1.2c0.3,0,0.5,0,0.7,0.1
	c0.3,0.1,0.6,0.3,0.8,0.5c0.3,0.3,0.5,0.7,0.6,1.1C31.2,24,31.2,24.4,31.2,24.9z"/>
<path class="st0" d="M16.7,17.3c0.6-0.1,1.7-0.2,2.7,0c0.2,0,0.3,0.2,0.2,0.4L18.8,19c0,0.1,0,0.1,0,0.2l2,10.4c0,0.1,0,0.2-0.1,0.2
	l-2.5,2.3c-0.1,0.1-0.2,0.1-0.3,0l-2.5-2.3c-0.1-0.1-0.1-0.1-0.1-0.2l2-10.5c0-0.1,0-0.1,0-0.2l-0.7-1.2
	C16.5,17.5,16.6,17.3,16.7,17.3z"/>
<g>
	<path class="st0" d="M46.1,25.2c-0.1-0.6-0.3-1.3-0.9-2.8c-0.6-1.6-0.8-2-1.2-2.4c-0.4-0.3-0.8-0.5-1.4-0.5h-1.8v2.9
		c0,1.2,0,1.9,0.1,2.7H37c0.1-0.8,0.1-1.4,0.1-2.7v-9.6c0-1.1,0-1.8-0.1-2.6c0.8,0,1.5,0.1,2.7,0.1h4.7c2.9,0,4.6,1.5,4.6,4.1
		c0,1.3-0.4,2.3-1.1,2.9c-0.4,0.4-0.8,0.6-1.7,0.9c0.9,0.3,1.3,0.7,1.9,2c0.3,0.6,0.5,1.2,1.3,3.1c0.2,0.5,0.4,0.9,0.9,1.9H46.1z
		 M43.5,16.5c1.1,0,1.7-0.6,1.7-1.7c0-1-0.6-1.5-1.7-1.5h-2.8v3.2H43.5z"/>
	<path class="st0" d="M55.3,14.3c-0.1,0.7-0.1,1.5-0.1,2.7v5.5c0,1,0.1,1.9,0.1,2.7h-3.7c0.1-0.9,0.1-1.6,0.1-2.7V17
		c0-1.2,0-1.9-0.1-2.7H55.3z M55.3,10.3V13h-3.6v-2.7H55.3z"/>
	<path class="st0" d="M58.7,13.9c0-0.9,0-1.6-0.1-2.5h3.7C62.1,12.2,62,13,62,13.9v0.4h0.6c0.8,0,1.2,0,1.8-0.1v3
		c-0.5-0.1-1-0.1-1.6-0.1H62v4.6c0,0.5,0.1,0.8,0.3,0.9c0.2,0.1,0.5,0.2,0.8,0.2c0.5,0,0.8-0.1,1.3-0.3l0.3,2.7
		c-0.8,0.3-1.5,0.4-2.5,0.4c-1.2,0-2.1-0.2-2.6-0.6c-0.7-0.5-0.9-1.1-0.9-2.3V17H58c-0.6,0-1,0-1.6,0.1v-3c0.5,0.1,1,0.1,1.6,0.1
		h0.6V13.9z"/>
	<path class="st0" d="M68.7,20.7c0.2,1.5,1,2.2,2.4,2.2c0.7,0,1.3-0.2,1.8-0.7c0.3-0.3,0.4-0.4,0.5-0.9l3.1,0.9
		c-0.4,0.9-0.7,1.3-1.2,1.8c-1,1-2.5,1.5-4.2,1.5c-1.8,0-3.1-0.5-4.2-1.5c-1.1-1.1-1.6-2.6-1.6-4.4c0-3.5,2.3-5.9,5.7-5.9
		c2.8,0,4.7,1.5,5.4,4.2c0.1,0.6,0.2,1.3,0.3,2.3c0,0.1,0,0.2,0,0.4H68.7z M73.3,18.3c-0.3-1.1-1-1.8-2.3-1.8c-1.3,0-2,0.6-2.3,1.8
		H73.3z"/>
	<path class="st0" d="M81.6,20.3c0.1,0.6,0.2,1,0.5,1.3c0.4,0.5,1.2,0.8,2.1,0.8c1.4,0,2.2-0.6,2.2-1.6c0-0.6-0.3-1-0.8-1.3
		c-0.4-0.2-0.8-0.3-2.7-0.7c-1.6-0.4-2.2-0.6-2.9-1c-1.1-0.8-1.7-2-1.7-3.4c0-2.8,2.2-4.5,5.8-4.5c2.3,0,4,0.7,5,2
		c0.4,0.6,0.7,1.1,0.9,2.2l-3.8,0.4c-0.2-1.2-0.9-1.6-2.2-1.6c-1.1,0-1.9,0.6-1.9,1.4c0,0.5,0.3,0.9,0.8,1.1
		c0.4,0.2,0.4,0.2,2.5,0.6c1.4,0.3,2.2,0.6,2.9,1c1.3,0.8,1.9,2,1.9,3.7c0,1.3-0.4,2.5-1.3,3.3c-1,1-2.6,1.5-4.7,1.5
		c-1.5,0-3-0.3-4-0.9c-0.9-0.5-1.6-1.3-1.9-2.3c-0.2-0.4-0.3-0.8-0.4-1.7L81.6,20.3z"/>
	<path class="st0" d="M93.3,13.9c0-0.9,0-1.6-0.1-2.5h3.7c-0.1,0.7-0.1,1.6-0.1,2.5v0.4h0.6c0.8,0,1.2,0,1.8-0.1v3
		c-0.5-0.1-1-0.1-1.6-0.1h-0.8v4.6c0,0.5,0.1,0.8,0.3,0.9c0.2,0.1,0.5,0.2,0.8,0.2c0.5,0,0.8-0.1,1.3-0.3l0.3,2.7
		c-0.8,0.3-1.5,0.4-2.5,0.4c-1.2,0-2.1-0.2-2.6-0.6c-0.7-0.5-0.9-1.1-0.9-2.3V17h-0.7c-0.6,0-1,0-1.6,0.1v-3c0.5,0.1,1,0.1,1.6,0.1
		h0.6V13.9z"/>
	<path class="st0" d="M104.2,14.3c-0.1,0.7-0.1,1.5-0.1,2.7v5.5c0,1,0.1,1.9,0.1,2.7h-3.7c0.1-0.9,0.1-1.6,0.1-2.7V17
		c0-1.2,0-1.9-0.1-2.7H104.2z M104.2,10.3V13h-3.6v-2.7H104.2z"/>
	<path class="st0" d="M106.1,25.2c0.1-0.8,0.1-1.6,0.1-2.7V17c0-1.2,0-2-0.1-2.7h3.6V15c0,0.1,0,0.4,0,0.5c1.1-1.1,2.2-1.5,3.7-1.5
		c1.2,0,2.2,0.3,2.9,1c0.7,0.7,1,1.6,1,3v4.5c0,1,0.1,1.9,0.1,2.7h-3.7c0.1-0.9,0.1-1.6,0.1-2.7v-3.7c0-0.7-0.1-1-0.3-1.3
		c-0.2-0.3-0.6-0.5-1.2-0.5c-1,0-1.9,0.6-2.7,1.9v3.6c0,1,0,1.8,0.1,2.7H106.1z"/>
	<path class="st0" d="M120.7,13.9c0-0.9,0-1.6-0.1-2.5h3.7c-0.1,0.7-0.1,1.6-0.1,2.5v0.4h0.6c0.8,0,1.2,0,1.8-0.1v3
		c-0.5-0.1-1-0.1-1.6-0.1h-0.8v4.6c0,0.5,0.1,0.8,0.3,0.9c0.2,0.1,0.5,0.2,0.8,0.2c0.5,0,0.8-0.1,1.3-0.3l0.3,2.7
		c-0.8,0.3-1.5,0.4-2.5,0.4c-1.2,0-2.1-0.2-2.6-0.6c-0.7-0.5-0.9-1.1-0.9-2.3V17H120c-0.6,0-1,0-1.6,0.1v-3c0.5,0.1,1,0.1,1.6,0.1
		h0.6V13.9z"/>
</g>
<g>
	<path class="st0" d="M37.3,31.7C37.3,31.7,37.2,31.7,37.3,31.7C37.2,31.7,37.2,31.7,37.3,31.7l-0.1-2.8c0,0,0-0.1,0-0.1
		c0,0,0,0,0.1,0H39c0,0,0.1,0,0.1,0c0,0,0,0,0,0.1v0.2c0,0,0,0.1,0,0.1s0,0-0.1,0h-1.4v1h1.3c0,0,0.1,0,0.1,0c0,0,0,0,0,0.1v0.2
		c0,0,0,0.1,0,0.1c0,0,0,0-0.1,0h-1.3v1.1c0,0,0,0.1,0,0.1c0,0,0,0-0.1,0H37.3z"/>
	<path class="st0" d="M40.3,31.7C40.3,31.7,40.3,31.7,40.3,31.7C40.2,31.7,40.2,31.7,40.3,31.7l-0.1-2.5h-0.8c0,0,0,0-0.1,0
		c0,0,0,0,0-0.1v-0.2c0,0,0-0.1,0-0.1c0,0,0,0,0.1,0h2c0,0,0.1,0,0.1,0c0,0,0,0,0,0.1v0.2c0,0,0,0.1,0,0.1c0,0,0,0-0.1,0h-0.8v2.4
		c0,0,0,0.1,0,0.1s0,0-0.1,0H40.3z"/>
	<path class="st0" d="M42.1,31.7C42,31.7,42,31.7,42.1,31.7C42,31.7,42,31.7,42.1,31.7L42,28.9c0,0,0-0.1,0-0.1c0,0,0,0,0.1,0h1.7
		c0,0,0.1,0,0.1,0c0,0,0,0,0,0.1v0.2c0,0,0,0.1,0,0.1c0,0,0,0-0.1,0h-1.4v0.9h1.3c0,0,0.1,0,0.1,0c0,0,0,0,0,0.1v0.2
		c0,0,0,0.1,0,0.1c0,0,0,0-0.1,0h-1.3v0.9h1.4c0,0,0.1,0,0.1,0c0,0,0,0,0,0.1v0.2c0,0,0,0.1,0,0.1c0,0,0,0-0.1,0H42.1z"/>
	<path class="st0" d="M45.5,32.6C45.5,32.6,45.5,32.6,45.5,32.6C45.4,32.5,45.4,32.5,45.5,32.6l-0.1-4.4c0,0,0-0.1,0-0.1
		c0,0,0,0,0.1,0h0.2c0,0,0.1,0,0.1,0c0,0,0,0,0,0.1v4.4c0,0,0,0.1,0,0.1c0,0,0,0-0.1,0H45.5z"/>
	<path class="st0" d="M48.5,31.8c-0.2,0-0.4,0-0.6-0.1c-0.2-0.1-0.3-0.2-0.4-0.4c-0.1-0.2-0.1-0.4-0.2-0.6c0-0.1,0-0.2,0-0.4
		c0-0.1,0-0.3,0-0.4c0-0.2,0.1-0.4,0.2-0.6c0.1-0.2,0.2-0.3,0.4-0.4c0.2-0.1,0.4-0.1,0.6-0.1c0.2,0,0.4,0,0.5,0.1
		c0.1,0.1,0.3,0.1,0.4,0.2c0.1,0.1,0.2,0.2,0.2,0.3c0,0.1,0.1,0.2,0.1,0.2c0,0,0,0,0,0.1c0,0,0,0-0.1,0h-0.2c0,0,0,0-0.1,0
		c0,0,0,0,0-0.1c0-0.1-0.1-0.1-0.1-0.2c-0.1-0.1-0.1-0.1-0.2-0.2s-0.2-0.1-0.4-0.1c-0.2,0-0.4,0.1-0.5,0.2c-0.1,0.1-0.2,0.3-0.2,0.6
		c0,0.2,0,0.5,0,0.7c0,0.3,0.1,0.5,0.2,0.6c0.1,0.1,0.3,0.2,0.5,0.2c0.1,0,0.3,0,0.4-0.1c0.1-0.1,0.2-0.1,0.3-0.2
		c0.1-0.1,0.1-0.3,0.1-0.4v-0.2h-0.6c0,0,0,0-0.1,0c0,0,0,0,0-0.1v-0.1c0,0,0-0.1,0-0.1c0,0,0,0,0.1,0h0.9c0,0,0.1,0,0.1,0
		c0,0,0,0,0,0.1v0.4c0,0.2,0,0.4-0.1,0.6c-0.1,0.2-0.2,0.3-0.4,0.4C48.9,31.7,48.7,31.8,48.5,31.8z"/>
	<path class="st0" d="M50.3,31.7C50.3,31.7,50.3,31.7,50.3,31.7C50.3,31.7,50.3,31.7,50.3,31.7l-0.1-2.8c0,0,0-0.1,0-0.1
		c0,0,0,0,0.1,0h0.2c0,0,0.1,0,0.1,0c0,0,0,0,0,0.1v2.7c0,0,0,0.1,0,0.1c0,0,0,0-0.1,0H50.3z"/>
	<path class="st0" d="M52.4,31.8c-0.2,0-0.4,0-0.6-0.1c-0.2-0.1-0.3-0.2-0.4-0.4c-0.1-0.2-0.1-0.4-0.2-0.6c0-0.1,0-0.2,0-0.4
		c0-0.1,0-0.3,0-0.4c0-0.2,0.1-0.4,0.2-0.6c0.1-0.2,0.2-0.3,0.4-0.4c0.2-0.1,0.4-0.1,0.6-0.1c0.2,0,0.4,0,0.5,0.1
		c0.1,0.1,0.3,0.1,0.4,0.2c0.1,0.1,0.2,0.2,0.2,0.3c0,0.1,0.1,0.2,0.1,0.2c0,0,0,0,0,0.1c0,0,0,0-0.1,0h-0.2c0,0,0,0-0.1,0
		c0,0,0,0,0-0.1c0-0.1-0.1-0.1-0.1-0.2c-0.1-0.1-0.1-0.1-0.2-0.2s-0.2-0.1-0.4-0.1c-0.2,0-0.4,0.1-0.5,0.2c-0.1,0.1-0.2,0.3-0.2,0.6
		c0,0.2,0,0.5,0,0.7c0,0.3,0.1,0.5,0.2,0.6c0.1,0.1,0.3,0.2,0.5,0.2c0.1,0,0.3,0,0.4-0.1c0.1-0.1,0.2-0.1,0.3-0.2
		c0.1-0.1,0.1-0.3,0.1-0.4v-0.2h-0.6c0,0,0,0-0.1,0c0,0,0,0,0-0.1v-0.1c0,0,0-0.1,0-0.1c0,0,0,0,0.1,0h0.9c0,0,0.1,0,0.1,0
		c0,0,0,0,0,0.1v0.4c0,0.2,0,0.4-0.1,0.6c-0.1,0.2-0.2,0.3-0.4,0.4C52.9,31.7,52.7,31.8,52.4,31.8z"/>
	<path class="st0" d="M55.2,32.6C55.2,32.6,55.2,32.6,55.2,32.6C55.1,32.5,55.1,32.5,55.2,32.6l-0.1-4.4c0,0,0-0.1,0-0.1
		c0,0,0,0,0.1,0h0.2c0,0,0.1,0,0.1,0c0,0,0,0,0,0.1v4.4c0,0,0,0.1,0,0.1c0,0,0,0-0.1,0H55.2z"/>
	<path class="st0" d="M58.2,31.8c-0.3,0-0.5,0-0.6-0.1c-0.2-0.1-0.3-0.2-0.4-0.4c-0.1-0.2-0.1-0.4-0.1-0.6c0-0.1,0-0.2,0-0.4
		s0-0.3,0-0.4c0-0.2,0.1-0.4,0.1-0.6c0.1-0.2,0.2-0.3,0.4-0.4c0.2-0.1,0.4-0.1,0.6-0.1c0.2,0,0.4,0,0.5,0.1c0.1,0.1,0.3,0.1,0.4,0.2
		c0.1,0.1,0.2,0.2,0.2,0.3c0,0.1,0.1,0.2,0.1,0.3c0,0,0,0,0,0.1c0,0,0,0-0.1,0H59c0,0,0,0-0.1,0c0,0,0,0,0-0.1
		c0-0.2-0.1-0.4-0.3-0.4c-0.1-0.1-0.3-0.1-0.5-0.1c-0.2,0-0.4,0.1-0.5,0.2c-0.1,0.1-0.2,0.3-0.2,0.6c0,0.2,0,0.5,0,0.7
		c0,0.3,0.1,0.5,0.2,0.6c0.1,0.1,0.3,0.2,0.5,0.2c0.2,0,0.4,0,0.5-0.1c0.1-0.1,0.2-0.2,0.3-0.4c0,0,0-0.1,0-0.1c0,0,0,0,0.1,0h0.2
		c0,0,0,0,0.1,0c0,0,0,0,0,0.1c0,0.1,0,0.2-0.1,0.3c0,0.1-0.1,0.2-0.2,0.3c-0.1,0.1-0.2,0.2-0.4,0.2C58.5,31.7,58.4,31.8,58.2,31.8z
		"/>
	<path class="st0" d="M60.9,31.8c-0.2,0-0.4,0-0.6-0.1c-0.2-0.1-0.3-0.2-0.4-0.4c-0.1-0.2-0.1-0.4-0.2-0.6c0-0.1,0-0.2,0-0.3
		c0-0.1,0-0.2,0-0.3c0-0.3,0.1-0.5,0.2-0.6c0.1-0.2,0.2-0.3,0.4-0.4c0.2-0.1,0.4-0.1,0.6-0.1c0.2,0,0.4,0,0.6,0.1
		c0.2,0.1,0.3,0.2,0.4,0.4c0.1,0.2,0.1,0.4,0.2,0.6c0,0.1,0,0.2,0,0.3c0,0.1,0,0.2,0,0.3c0,0.3-0.1,0.5-0.2,0.6
		c-0.1,0.2-0.2,0.3-0.4,0.4C61.4,31.7,61.2,31.8,60.9,31.8z M60.9,31.4c0.2,0,0.4-0.1,0.5-0.2c0.1-0.1,0.2-0.3,0.2-0.6
		c0-0.1,0-0.2,0-0.3s0-0.2,0-0.3c0-0.2,0-0.3-0.1-0.5c-0.1-0.1-0.2-0.2-0.3-0.3c-0.1-0.1-0.2-0.1-0.4-0.1c-0.1,0-0.3,0-0.4,0.1
		c-0.1,0.1-0.2,0.1-0.3,0.3c-0.1,0.1-0.1,0.3-0.1,0.5c0,0.1,0,0.2,0,0.3s0,0.2,0,0.3c0,0.3,0.1,0.5,0.2,0.6
		C60.6,31.4,60.7,31.4,60.9,31.4z"/>
	<path class="st0" d="M62.8,31.7C62.7,31.7,62.7,31.7,62.8,31.7C62.7,31.7,62.7,31.7,62.8,31.7l-0.1-2.8c0,0,0-0.1,0-0.1
		c0,0,0,0,0.1,0H63c0,0,0.1,0,0.1,0c0,0,0,0,0,0l1.4,2.1v-2.1c0,0,0-0.1,0-0.1c0,0,0,0,0.1,0h0.2c0,0,0.1,0,0.1,0c0,0,0,0,0,0.1v2.7
		c0,0,0,0.1,0,0.1c0,0,0,0-0.1,0h-0.2c0,0-0.1,0-0.1,0c0,0,0,0,0,0l-1.4-2.1v2c0,0,0,0.1,0,0.1c0,0,0,0-0.1,0H62.8z"/>
	<path class="st0" d="M66.3,31.7C66.2,31.7,66.2,31.7,66.3,31.7C66.2,31.7,66.2,31.7,66.3,31.7l-0.1-2.5h-0.8c0,0,0,0-0.1,0
		c0,0,0,0,0-0.1v-0.2c0,0,0-0.1,0-0.1c0,0,0,0,0.1,0h2c0,0,0.1,0,0.1,0c0,0,0,0,0,0.1v0.2c0,0,0,0.1,0,0.1c0,0,0,0-0.1,0h-0.8v2.4
		c0,0,0,0.1,0,0.1c0,0,0,0-0.1,0H66.3z"/>
	<path class="st0" d="M68,31.7C68,31.7,68,31.7,68,31.7C67.9,31.7,67.9,31.7,68,31.7l-0.1-2.8c0,0,0-0.1,0-0.1c0,0,0,0,0.1,0h1
		c0.3,0,0.6,0.1,0.7,0.2c0.2,0.1,0.3,0.4,0.3,0.6c0,0.2-0.1,0.4-0.2,0.5c-0.1,0.1-0.3,0.2-0.4,0.3l0.6,1.1c0,0,0,0,0,0
		c0,0,0,0,0,0.1c0,0,0,0-0.1,0h-0.2c0,0-0.1,0-0.1,0c0,0,0,0-0.1-0.1l-0.6-1h-0.7v1.1c0,0,0,0.1,0,0.1c0,0,0,0-0.1,0H68z M68.3,30.2
		H69c0.2,0,0.4,0,0.5-0.1c0.1-0.1,0.2-0.2,0.2-0.4c0-0.2,0-0.3-0.1-0.4c-0.1-0.1-0.3-0.1-0.5-0.1h-0.7V30.2z"/>
	<path class="st0" d="M70.4,31.7C70.4,31.7,70.4,31.7,70.4,31.7C70.4,31.7,70.3,31.7,70.4,31.7c-0.1-0.1-0.1-0.1-0.1-0.1l1-2.7
		c0,0,0,0,0-0.1c0,0,0,0,0.1,0h0.3c0,0,0.1,0,0.1,0c0,0,0,0,0,0.1l1,2.7c0,0,0,0,0,0c0,0,0,0,0,0.1s0,0-0.1,0h-0.2c0,0-0.1,0-0.1,0
		c0,0,0,0,0,0l-0.2-0.6H71l-0.2,0.6c0,0,0,0,0,0s0,0-0.1,0H70.4z M71.1,30.7h1.1l-0.6-1.5L71.1,30.7z"/>
	<path class="st0" d="M74.4,31.8c-0.3,0-0.5,0-0.6-0.1c-0.2-0.1-0.3-0.2-0.4-0.4c-0.1-0.2-0.1-0.4-0.1-0.6c0-0.1,0-0.2,0-0.4
		s0-0.3,0-0.4c0-0.2,0.1-0.4,0.1-0.6c0.1-0.2,0.2-0.3,0.4-0.4c0.2-0.1,0.4-0.1,0.6-0.1c0.2,0,0.4,0,0.5,0.1c0.1,0.1,0.3,0.1,0.4,0.2
		c0.1,0.1,0.2,0.2,0.2,0.3c0,0.1,0.1,0.2,0.1,0.3c0,0,0,0,0,0.1c0,0,0,0-0.1,0h-0.2c0,0,0,0-0.1,0c0,0,0,0,0-0.1
		c0-0.2-0.1-0.4-0.3-0.4c-0.1-0.1-0.3-0.1-0.5-0.1c-0.2,0-0.4,0.1-0.5,0.2s-0.2,0.3-0.2,0.6c0,0.2,0,0.5,0,0.7
		c0,0.3,0.1,0.5,0.2,0.6s0.3,0.2,0.5,0.2c0.2,0,0.4,0,0.5-0.1c0.1-0.1,0.2-0.2,0.3-0.4c0,0,0-0.1,0-0.1c0,0,0,0,0.1,0h0.2
		c0,0,0,0,0.1,0c0,0,0,0,0,0.1c0,0.1,0,0.2-0.1,0.3c0,0.1-0.1,0.2-0.2,0.3c-0.1,0.1-0.2,0.2-0.4,0.2S74.5,31.8,74.4,31.8z"/>
	<path class="st0" d="M76.8,31.7C76.8,31.7,76.7,31.7,76.8,31.7C76.7,31.7,76.7,31.7,76.8,31.7l-0.1-2.5h-0.8c0,0-0.1,0-0.1,0
		c0,0,0,0,0-0.1v-0.2c0,0,0-0.1,0-0.1c0,0,0,0,0.1,0h2c0,0,0.1,0,0.1,0c0,0,0,0,0,0.1v0.2c0,0,0,0.1,0,0.1c0,0,0,0-0.1,0h-0.8v2.4
		c0,0,0,0.1,0,0.1c0,0,0,0-0.1,0H76.8z"/>
	<path class="st0" d="M79.5,31.8c-0.2,0-0.4,0-0.6-0.1c-0.2-0.1-0.3-0.2-0.4-0.4c-0.1-0.2-0.1-0.4-0.1-0.7v-1.7c0,0,0-0.1,0-0.1
		c0,0,0,0,0.1,0h0.2c0,0,0.1,0,0.1,0c0,0,0,0,0,0.1v1.7c0,0.3,0.1,0.5,0.2,0.6s0.3,0.2,0.5,0.2c0.2,0,0.4-0.1,0.5-0.2
		c0.1-0.1,0.2-0.3,0.2-0.6v-1.7c0,0,0-0.1,0-0.1c0,0,0,0,0.1,0h0.2c0,0,0.1,0,0.1,0c0,0,0,0,0,0.1v1.7c0,0.3,0,0.5-0.1,0.7
		c-0.1,0.2-0.2,0.3-0.4,0.4C80,31.7,79.8,31.8,79.5,31.8z"/>
	<path class="st0" d="M81.1,31.7C81.1,31.7,81,31.7,81.1,31.7C81,31.7,81,31.7,81.1,31.7C81,31.6,81,31.6,81,31.6l1-2.7
		c0,0,0,0,0-0.1c0,0,0,0,0.1,0h0.3c0,0,0.1,0,0.1,0c0,0,0,0,0,0.1l1,2.7c0,0,0,0,0,0c0,0,0,0,0,0.1s0,0-0.1,0h-0.2c0,0-0.1,0-0.1,0
		c0,0,0,0,0,0L83,31.1h-1.4l-0.2,0.6c0,0,0,0,0,0s0,0-0.1,0H81.1z M81.7,30.7h1.1l-0.6-1.5L81.7,30.7z"/>
	<path class="st0" d="M84.1,31.7C84.1,31.7,84.1,31.7,84.1,31.7C84,31.7,84,31.7,84.1,31.7L84,28.9c0,0,0-0.1,0-0.1c0,0,0,0,0.1,0
		h0.2c0,0,0.1,0,0.1,0c0,0,0,0,0,0.1v2.4h1.4c0,0,0.1,0,0.1,0c0,0,0,0,0,0.1v0.2c0,0,0,0.1,0,0.1s0,0-0.1,0H84.1z"/>
	<path class="st0" d="M87.3,32.6C87.3,32.6,87.2,32.6,87.3,32.6C87.2,32.5,87.2,32.5,87.3,32.6l-0.1-4.4c0,0,0-0.1,0-0.1
		c0,0,0,0,0.1,0h0.2c0,0,0.1,0,0.1,0c0,0,0,0,0,0.1v4.4c0,0,0,0.1,0,0.1c0,0,0,0-0.1,0H87.3z"/>
	<path class="st0" d="M90.1,31.8c-0.2,0-0.4,0-0.6-0.1c-0.2-0.1-0.3-0.2-0.4-0.3C89.1,31.3,89,31.1,89,31c0,0,0,0,0-0.1
		c0,0,0,0,0.1,0h0.2c0,0,0.1,0,0.1,0s0,0,0,0.1c0,0.1,0,0.1,0.1,0.2c0.1,0.1,0.1,0.1,0.2,0.2c0.1,0,0.2,0.1,0.4,0.1
		c0.2,0,0.4,0,0.5-0.1c0.1-0.1,0.2-0.2,0.2-0.3c0-0.1,0-0.2-0.1-0.2c-0.1-0.1-0.1-0.1-0.3-0.2c-0.1,0-0.3-0.1-0.5-0.2
		c-0.2-0.1-0.4-0.1-0.5-0.2c-0.1-0.1-0.2-0.2-0.3-0.3c-0.1-0.1-0.1-0.2-0.1-0.4c0-0.1,0-0.3,0.1-0.4c0.1-0.1,0.2-0.2,0.3-0.3
		c0.1-0.1,0.3-0.1,0.5-0.1c0.2,0,0.3,0,0.4,0.1c0.1,0,0.2,0.1,0.3,0.2c0.1,0.1,0.1,0.2,0.2,0.2c0,0.1,0.1,0.2,0.1,0.3c0,0,0,0,0,0.1
		c0,0,0,0-0.1,0h-0.2c0,0,0,0-0.1,0c0,0,0,0,0-0.1c0-0.1-0.1-0.2-0.2-0.3s-0.3-0.1-0.4-0.1c-0.2,0-0.3,0-0.4,0.1
		c-0.1,0.1-0.2,0.2-0.2,0.3c0,0.1,0,0.2,0.1,0.2c0.1,0.1,0.1,0.1,0.2,0.2c0.1,0,0.3,0.1,0.4,0.1c0.2,0.1,0.4,0.1,0.5,0.2
		c0.1,0.1,0.2,0.2,0.3,0.3c0.1,0.1,0.1,0.2,0.1,0.4c0,0.2,0,0.3-0.1,0.4c-0.1,0.1-0.2,0.2-0.4,0.3C90.6,31.7,90.4,31.8,90.1,31.8z"
		/>
	<path class="st0" d="M92.5,31.7C92.4,31.7,92.4,31.7,92.5,31.7C92.4,31.7,92.4,31.7,92.5,31.7l-0.1-2.5h-0.8c0,0-0.1,0-0.1,0
		c0,0,0,0,0-0.1v-0.2c0,0,0-0.1,0-0.1c0,0,0,0,0.1,0h2c0,0,0.1,0,0.1,0c0,0,0,0,0,0.1v0.2c0,0,0,0.1,0,0.1c0,0,0,0-0.1,0h-0.8v2.4
		c0,0,0,0.1,0,0.1s0,0-0.1,0H92.5z"/>
	<path class="st0" d="M93.6,31.7C93.6,31.7,93.6,31.7,93.6,31.7C93.6,31.7,93.5,31.7,93.6,31.7c-0.1-0.1-0.1-0.1-0.1-0.1l1-2.7
		c0,0,0,0,0-0.1c0,0,0,0,0.1,0H95c0,0,0.1,0,0.1,0c0,0,0,0,0,0.1l1,2.7c0,0,0,0,0,0c0,0,0,0,0,0.1s0,0-0.1,0h-0.2c0,0-0.1,0-0.1,0
		c0,0,0,0,0,0l-0.2-0.6h-1.4l-0.2,0.6c0,0,0,0,0,0s0,0-0.1,0H93.6z M94.3,30.7h1.1l-0.6-1.5L94.3,30.7z"/>
	<path class="st0" d="M96.7,31.7C96.6,31.7,96.6,31.7,96.7,31.7C96.6,31.7,96.6,31.7,96.7,31.7l-0.1-2.8c0,0,0-0.1,0-0.1
		c0,0,0,0,0.1,0h1.7c0,0,0.1,0,0.1,0c0,0,0,0,0,0.1v0.2c0,0,0,0.1,0,0.1s0,0-0.1,0H97v1h1.3c0,0,0.1,0,0.1,0c0,0,0,0,0,0.1v0.2
		c0,0,0,0.1,0,0.1c0,0,0,0-0.1,0H97v1.1c0,0,0,0.1,0,0.1c0,0,0,0-0.1,0H96.7z"/>
	<path class="st0" d="M99.1,31.7C99.1,31.7,99,31.7,99.1,31.7C99,31.7,99,31.7,99.1,31.7L99,28.9c0,0,0-0.1,0-0.1c0,0,0,0,0.1,0h1.7
		c0,0,0.1,0,0.1,0c0,0,0,0,0,0.1v0.2c0,0,0,0.1,0,0.1s0,0-0.1,0h-1.4v1h1.3c0,0,0.1,0,0.1,0c0,0,0,0,0,0.1v0.2c0,0,0,0.1,0,0.1
		c0,0,0,0-0.1,0h-1.3v1.1c0,0,0,0.1,0,0.1c0,0,0,0-0.1,0H99.1z"/>
	<path class="st0" d="M101.5,31.7C101.5,31.7,101.4,31.7,101.5,31.7C101.4,31.7,101.4,31.7,101.5,31.7l-0.1-2.8c0,0,0-0.1,0-0.1
		c0,0,0,0,0.1,0h0.2c0,0,0.1,0,0.1,0c0,0,0,0,0,0.1v2.7c0,0,0,0.1,0,0.1c0,0,0,0-0.1,0H101.5z"/>
	<path class="st0" d="M102.6,31.7C102.6,31.7,102.6,31.7,102.6,31.7C102.5,31.7,102.5,31.7,102.6,31.7l-0.1-2.8c0,0,0-0.1,0-0.1
		c0,0,0,0,0.1,0h0.2c0,0,0.1,0,0.1,0c0,0,0,0,0,0l1.4,2.1v-2.1c0,0,0-0.1,0-0.1c0,0,0,0,0.1,0h0.2c0,0,0.1,0,0.1,0c0,0,0,0,0,0.1
		v2.7c0,0,0,0.1,0,0.1c0,0,0,0-0.1,0h-0.2c0,0-0.1,0-0.1,0s0,0,0,0l-1.4-2.1v2c0,0,0,0.1,0,0.1c0,0,0,0-0.1,0H102.6z"/>
	<path class="st0" d="M106.4,31.8c-0.2,0-0.4,0-0.6-0.1c-0.2-0.1-0.3-0.2-0.4-0.4c-0.1-0.2-0.1-0.4-0.1-0.6c0-0.1,0-0.2,0-0.4
		c0-0.1,0-0.3,0-0.4c0-0.2,0.1-0.4,0.1-0.6c0.1-0.2,0.2-0.3,0.4-0.4c0.2-0.1,0.4-0.1,0.6-0.1c0.2,0,0.4,0,0.5,0.1
		c0.1,0.1,0.3,0.1,0.4,0.2c0.1,0.1,0.2,0.2,0.2,0.3c0,0.1,0.1,0.2,0.1,0.2c0,0,0,0,0,0.1c0,0,0,0-0.1,0h-0.2c0,0,0,0-0.1,0
		c0,0,0,0,0-0.1c0-0.1-0.1-0.1-0.1-0.2c-0.1-0.1-0.1-0.1-0.2-0.2c-0.1,0-0.2-0.1-0.4-0.1c-0.2,0-0.4,0.1-0.5,0.2
		c-0.1,0.1-0.2,0.3-0.2,0.6c0,0.2,0,0.5,0,0.7c0,0.3,0.1,0.5,0.2,0.6c0.1,0.1,0.3,0.2,0.5,0.2c0.1,0,0.3,0,0.4-0.1
		c0.1-0.1,0.2-0.1,0.3-0.2c0.1-0.1,0.1-0.3,0.1-0.4v-0.2h-0.6c0,0-0.1,0-0.1,0c0,0,0,0,0-0.1v-0.1c0,0,0-0.1,0-0.1c0,0,0,0,0.1,0
		h0.9c0,0,0.1,0,0.1,0c0,0,0,0,0,0.1v0.4c0,0.2,0,0.4-0.1,0.6c-0.1,0.2-0.2,0.3-0.4,0.4C106.9,31.7,106.7,31.8,106.4,31.8z"/>
	<path class="st0" d="M110.1,31.8c-0.2,0-0.4,0-0.6-0.1c-0.2-0.1-0.3-0.2-0.4-0.3c-0.1-0.1-0.1-0.2-0.1-0.4c0,0,0,0,0-0.1
		c0,0,0,0,0.1,0h0.2c0,0,0.1,0,0.1,0s0,0,0,0.1c0,0.1,0,0.1,0.1,0.2c0.1,0.1,0.1,0.1,0.2,0.2c0.1,0,0.2,0.1,0.4,0.1
		c0.2,0,0.4,0,0.5-0.1c0.1-0.1,0.2-0.2,0.2-0.3c0-0.1,0-0.2-0.1-0.2c-0.1-0.1-0.1-0.1-0.3-0.2c-0.1,0-0.3-0.1-0.5-0.2
		c-0.2-0.1-0.4-0.1-0.5-0.2c-0.1-0.1-0.2-0.2-0.3-0.3c-0.1-0.1-0.1-0.2-0.1-0.4c0-0.1,0-0.3,0.1-0.4c0.1-0.1,0.2-0.2,0.3-0.3
		c0.1-0.1,0.3-0.1,0.5-0.1c0.2,0,0.3,0,0.4,0.1c0.1,0,0.2,0.1,0.3,0.2c0.1,0.1,0.1,0.2,0.2,0.2c0,0.1,0.1,0.2,0.1,0.3c0,0,0,0,0,0.1
		c0,0,0,0-0.1,0h-0.2c0,0,0,0-0.1,0c0,0,0,0,0-0.1c0-0.1-0.1-0.2-0.2-0.3s-0.3-0.1-0.4-0.1c-0.2,0-0.3,0-0.4,0.1
		c-0.1,0.1-0.2,0.2-0.2,0.3c0,0.1,0,0.2,0.1,0.2c0.1,0.1,0.1,0.1,0.2,0.2c0.1,0,0.3,0.1,0.4,0.1c0.2,0.1,0.4,0.1,0.5,0.2
		c0.1,0.1,0.2,0.2,0.3,0.3c0.1,0.1,0.1,0.2,0.1,0.4c0,0.2,0,0.3-0.1,0.4c-0.1,0.1-0.2,0.2-0.4,0.3S110.3,31.8,110.1,31.8z"/>
	<path class="st0" d="M112.8,31.8c-0.2,0-0.4,0-0.6-0.1c-0.2-0.1-0.3-0.2-0.4-0.4c-0.1-0.2-0.1-0.4-0.2-0.6c0-0.1,0-0.2,0-0.3
		c0-0.1,0-0.2,0-0.3c0-0.3,0.1-0.5,0.2-0.6c0.1-0.2,0.2-0.3,0.4-0.4c0.2-0.1,0.4-0.1,0.6-0.1c0.2,0,0.4,0,0.6,0.1
		c0.2,0.1,0.3,0.2,0.4,0.4c0.1,0.2,0.1,0.4,0.2,0.6c0,0.1,0,0.2,0,0.3c0,0.1,0,0.2,0,0.3c0,0.3-0.1,0.5-0.1,0.6
		c-0.1,0.2-0.2,0.3-0.4,0.4C113.2,31.7,113,31.8,112.8,31.8z M112.8,31.4c0.2,0,0.4-0.1,0.5-0.2c0.1-0.1,0.2-0.3,0.2-0.6
		c0-0.1,0-0.2,0-0.3s0-0.2,0-0.3c0-0.2,0-0.3-0.1-0.5c-0.1-0.1-0.1-0.2-0.3-0.3c-0.1-0.1-0.2-0.1-0.4-0.1c-0.1,0-0.3,0-0.4,0.1
		c-0.1,0.1-0.2,0.1-0.3,0.3c-0.1,0.1-0.1,0.3-0.1,0.5c0,0.1,0,0.2,0,0.3s0,0.2,0,0.3c0,0.3,0.1,0.5,0.2,0.6
		C112.4,31.4,112.6,31.4,112.8,31.4z"/>
	<path class="st0" d="M114.6,31.7C114.6,31.7,114.6,31.7,114.6,31.7C114.5,31.7,114.5,31.7,114.6,31.7l-0.1-2.8c0,0,0-0.1,0-0.1
		c0,0,0,0,0.1,0h0.2c0,0,0.1,0,0.1,0c0,0,0,0,0,0.1v2.4h1.4c0,0,0.1,0,0.1,0c0,0,0,0,0,0.1v0.2c0,0,0,0.1,0,0.1s0,0-0.1,0H114.6z"/>
	<path class="st0" d="M117.9,31.8c-0.2,0-0.4,0-0.6-0.1c-0.2-0.1-0.3-0.2-0.4-0.4c-0.1-0.2-0.1-0.4-0.1-0.7v-1.7c0,0,0-0.1,0-0.1
		c0,0,0,0,0.1,0h0.2c0,0,0.1,0,0.1,0c0,0,0,0,0,0.1v1.7c0,0.3,0.1,0.5,0.2,0.6s0.3,0.2,0.5,0.2c0.2,0,0.4-0.1,0.5-0.2
		c0.1-0.1,0.2-0.3,0.2-0.6v-1.7c0,0,0-0.1,0-0.1c0,0,0,0,0.1,0h0.2c0,0,0.1,0,0.1,0c0,0,0,0,0,0.1v1.7c0,0.3,0,0.5-0.1,0.7
		c-0.1,0.2-0.2,0.3-0.4,0.4C118.3,31.7,118.1,31.8,117.9,31.8z"/>
	<path class="st0" d="M120.4,31.7C120.4,31.7,120.3,31.7,120.4,31.7C120.3,31.7,120.3,31.7,120.4,31.7l-0.1-2.5h-0.8
		c0,0-0.1,0-0.1,0c0,0,0,0,0-0.1v-0.2c0,0,0-0.1,0-0.1c0,0,0,0,0.1,0h2c0,0,0.1,0,0.1,0c0,0,0,0,0,0.1v0.2c0,0,0,0.1,0,0.1
		c0,0,0,0-0.1,0h-0.8v2.4c0,0,0,0.1,0,0.1c0,0,0,0-0.1,0H120.4z"/>
	<path class="st0" d="M122.1,31.7C122.1,31.7,122.1,31.7,122.1,31.7C122.1,31.7,122,31.7,122.1,31.7l-0.1-2.8c0,0,0-0.1,0-0.1
		c0,0,0,0,0.1,0h0.2c0,0,0.1,0,0.1,0c0,0,0,0,0,0.1v2.7c0,0,0,0.1,0,0.1c0,0,0,0-0.1,0H122.1z"/>
	<path class="st0" d="M124.2,31.8c-0.2,0-0.4,0-0.6-0.1c-0.2-0.1-0.3-0.2-0.4-0.4c-0.1-0.2-0.1-0.4-0.2-0.6c0-0.1,0-0.2,0-0.3
		c0-0.1,0-0.2,0-0.3c0-0.3,0.1-0.5,0.2-0.6c0.1-0.2,0.2-0.3,0.4-0.4c0.2-0.1,0.4-0.1,0.6-0.1c0.2,0,0.4,0,0.6,0.1
		c0.2,0.1,0.3,0.2,0.4,0.4c0.1,0.2,0.1,0.4,0.2,0.6c0,0.1,0,0.2,0,0.3c0,0.1,0,0.2,0,0.3c0,0.3-0.1,0.5-0.1,0.6
		c-0.1,0.2-0.2,0.3-0.4,0.4C124.6,31.7,124.4,31.8,124.2,31.8z M124.2,31.4c0.2,0,0.4-0.1,0.5-0.2c0.1-0.1,0.2-0.3,0.2-0.6
		c0-0.1,0-0.2,0-0.3s0-0.2,0-0.3c0-0.2,0-0.3-0.1-0.5c-0.1-0.1-0.1-0.2-0.3-0.3c-0.1-0.1-0.2-0.1-0.4-0.1c-0.1,0-0.3,0-0.4,0.1
		c-0.1,0.1-0.2,0.1-0.3,0.3c-0.1,0.1-0.1,0.3-0.1,0.5c0,0.1,0,0.2,0,0.3s0,0.2,0,0.3c0,0.3,0.1,0.5,0.2,0.6
		C123.8,31.4,124,31.4,124.2,31.4z"/>
	<path class="st0" d="M126.1,31.7C126,31.7,126,31.7,126.1,31.7C126,31.7,126,31.7,126.1,31.7l-0.1-2.8c0,0,0-0.1,0-0.1
		c0,0,0,0,0.1,0h0.2c0,0,0.1,0,0.1,0c0,0,0,0,0,0l1.4,2.1v-2.1c0,0,0-0.1,0-0.1c0,0,0,0,0.1,0h0.2c0,0,0.1,0,0.1,0c0,0,0,0,0,0.1
		v2.7c0,0,0,0.1,0,0.1c0,0,0,0-0.1,0h-0.2c0,0-0.1,0-0.1,0c0,0,0,0,0,0l-1.4-2.1v2c0,0,0,0.1,0,0.1c0,0,0,0-0.1,0H126.1z"/>
</g>
</svg>
